SplineFontDB: 3.0
FontName: Boon-600i
FullName: Boon 600 Oblique
FamilyName: Boon
Weight: 600
Copyright: Copyright 2013-2015, Sungsit Sawaiwan (https://fontuni.com | uni@fontuni.com). This Font Software is licensed under the SIL Open Font License, Version 1.1 (http://scripts.sil.org/OFL).
Version: 1.0-beta2
ItalicAngle: -9
UnderlinePosition: -120
UnderlineWidth: 60
Ascent: 960
Descent: 240
InvalidEm: 0
woffMajor: 1
woffMinor: 0
UFOAscent: 960
UFODescent: -240
LayerCount: 2
Layer: 0 0 "Back" 1
Layer: 1 0 "Fore" 0
StyleMap: 0x0000
FSType: 0
OS2Version: 0
OS2_WeightWidthSlopeOnly: 0
OS2_UseTypoMetrics: 0
CreationTime: 1369324892
ModificationTime: 1445537333
PfmFamily: 33
TTFWeight: 600
TTFWidth: 5
LineGap: 90
VLineGap: 0
OS2TypoAscent: 960
OS2TypoAOffset: 0
OS2TypoDescent: -240
OS2TypoDOffset: 0
OS2TypoLinegap: 90
OS2WinAscent: 1320
OS2WinAOffset: 0
OS2WinDescent: 480
OS2WinDOffset: 0
HheadAscent: 1320
HheadAOffset: 0
HheadDescent: -480
HheadDOffset: 0
OS2CapHeight: 780
OS2XHeight: 600
OS2Vendor: 'FUni'
Lookup: 1 0 0 "ThaiRC.rd" { "ThaiRC.rd subtable"  } ['ss01' ('thai' <'dflt' > ) 'salt' ('thai' <'dflt' > ) 'ccmp' ('thai' <'PAL ' 'SAN ' > ) 'locl' ('thai' <'PAL ' 'SAN ' > ) ]
Lookup: 6 0 0 "ThaiContextRC.rd" { "ThaiContextRC.rd subtable"  } ['ccmp' ('thai' <'dflt' > ) ]
Lookup: 2 0 0 "ThaiDecomp" { "ThaiDecomp subtable"  } ['ccmp' ('thai' <'dflt' > ) ]
Lookup: 1 0 0 "ThaiT.0E4D" { "ThaiT.0E4D subtable"  } []
Lookup: 1 0 0 "Thai0E4D.0E48" { "Thai0E4D.0E48 subtable"  } []
Lookup: 1 0 0 "Thai0E4D.0E49" { "Thai0E4D.0E49 subtable"  } []
Lookup: 1 0 0 "Thai0E4D.0E4A" { "Thai0E4D.0E4A subtable"  } []
Lookup: 1 0 0 "Thai0E4D.0E4B" { "Thai0E4D.0E4B subtable"  } []
Lookup: 6 0 0 "ThaiContext.ro" { "ThaiContext.ro contextual 0"  "ThaiContext.ro contextual 1"  "ThaiContext.ro contextual 2"  "ThaiContext.ro contextual 3"  } ['ccmp' ('thai' <'dflt' > ) ]
Lookup: 1 0 0 "Thai.sd" { "Thai.sd subtable"  } []
Lookup: 1 0 0 "ThaiBV.sd" { "ThaiBV.sd subtable"  } []

StartChar: .notdef
Encoding: 844 -1 0
GlifName: _notdef
Width: 660
VWidth: 0
Flags: HMW
LayerCount: 2
Fore
SplineSet
28 0 m 1
 123 600 l 1
 365 600 l 1
 607 600 l 1
 512 0 l 1
 270 0 l 1
 28 0 l 1
286 103 m 1
 400 103 l 1
 463 497 l 1
 349 497 l 1
 235 497 l 1
 172 103 l 1
 286 103 l 1
EndSplineSet
PickledDataWithLists: "(dp0
Vcom.fontlab.hintData
p1
(dp2
Vvhints
p3
(lp4
(dp5
Vposition
p6
L160L
sVwidth
p7
L10L
sa(dp8
g6
L190L
sg7
L10L
sa(dp9
g6
L520L
sg7
L10L
sa(dp10
g6
L550L
sg7
L10L
sasVhhints
p11
(lp12
(dp13
g6
L0L
sg7
L10L
sa(dp14
g6
L30L
sg7
L10L
sa(dp15
g6
L560L
sg7
L10L
sa(dp16
g6
L590L
sg7
L10L
sass."
EndChar

StartChar: exclam
Encoding: 4 33 5
GlifName: exclam
Width: 330
VWidth: 0
Flags: HMW
LayerCount: 2
Fore
SplineSet
130 157 m 0
 175 157 206 131 206 90 c 0
 206 85 206 81 205 76 c 0
 197 26 154 -5 104 -5 c 0
 59 -5 28 21 28 62 c 0
 28 67 28 71 29 76 c 0
 37 126 80 157 130 157 c 0
151 810 m 1
 315 810 l 1
 196 270 l 1
 100 270 l 1
 151 810 l 1
EndSplineSet
PickledDataWithLists: "(dp0
Vcom.fontlab.hintData
p1
(dp2
Vvhints
p3
(lp4
(dp5
Vposition
p6
L81L
sVwidth
p7
L10L
sa(dp8
g6
L101L
sg7
L10L
sa(dp9
g6
L125L
sg7
L10L
sa(dp10
g6
L195L
sg7
L10L
sa(dp11
g6
L210L
sg7
L10L
sa(dp12
g6
L239L
sg7
L10L
sasVhhints
p13
(lp14
(dp15
g6
L-5L
sg7
L10L
sa(dp16
g6
L122L
sg7
L10L
sa(dp17
g6
L268L
sg7
L10L
sa(dp18
g6
L826L
sg7
L10L
sass."
EndChar

StartChar: quotedbl
Encoding: 5 34 6
GlifName: quotedbl
Width: 540
VWidth: 0
Flags: HMW
LayerCount: 2
Fore
SplineSet
178 900 m 1
 308 900 l 1
 229 540 l 1
 142 540 l 1
 178 900 l 1
398 900 m 1
 528 900 l 1
 449 540 l 1
 362 540 l 1
 398 900 l 1
EndSplineSet
PickledDataWithLists: "(dp0
Vcom.fontlab.hintData
p1
(dp2
Vvhints
p3
(lp4
(dp5
Vposition
p6
L107L
sVwidth
p7
L10L
sa(dp8
g6
L196L
sg7
L10L
sa(dp9
g6
L304L
sg7
L10L
sa(dp10
g6
L313L
sg7
L10L
sa(dp11
g6
L393L
sg7
L10L
sasVhhints
p12
(lp13
(dp14
g6
L548L
sg7
L10L
sa(dp15
g6
L553L
sg7
L10L
sa(dp16
g6
L829L
sg7
L10L
sass."
EndChar

StartChar: numbersign
Encoding: 6 35 7
GlifName: numbersign
Width: 810
VWidth: 0
Flags: HMW
LayerCount: 2
Fore
SplineSet
11 198 m 1
 26 292 l 1
 167 292 l 1
 250 488 l 1
 117 488 l 1
 132 582 l 1
 291 582 l 1
 376 780 l 1
 488 780 l 1
 403 582 l 1
 575 582 l 1
 660 780 l 1
 772 780 l 1
 687 582 l 1
 802 582 l 1
 787 488 l 1
 646 488 l 1
 563 292 l 1
 696 292 l 1
 681 198 l 1
 522 198 l 1
 438 0 l 1
 326 0 l 1
 410 198 l 1
 238 198 l 1
 154 0 l 1
 42 0 l 1
 126 198 l 1
 11 198 l 1
362 488 m 1
 279 292 l 1
 451 292 l 1
 534 488 l 1
 362 488 l 1
EndSplineSet
PickledDataWithLists: "(dp0
Vcom.fontlab.hintData
p1
(dp2
Vvhints
p3
(lp4
(dp5
Vposition
p6
L111L
sVwidth
p7
L10L
sa(dp8
g6
L329L
sg7
L10L
sa(dp9
g6
L381L
sg7
L10L
sa(dp10
g6
L599L
sg7
L10L
sa(dp11
g6
L649L
sg7
L10L
sa(dp12
g6
L689L
sg7
L10L
sasVhhints
p13
(lp14
(dp15
g6
L-29L
sg7
L10L
sa(dp16
g6
L-19L
sg7
L10L
sa(dp17
g6
L241L
sg7
L7L
sa(dp18
g6
L284L
sg7
L10L
sa(dp19
g6
L521L
sg7
L7L
sa(dp20
g6
L564L
sg7
L10L
sa(dp21
g6
L819L
sg7
L10L
sa(dp22
g6
L829L
sg7
L10L
sass."
EndChar

StartChar: dollar
Encoding: 7 36 8
GlifName: dollar
Width: 660
VWidth: 0
Flags: HMW
LayerCount: 2
Fore
SplineSet
22 188 m 1
 164 196 l 1
 164 195 164 195 164 194 c 0
 164 134 211 88 284 88 c 0
 366 88 426 123 439 206 c 0
 440 213 441 221 441 227 c 0
 441 285 396 306 373 314 c 0
 325 330 258 360 212 379 c 0
 155 404 99 456 99 543 c 0
 99 554 100 566 102 578 c 0
 118 681 204 775 348 792 c 1
 366 900 l 1
 469 900 l 1
 451 791 l 1
 587 768 626 661 626 597 c 1
 483 587 l 1
 483 588 483 588 483 589 c 0
 483 651 445 692 380 692 c 0
 320 692 255 659 242 578 c 0
 241 572 241 567 241 562 c 0
 241 512 283 491 313 478 c 0
 359 459 422 433 462 419 c 0
 528 396 583 344 583 249 c 0
 583 236 582 221 580 206 c 0
 564 103 475 7 324 -12 c 1
 307 -120 l 1
 204 -120 l 1
 221 -12 l 1
 68 7 22 117 22 186 c 0
 22 187 22 187 22 188 c 1
EndSplineSet
PickledDataWithLists: "(dp0
Vcom.fontlab.hintData
p1
(dp2
Vvhints
p3
(lp4
(dp5
Vposition
p6
L70L
sVwidth
p7
L10L
sa(dp8
g6
L78L
sg7
L10L
sa(dp9
g6
L169L
sg7
L10L
sa(dp10
g6
L319L
sg7
L10L
sa(dp11
g6
L323L
sg7
L10L
sa(dp12
g6
L382L
sg7
L10L
sa(dp13
g6
L392L
sg7
L10L
sa(dp14
g6
L504L
sg7
L10L
sa(dp15
g6
L565L
sg7
L10L
sa(dp16
g6
L604L
sg7
L10L
sa(dp17
g6
L664L
sg7
L10L
sasVhhints
p18
(lp19
(dp20
g6
L-127L
sg7
L10L
sa(dp21
g6
L46L
sg7
L10L
sa(dp22
g6
L192L
sg7
L10L
sa(dp23
g6
L584L
sg7
L10L
sa(dp24
g6
L812L
sg7
L10L
sa(dp25
g6
L916L
sg7
L10L
sass."
EndChar

StartChar: percent
Encoding: 8 37 9
GlifName: percent
Width: 780
VWidth: 0
Flags: HMW
LayerCount: 2
Fore
SplineSet
8 0 m 1
 9 7 l 1
 690 780 l 1
 777 780 l 1
 775 773 l 1
 95 0 l 1
 8 0 l 1
53 575 m 2
 56 595 l 2
 69 675 108 790 230 790 c 0
 324 790 347 723 347 655 c 0
 347 635 345 614 342 595 c 2
 339 575 l 2
 326 495 287 380 165 380 c 0
 71 380 48 447 48 515 c 0
 48 535 50 556 53 575 c 2
175 440 m 0
 205 440 240 481 255 575 c 2
 258 595 l 2
 261 616 263 634 263 650 c 0
 263 705 244 730 221 730 c 0
 191 730 155 689 140 595 c 2
 137 575 l 2
 134 555 132 537 132 521 c 0
 132 465 151 440 175 440 c 0
441 185 m 2
 444 205 l 2
 457 285 496 400 618 400 c 0
 712 400 735 333 735 265 c 0
 735 245 733 224 730 205 c 2
 727 185 l 2
 714 105 675 -10 553 -10 c 0
 459 -10 436 57 436 125 c 0
 436 145 438 166 441 185 c 2
563 50 m 0
 593 50 628 91 643 185 c 2
 646 205 l 2
 649 226 651 244 651 260 c 0
 651 315 632 340 609 340 c 0
 579 340 543 299 528 205 c 2
 525 185 l 2
 522 165 520 147 520 131 c 0
 520 75 539 50 563 50 c 0
EndSplineSet
PickledDataWithLists: "(dp0
Vcom.fontlab.hintData
p1
(dp2
Vvhints
p3
(lp4
(dp5
Vposition
p6
L50L
sVwidth
p7
L10L
sa(dp8
g6
L70L
sg7
L10L
sa(dp9
g6
L120L
sg7
L10L
sa(dp10
g6
L246L
sg7
L10L
sa(dp11
g6
L290L
sg7
L10L
sa(dp12
g6
L320L
sg7
L10L
sa(dp13
g6
L360L
sg7
L10L
sa(dp14
g6
L410L
sg7
L10L
sa(dp15
g6
L480L
sg7
L10L
sa(dp16
g6
L606L
sg7
L10L
sa(dp17
g6
L650L
sg7
L10L
sa(dp18
g6
L680L
sg7
L10L
sa(dp19
g6
L699L
sg7
L10L
sa(dp20
g6
L720L
sg7
L10L
sasVhhints
p21
(lp22
(dp23
g6
L-14L
sg7
L10L
sa(dp24
g6
L6L
sg7
L10L
sa(dp25
g6
L34L
sg7
L10L
sa(dp26
g6
L369L
sg7
L10L
sa(dp27
g6
L374L
sg7
L10L
sa(dp28
g6
L416L
sg7
L10L
sa(dp29
g6
L422L
sg7
L10L
sa(dp30
g6
L757L
sg7
L10L
sa(dp31
g6
L784L
sg7
L10L
sa(dp32
g6
L804L
sg7
L10L
sass."
EndChar

StartChar: ampersand
Encoding: 9 38 10
GlifName: ampersand
Width: 810
VWidth: 0
Flags: HMW
LayerCount: 2
Fore
SplineSet
618 157 m 1
 685 74 739 7 739 7 c 1
 738 0 l 1
 579 0 l 1
 579 0 556 29 523 72 c 1
 444 15 350 -20 249 -20 c 0
 93 -20 24 54 24 145 c 0
 24 155 24 165 26 175 c 0
 44 286 152 365 259 427 c 1
 231 476 207 534 207 590 c 0
 207 599 208 609 209 618 c 0
 228 735 321 800 429 800 c 0
 544 800 591 735 591 667 c 0
 591 659 590 651 589 643 c 0
 575 554 510 474 414 413 c 1
 449 369 501 304 554 238 c 1
 590 290 617 351 632 415 c 1
 749 398 l 1
 729 314 682 228 618 157 c 1
465 147 m 1
 412 216 352 296 311 351 c 1
 219 290 176 230 167 175 c 0
 166 169 165 163 165 157 c 0
 165 108 203 85 265 85 c 0
 344 85 411 108 465 147 c 1
414 709 m 0
 365 709 341 665 333 615 c 0
 332 609 332 602 332 595 c 0
 332 561 344 524 362 489 c 1
 426 537 462 596 469 643 c 0
 470 648 470 653 470 657 c 0
 470 692 447 709 414 709 c 0
EndSplineSet
PickledDataWithLists: "(dp0
Vcom.fontlab.hintData
p1
(dp2
Vvhints
p3
(lp4
(dp5
Vposition
p6
L66L
sVwidth
p7
L10L
sa(dp8
g6
L164L
sg7
L10L
sa(dp9
g6
L202L
sg7
L10L
sa(dp10
g6
L296L
sg7
L10L
sa(dp11
g6
L450L
sg7
L10L
sa(dp12
g6
L538L
sg7
L10L
sa(dp13
g6
L695L
sg7
L10L
sa(dp14
g6
L749L
sg7
L10L
sasVhhints
p15
(lp16
(dp17
g6
L-25L
sg7
L10L
sa(dp18
g6
L39L
sg7
L10L
sa(dp19
g6
L389L
sg7
L10L
sa(dp20
g6
L734L
sg7
L10L
sa(dp21
g6
L796L
sg7
L10L
sass."
EndChar

StartChar: quotesingle
Encoding: 10 39 11
GlifName: quotesingle
Width: 330
VWidth: 0
Flags: HMW
LayerCount: 2
Fore
SplineSet
183 900 m 1
 313 900 l 1
 234 540 l 1
 147 540 l 1
 183 900 l 1
EndSplineSet
PickledDataWithLists: "(dp0
Vcom.fontlab.hintData
p1
(dp2
Vvhints
p3
(lp4
(dp5
Vposition
p6
L110L
sVwidth
p7
L10L
sa(dp8
g6
L209L
sg7
L10L
sasVhhints
p9
(lp10
(dp11
g6
L544L
sg7
L10L
sa(dp12
g6
L832L
sg7
L10L
sass."
EndChar

StartChar: parenleft
Encoding: 11 40 12
GlifName: parenleft
Width: 390
VWidth: 0
Flags: HMW
LayerCount: 2
Fore
SplineSet
59 390 m 0
 94 612 198 785 326 913 c 1
 406 879 l 1
 293 760 216 598 183 390 c 0
 174 330 169 274 169 222 c 0
 169 92 197 -14 251 -99 c 1
 160 -133 l 1
 92 -34 47 93 47 248 c 0
 47 293 51 340 59 390 c 0
EndSplineSet
PickledDataWithLists: "(dp0
Vcom.fontlab.hintData
p1
(dp2
Vvhints
p3
(lp4
(dp5
Vposition
p6
L55L
sVwidth
p7
L10L
sa(dp8
g6
L135L
sg7
L10L
sa(dp9
g6
L270L
sg7
L10L
sasVhhints
p10
(lp11
(dp12
g6
L-112L
sg7
L10L
sa(dp13
g6
L882L
sg7
L10L
sass."
Substitution2: "Latin.subs subtable" parenleft.subs
Substitution2: "Latin.subs subtable" parenleft.subs
Substitution2: "Latin.sups subtable" parenleft.sups
Substitution2: "Latin.sups subtable" parenleft.sups
EndChar

StartChar: parenright
Encoding: 12 41 13
GlifName: parenright
Width: 390
VWidth: 0
Flags: HMW
LayerCount: 2
Fore
SplineSet
335 390 m 0
 300 168 196 -5 68 -133 c 1
 -13 -99 l 1
 100 20 178 182 211 390 c 0
 220 449 225 504 225 556 c 0
 225 687 196 794 142 879 c 1
 234 913 l 1
 302 814 347 687 347 532 c 0
 347 487 343 440 335 390 c 0
EndSplineSet
PickledDataWithLists: "(dp0
Vcom.fontlab.hintData
p1
(dp2
Vvhints
p3
(lp4
(dp5
Vposition
p6
L79L
sVwidth
p7
L10L
sa(dp8
g6
L215L
sg7
L10L
sa(dp9
g6
L295L
sg7
L10L
sasVhhints
p10
(lp11
(dp12
g6
L-112L
sg7
L10L
sa(dp13
g6
L882L
sg7
L10L
sass."
Substitution2: "Latin.subs subtable" parenright.subs
Substitution2: "Latin.subs subtable" parenright.subs
Substitution2: "Latin.sups subtable" parenright.sups
Substitution2: "Latin.sups subtable" parenright.sups
EndChar

StartChar: asterisk
Encoding: 13 42 14
GlifName: asterisk
Width: 570
VWidth: 0
Flags: HMW
LayerCount: 2
Fore
SplineSet
88 679 m 1
 143 793 l 1
 302 710 l 1
 308 900 l 1
 428 900 l 1
 371 710 l 1
 559 793 l 1
 577 679 l 1
 383 644 l 1
 493 506 l 1
 386 435 l 1
 321 604 l 1
 202 435 l 1
 116 506 l 1
 271 644 l 1
 88 679 l 1
EndSplineSet
PickledDataWithLists: "(dp0
Vcom.fontlab.hintData
p1
(dp2
Vvhints
p3
(lp4
(dp5
Vposition
p6
L84L
sVwidth
p7
L10L
sa(dp8
g6
L89L
sg7
L10L
sa(dp9
g6
L256L
sg7
L10L
sa(dp10
g6
L265L
sg7
L10L
sa(dp11
g6
L272L
sg7
L10L
sa(dp12
g6
L326L
sg7
L10L
sa(dp13
g6
L335L
sg7
L10L
sa(dp14
g6
L501L
sg7
L10L
sa(dp15
g6
L506L
sg7
L10L
sasVhhints
p16
(lp17
(dp18
g6
L392L
sg7
L10L
sa(dp19
g6
L488L
sg7
L10L
sa(dp20
g6
L495L
sg7
L10L
sa(dp21
g6
L735L
sg7
L10L
sa(dp22
g6
L742L
sg7
L10L
sa(dp23
g6
L839L
sg7
L10L
sass."
EndChar

StartChar: plus
Encoding: 14 43 15
GlifName: plus
Width: 600
VWidth: 0
Flags: HMW
LayerCount: 2
Fore
SplineSet
72 313 m 1
 86 407 l 1
 240 407 l 1
 265 565 l 1
 394 565 l 1
 369 407 l 1
 522 407 l 1
 508 313 l 1
 355 313 l 1
 330 155 l 1
 201 155 l 1
 226 313 l 1
 72 313 l 1
EndSplineSet
PickledDataWithLists: "(dp0
Vcom.fontlab.hintData
p1
(dp2
Vvhints
p3
(lp4
(dp5
Vposition
p6
L80L
sVwidth
p7
L10L
sa(dp8
g6
L250L
sg7
L10L
sa(dp9
g6
L259L
sg7
L10L
sa(dp10
g6
L340L
sg7
L10L
sa(dp11
g6
L510L
sg7
L10L
sasVhhints
p12
(lp13
(dp14
g6
L145L
sg7
L10L
sa(dp15
g6
L302L
sg7
L10L
sa(dp16
g6
L362L
sg7
L10L
sa(dp17
g6
L370L
sg7
L10L
sa(dp18
g6
L525L
sg7
L10L
sass."
EndChar

StartChar: comma
Encoding: 15 44 16
GlifName: comma
Width: 330
VWidth: 0
Flags: HMW
LayerCount: 2
Fore
SplineSet
29 73 m 0
 37 122 75 158 130 158 c 0
 192 158 215 114 215 65 c 0
 215 56 214 48 213 39 c 0
 195 -77 104 -161 27 -205 c 1
 -7 -149 l 1
 42 -121 89 -73 112 -4 c 1
 108 -4 103 -5 99 -5 c 0
 57 -5 28 19 28 58 c 0
 28 63 28 68 29 73 c 0
EndSplineSet
PickledDataWithLists: "(dp0
Vcom.fontlab.hintData
p1
(dp2
Vvhints
p3
(lp4
(dp5
Vposition
p6
L61L
sVwidth
p7
L10L
sa(dp8
g6
L170L
sg7
L10L
sa(dp9
g6
L251L
sg7
L10L
sasVhhints
p10
(lp11
(dp12
g6
L-182L
sg7
L10L
sa(dp13
g6
L48L
sg7
L10L
sa(dp14
g6
L117L
sg7
L10L
sass."
EndChar

StartChar: hyphen
Encoding: 16 45 17
GlifName: hyphen
Width: 600
VWidth: 0
Flags: HMW
LayerCount: 2
Fore
SplineSet
87 412 m 1
 523 412 l 1
 507 308 l 1
 71 308 l 1
 87 412 l 1
EndSplineSet
PickledDataWithLists: "(dp0
Vcom.fontlab.hintData
p1
(dp2
Vvhints
p3
(lp4
(dp5
Vposition
p6
L75L
sVwidth
p7
L10L
sa(dp8
g6
L514L
sg7
L10L
sasVhhints
p9
(lp10
(dp11
g6
L301L
sg7
L10L
sa(dp12
g6
L363L
sg7
L10L
sa(dp13
g6
L371L
sg7
L10L
sass."
EndChar

StartChar: period
Encoding: 17 46 18
GlifName: period
Width: 330
VWidth: 0
Flags: HMW
LayerCount: 2
Fore
SplineSet
130 157 m 0
 175 157 206 131 206 90 c 0
 206 85 206 81 205 76 c 0
 197 26 154 -5 104 -5 c 0
 59 -5 28 21 28 62 c 0
 28 67 28 71 29 76 c 0
 37 126 80 157 130 157 c 0
EndSplineSet
PickledDataWithLists: "(dp0
Vcom.fontlab.hintData
p1
(dp2
Vvhints
p3
(lp4
(dp5
Vposition
p6
L81L
sVwidth
p7
L10L
sa(dp8
g6
L239L
sg7
L10L
sasVhhints
p9
(lp10
(dp11
g6
L-5L
sg7
L10L
sa(dp12
g6
L122L
sg7
L10L
sass."
EndChar

StartChar: slash
Encoding: 18 47 19
GlifName: slash
Width: 510
VWidth: 0
Flags: HMW
LayerCount: 2
Fore
SplineSet
-30 0 m 1
 -29 7 l 1
 420 780 l 1
 544 780 l 1
 542 773 l 1
 94 0 l 1
 -30 0 l 1
EndSplineSet
PickledDataWithLists: "(dp0
Vcom.fontlab.hintData
p1
(dp2
Vvhints
p3
(lp4
(dp5
Vposition
p6
L41L
sVwidth
p7
L10L
sa(dp8
g6
L429L
sg7
L10L
sasVhhints
p9
(lp10
(dp11
g6
L-29L
sg7
L10L
sa(dp12
g6
L818L
sg7
L10L
sass."
Substitution2: "LatinSlash.frac subtable" fraction
EndChar

StartChar: zero
Encoding: 19 48 20
GlifName: zero
Width: 660
VWidth: 0
Flags: HMW
LayerCount: 2
Fore
SplineSet
52 372 m 2
 58 408 l 2
 84 575 164 800 397 800 c 0
 576 800 622 667 622 530 c 0
 622 489 618 447 612 408 c 2
 606 372 l 2
 580 205 500 -20 267 -20 c 0
 88 -20 42 113 42 250 c 0
 42 291 46 333 52 372 c 2
283 85 m 0
 359 85 434 181 464 372 c 2
 470 408 l 2
 476 449 480 486 480 518 c 0
 480 636 440 695 380 695 c 0
 304 695 230 599 200 408 c 2
 194 372 l 2
 187 330 184 293 184 260 c 0
 184 143 224 85 283 85 c 0
EndSplineSet
PickledDataWithLists: "(dp0
Vcom.fontlab.hintData
p1
(dp2
Vvhints
p3
(lp4
(dp5
Vposition
p6
L66L
sVwidth
p7
L10L
sa(dp8
g6
L164L
sg7
L10L
sa(dp9
g6
L456L
sg7
L10L
sa(dp10
g6
L546L
sg7
L10L
sa(dp11
g6
L564L
sg7
L10L
sa(dp12
g6
L644L
sg7
L10L
sasVhhints
p13
(lp14
(dp15
g6
L-24L
sg7
L10L
sa(dp16
g6
L46L
sg7
L10L
sa(dp17
g6
L742L
sg7
L10L
sa(dp18
g6
L811L
sg7
L10L
sass."
Substitution2: "Latin.dnom subtable" zero.dnom
Substitution2: "Latin.numr subtable" zero.numr
Substitution2: "Latin.subs subtable" zero.subs
Substitution2: "Latin.sups subtable" zero.sups
Substitution2: "Latin.pnum subtable" zero.pnum
EndChar

StartChar: one
Encoding: 20 49 21
GlifName: one
Width: 660
VWidth: 0
Flags: HMW
LayerCount: 2
Fore
SplineSet
128 630 m 1
 416 786 l 1
 516 776 l 1
 411 112 l 1
 556 112 l 1
 538 0 l 1
 68 0 l 1
 86 112 l 1
 271 112 l 1
 353 630 l 1
 172 529 l 1
 128 630 l 1
EndSplineSet
PickledDataWithLists: "(dp0
Vcom.fontlab.hintData
p1
(dp2
Vvhints
p3
(lp4
(dp5
Vposition
p6
L126L
sVwidth
p7
L10L
sa(dp8
g6
L364L
sg7
L10L
sa(dp9
g6
L371L
sg7
L10L
sa(dp10
g6
L462L
sg7
L10L
sa(dp11
g6
L469L
sg7
L10L
sa(dp12
g6
L677L
sg7
L10L
sasVhhints
p13
(lp14
(dp15
g6
L-19L
sg7
L10L
sa(dp16
g6
L-9L
sg7
L10L
sa(dp17
g6
L49L
sg7
L10L
sa(dp18
g6
L57L
sg7
L10L
sa(dp19
g6
L591L
sg7
L10L
sa(dp20
g6
L802L
sg7
L10L
sass."
Substitution2: "Latin.dnom subtable" one.dnom
Substitution2: "Latin.numr subtable" one.numr
Substitution2: "Latin.subs subtable" one.subs
Substitution2: "Latin.sups subtable" one.sups
Substitution2: "Latin.pnum subtable" one.pnum
EndChar

StartChar: two
Encoding: 21 50 22
GlifName: two
Width: 660
VWidth: 0
Flags: HMW
LayerCount: 2
Fore
SplineSet
10 52 m 0
 38 229 203 334 322 404 c 0
 406 454 472 500 484 574 c 0
 486 584 486 593 486 602 c 0
 486 653 461 696 382 696 c 0
 320 696 266 646 248 593 c 1
 104 607 l 1
 129 678 223 800 397 800 c 0
 590 800 625 684 625 609 c 0
 625 596 624 584 622 574 c 0
 602 446 478 364 396 315 c 0
 293 253 210 196 178 112 c 1
 555 112 l 1
 537 0 l 1
 10 0 l 1
 10 0 8 10 8 25 c 0
 8 33 8 42 10 52 c 0
EndSplineSet
PickledDataWithLists: "(dp0
Vcom.fontlab.hintData
p1
(dp2
Vvhints
p3
(lp4
(dp5
Vposition
p6
L71L
sVwidth
p7
L10L
sa(dp8
g6
L81L
sg7
L10L
sa(dp9
g6
L501L
sg7
L10L
sa(dp10
g6
L599L
sg7
L10L
sa(dp11
g6
L639L
sg7
L10L
sasVhhints
p12
(lp13
(dp14
g6
L-13L
sg7
L10L
sa(dp15
g6
L61L
sg7
L10L
sa(dp16
g6
L74L
sg7
L10L
sa(dp17
g6
L620L
sg7
L10L
sa(dp18
g6
L740L
sg7
L10L
sa(dp19
g6
L809L
sg7
L10L
sass."
Substitution2: "Latin.dnom subtable" two.dnom
Substitution2: "Latin.numr subtable" two.numr
Substitution2: "Latin.subs subtable" two.subs
Substitution2: "Latin.sups subtable" two.sups
Substitution2: "Latin.pnum subtable" two.pnum
EndChar

StartChar: three
Encoding: 22 51 23
GlifName: three
Width: 660
VWidth: 0
Flags: HMW
LayerCount: 2
Fore
SplineSet
-7 134 m 1
 137 160 l 1
 143 131 166 83 256 83 c 0
 370 83 412 153 422 217 c 0
 423 226 424 235 424 243 c 0
 424 297 392 336 304 336 c 2
 194 336 l 1
 211 439 l 1
 307 439 l 2
 382 439 445 493 458 573 c 0
 460 583 460 592 460 601 c 0
 460 652 435 695 356 695 c 0
 294 695 241 646 223 593 c 1
 79 606 l 1
 104 677 197 800 371 800 c 0
 564 800 600 682 600 607 c 0
 600 594 598 583 597 573 c 0
 584 489 528 436 471 402 c 1
 547 371 570 308 570 255 c 0
 570 245 569 235 568 226 c 0
 555 146 487 -20 240 -20 c 0
 55 -20 2 89 -7 134 c 1
EndSplineSet
PickledDataWithLists: "(dp0
Vcom.fontlab.hintData
p1
(dp2
Vvhints
p3
(lp4
(dp5
Vposition
p6
L66L
sVwidth
p7
L10L
sa(dp8
g6
L76L
sg7
L10L
sa(dp9
g6
L203L
sg7
L10L
sa(dp10
g6
L491L
sg7
L10L
sa(dp11
g6
L546L
sg7
L10L
sa(dp12
g6
L589L
sg7
L10L
sa(dp13
g6
L644L
sg7
L10L
sasVhhints
p14
(lp15
(dp16
g6
L-27L
sg7
L10L
sa(dp17
g6
L44L
sg7
L10L
sa(dp18
g6
L150L
sg7
L10L
sa(dp19
g6
L361L
sg7
L10L
sa(dp20
g6
L372L
sg7
L10L
sa(dp21
g6
L630L
sg7
L10L
sa(dp22
g6
L741L
sg7
L10L
sa(dp23
g6
L810L
sg7
L10L
sass."
Substitution2: "Latin.dnom subtable" three.dnom
Substitution2: "Latin.numr subtable" three.numr
Substitution2: "Latin.subs subtable" three.subs
Substitution2: "Latin.sups subtable" three.sups
Substitution2: "Latin.pnum subtable" three.pnum
EndChar

StartChar: four
Encoding: 23 52 24
GlifName: four
Width: 660
VWidth: 0
Flags: HMW
LayerCount: 2
Fore
SplineSet
346 188 m 1
 3 188 l 1
 4 256 l 1
 458 786 l 1
 576 776 l 1
 499 292 l 1
 624 292 l 1
 608 188 l 1
 483 188 l 1
 453 0 l 1
 316 0 l 1
 346 188 l 1
366 292 m 1
 414 593 l 1
 160 292 l 1
 366 292 l 1
EndSplineSet
PickledDataWithLists: "(dp0
Vcom.fontlab.hintData
p1
(dp2
Vvhints
p3
(lp4
(dp5
Vposition
p6
L31L
sVwidth
p7
L10L
sa(dp8
g6
L276L
sg7
L10L
sa(dp9
g6
L374L
sg7
L10L
sa(dp10
g6
L455L
sg7
L10L
sa(dp11
g6
L554L
sg7
L10L
sa(dp12
g6
L679L
sg7
L10L
sasVhhints
p13
(lp14
(dp15
g6
L-30L
sg7
L10L
sa(dp16
g6
L174L
sg7
L10L
sa(dp17
g6
L243L
sg7
L10L
sa(dp18
g6
L259L
sg7
L10L
sa(dp19
g6
L609L
sg7
L10L
sa(dp20
g6
L819L
sg7
L10L
sass."
Substitution2: "Latin.dnom subtable" four.dnom
Substitution2: "Latin.numr subtable" four.numr
Substitution2: "Latin.subs subtable" four.subs
Substitution2: "Latin.sups subtable" four.sups
Substitution2: "Latin.pnum subtable" four.pnum
EndChar

StartChar: five
Encoding: 24 53 25
GlifName: five
Width: 660
VWidth: 0
Flags: HMW
LayerCount: 2
Fore
SplineSet
13 134 m 1
 157 160 l 1
 163 131 185 83 275 83 c 0
 389 83 433 163 445 237 c 0
 447 251 449 266 449 280 c 0
 449 341 423 391 341 391 c 0
 277 391 216 344 178 299 c 1
 84 354 l 1
 167 780 l 1
 628 780 l 1
 611 677 l 1
 282 677 l 1
 238 451 l 1
 275 473 325 490 384 490 c 0
 559 490 594 366 594 284 c 0
 594 269 593 256 591 245 c 0
 578 161 506 -20 259 -20 c 0
 74 -20 22 89 13 134 c 1
EndSplineSet
PickledDataWithLists: "(dp0
Vcom.fontlab.hintData
p1
(dp2
Vvhints
p3
(lp4
(dp5
Vposition
p6
L76L
sVwidth
p7
L10L
sa(dp8
g6
L106L
sg7
L10L
sa(dp9
g6
L125L
sg7
L10L
sa(dp10
g6
L226L
sg7
L10L
sa(dp11
g6
L541L
sg7
L10L
sa(dp12
g6
L614L
sg7
L10L
sa(dp13
g6
L639L
sg7
L10L
sasVhhints
p14
(lp15
(dp16
g6
L-26L
sg7
L10L
sa(dp17
g6
L43L
sg7
L10L
sa(dp18
g6
L150L
sg7
L10L
sa(dp19
g6
L334L
sg7
L10L
sa(dp20
g6
L409L
sg7
L10L
sa(dp21
g6
L477L
sg7
L10L
sa(dp22
g6
L716L
sg7
L10L
sa(dp23
g6
L784L
sg7
L10L
sa(dp24
g6
L795L
sg7
L10L
sass."
Substitution2: "Latin.dnom subtable" five.dnom
Substitution2: "Latin.numr subtable" five.numr
Substitution2: "Latin.subs subtable" five.subs
Substitution2: "Latin.sups subtable" five.sups
Substitution2: "Latin.pnum subtable" five.pnum
EndChar

StartChar: six
Encoding: 25 54 26
GlifName: six
Width: 660
VWidth: 0
Flags: HMW
LayerCount: 2
Fore
SplineSet
59 299 m 2
 81 435 l 2
 100 555 160 800 410 800 c 0
 592 800 628 677 634 635 c 1
 491 613 l 1
 485 650 465 695 393 695 c 0
 301 695 249 594 224 444 c 1
 266 472 319 489 380 489 c 0
 529 489 594 392 594 283 c 0
 594 268 592 252 590 237 c 0
 569 103 459 -20 280 -20 c 0
 123 -20 52 72 52 215 c 0
 52 241 54 270 59 299 c 2
198 275 m 1
 195 254 194 234 194 217 c 0
 194 106 247 85 296 85 c 0
 363 85 431 126 449 237 c 0
 451 251 452 264 452 276 c 0
 452 352 410 391 340 391 c 0
 280 391 225 352 198 275 c 1
EndSplineSet
PickledDataWithLists: "(dp0
Vcom.fontlab.hintData
p1
(dp2
Vvhints
p3
(lp4
(dp5
Vposition
p6
L32L
sVwidth
p7
L10L
sa(dp8
g6
L90L
sg7
L10L
sa(dp9
g6
L188L
sg7
L10L
sa(dp10
g6
L464L
sg7
L10L
sa(dp11
g6
L560L
sg7
L10L
sa(dp12
g6
L658L
sg7
L10L
sasVhhints
p13
(lp14
(dp15
g6
L-29L
sg7
L10L
sa(dp16
g6
L39L
sg7
L10L
sa(dp17
g6
L251L
sg7
L10L
sa(dp18
g6
L397L
sg7
L10L
sa(dp19
g6
L466L
sg7
L10L
sa(dp20
g6
L819L
sg7
L10L
sass."
Substitution2: "Latin.dnom subtable" six.dnom
Substitution2: "Latin.numr subtable" six.numr
Substitution2: "Latin.subs subtable" six.subs
Substitution2: "Latin.sups subtable" six.sups
Substitution2: "Latin.pnum subtable" six.pnum
EndChar

StartChar: seven
Encoding: 26 55 27
GlifName: seven
Width: 660
VWidth: 0
Flags: HMW
LayerCount: 2
Fore
SplineSet
103 668 m 1
 121 780 l 1
 646 780 l 1
 643 702 l 1
 516 561 344 288 307 55 c 2
 298 0 l 1
 149 0 l 1
 158 55 l 2
 191 263 342 503 471 668 c 1
 103 668 l 1
EndSplineSet
PickledDataWithLists: "(dp0
Vcom.fontlab.hintData
p1
(dp2
Vvhints
p3
(lp4
(dp5
Vposition
p6
L69L
sVwidth
p7
L10L
sa(dp8
g6
L199L
sg7
L10L
sa(dp9
g6
L274L
sg7
L10L
sa(dp10
g6
L648L
sg7
L10L
sasVhhints
p11
(lp12
(dp13
g6
L-19L
sg7
L10L
sa(dp14
g6
L554L
sg7
L10L
sa(dp15
g6
L716L
sg7
L10L
sa(dp16
g6
L784L
sg7
L10L
sa(dp17
g6
L795L
sg7
L10L
sass."
Substitution2: "Latin.dnom subtable" seven.dnom
Substitution2: "Latin.numr subtable" seven.numr
Substitution2: "Latin.subs subtable" seven.subs
Substitution2: "Latin.sups subtable" seven.sups
Substitution2: "Latin.pnum subtable" seven.pnum
EndChar

StartChar: eight
Encoding: 27 56 28
GlifName: eight
Width: 660
VWidth: 0
Flags: HMW
LayerCount: 2
Fore
SplineSet
267 -20 m 0
 105 -20 14 66 14 175 c 0
 14 185 14 195 16 206 c 0
 35 325 134 376 201 401 c 1
 151 427 106 471 106 545 c 0
 106 555 107 567 109 578 c 0
 128 697 239 800 397 800 c 0
 540 800 618 716 618 612 c 0
 618 601 617 590 615 578 c 0
 600 484 534 431 467 401 c 1
 520 378 593 334 593 239 c 0
 593 228 592 218 590 206 c 0
 571 83 444 -20 267 -20 c 0
283 83 m 0
 370 83 432 124 445 206 c 0
 447 216 447 225 447 233 c 0
 447 294 408 320 370 334 c 0
 359 339 343 345 326 351 c 1
 307 345 289 339 276 334 c 0
 227 318 174 286 161 206 c 0
 160 197 159 189 159 181 c 0
 159 116 205 83 283 83 c 0
380 697 m 0
 324 697 264 664 250 578 c 0
 249 569 248 562 248 554 c 0
 248 501 279 471 309 461 c 0
 318 457 329 453 341 449 c 1
 355 453 366 457 377 461 c 0
 415 473 463 510 474 578 c 0
 476 588 476 597 476 605 c 0
 476 671 430 697 380 697 c 0
EndSplineSet
PickledDataWithLists: "(dp0
Vcom.fontlab.hintData
p1
(dp2
Vvhints
p3
(lp4
(dp5
Vposition
p6
L76L
sVwidth
p7
L10L
sa(dp8
g6
L87L
sg7
L10L
sa(dp9
g6
L174L
sg7
L10L
sa(dp10
g6
L185L
sg7
L10L
sa(dp11
g6
L549L
sg7
L10L
sa(dp12
g6
L584L
sg7
L10L
sa(dp13
g6
L594L
sg7
L10L
sa(dp14
g6
L649L
sg7
L10L
sasVhhints
p15
(lp16
(dp17
g6
L-24L
sg7
L10L
sa(dp18
g6
L44L
sg7
L10L
sa(dp19
g6
L394L
sg7
L9L
sa(dp20
g6
L610L
sg7
L10L
sa(dp21
g6
L651L
sg7
L10L
sa(dp22
g6
L741L
sg7
L10L
sa(dp23
g6
L809L
sg7
L10L
sass."
Substitution2: "Latin.dnom subtable" eight.dnom
Substitution2: "Latin.numr subtable" eight.numr
Substitution2: "Latin.subs subtable" eight.subs
Substitution2: "Latin.sups subtable" eight.sups
Substitution2: "Latin.pnum subtable" eight.pnum
EndChar

StartChar: nine
Encoding: 28 57 29
GlifName: nine
Width: 660
VWidth: 0
Flags: HMW
LayerCount: 2
Fore
SplineSet
604 481 m 2
 583 345 l 2
 564 225 504 -20 254 -20 c 0
 72 -20 36 103 30 145 c 1
 172 167 l 1
 178 130 198 85 270 85 c 0
 362 85 414 186 439 336 c 1
 397 308 344 291 283 291 c 0
 134 291 70 388 70 497 c 0
 70 512 72 527 74 543 c 0
 95 677 205 800 384 800 c 0
 541 800 611 708 611 565 c 0
 611 539 609 511 604 481 c 2
466 505 m 1
 469 526 470 545 470 562 c 0
 470 674 417 695 367 695 c 0
 300 695 233 654 215 543 c 0
 213 529 212 516 212 504 c 0
 212 428 254 389 324 389 c 0
 384 389 439 428 466 505 c 1
EndSplineSet
PickledDataWithLists: "(dp0
Vcom.fontlab.hintData
p1
(dp2
Vvhints
p3
(lp4
(dp5
Vposition
p6
L52L
sVwidth
p7
L10L
sa(dp8
g6
L150L
sg7
L10L
sa(dp9
g6
L246L
sg7
L10L
sa(dp10
g6
L521L
sg7
L10L
sa(dp11
g6
L620L
sg7
L10L
sa(dp12
g6
L678L
sg7
L10L
sasVhhints
p13
(lp14
(dp15
g6
L-29L
sg7
L10L
sa(dp16
g6
L324L
sg7
L10L
sa(dp17
g6
L393L
sg7
L10L
sa(dp18
g6
L539L
sg7
L10L
sa(dp19
g6
L751L
sg7
L10L
sa(dp20
g6
L819L
sg7
L10L
sass."
Substitution2: "Latin.dnom subtable" nine.dnom
Substitution2: "Latin.numr subtable" nine.numr
Substitution2: "Latin.subs subtable" nine.subs
Substitution2: "Latin.sups subtable" nine.sups
Substitution2: "Latin.pnum subtable" nine.pnum
EndChar

StartChar: colon
Encoding: 29 58 30
GlifName: colon
Width: 330
VWidth: 0
Flags: HMW
LayerCount: 2
Fore
SplineSet
130 157 m 0
 175 157 206 131 206 90 c 0
 206 85 206 81 205 76 c 0
 197 26 154 -5 104 -5 c 0
 59 -5 28 21 28 62 c 0
 28 67 28 71 29 76 c 0
 37 126 80 157 130 157 c 0
196 577 m 0
 241 577 273 552 273 510 c 0
 273 505 273 501 272 496 c 0
 264 446 221 415 171 415 c 0
 126 415 95 441 95 482 c 0
 95 487 95 491 96 496 c 0
 104 546 146 577 196 577 c 0
EndSplineSet
PickledDataWithLists: "(dp0
Vcom.fontlab.hintData
p1
(dp2
Vvhints
p3
(lp4
(dp5
Vposition
p6
L81L
sVwidth
p7
L10L
sa(dp8
g6
L238L
sg7
L10L
sasVhhints
p9
(lp10
(dp11
g6
L-5L
sg7
L10L
sa(dp12
g6
L122L
sg7
L10L
sa(dp13
g6
L475L
sg7
L10L
sa(dp14
g6
L602L
sg7
L10L
sass."
EndChar

StartChar: semicolon
Encoding: 30 59 31
GlifName: semicolon
Width: 330
VWidth: 0
Flags: HMW
LayerCount: 2
Fore
SplineSet
196 577 m 0
 241 577 273 552 273 510 c 0
 273 505 273 501 272 496 c 0
 264 446 221 415 171 415 c 0
 126 415 95 441 95 482 c 0
 95 487 95 491 96 496 c 0
 104 546 146 577 196 577 c 0
29 73 m 0
 37 122 75 158 130 158 c 0
 192 158 215 114 215 65 c 0
 215 56 214 48 213 39 c 0
 195 -77 104 -161 27 -205 c 1
 -7 -149 l 1
 42 -121 89 -73 112 -4 c 1
 108 -4 103 -5 99 -5 c 0
 57 -5 28 19 28 58 c 0
 28 63 28 68 29 73 c 0
EndSplineSet
PickledDataWithLists: "(dp0
Vcom.fontlab.hintData
p1
(dp2
Vvhints
p3
(lp4
(dp5
Vposition
p6
L61L
sVwidth
p7
L10L
sa(dp8
g6
L81L
sg7
L10L
sa(dp9
g6
L170L
sg7
L10L
sa(dp10
g6
L239L
sg7
L10L
sa(dp11
g6
L251L
sg7
L10L
sasVhhints
p12
(lp13
(dp14
g6
L-182L
sg7
L10L
sa(dp15
g6
L48L
sg7
L10L
sa(dp16
g6
L117L
sg7
L10L
sa(dp17
g6
L475L
sg7
L10L
sa(dp18
g6
L602L
sg7
L10L
sass."
EndChar

StartChar: less
Encoding: 31 60 32
GlifName: less
Width: 600
VWidth: 0
Flags: HMW
LayerCount: 2
Fore
SplineSet
73 322 m 1
 79 360 l 1
 85 398 l 1
 534 646 l 1
 542 539 l 1
 208 360 l 1
 486 181 l 1
 444 74 l 1
 73 322 l 1
EndSplineSet
PickledDataWithLists: "(dp0
Vcom.fontlab.hintData
p1
(dp2
Vvhints
p3
(lp4
(dp5
Vposition
p6
L63L
sVwidth
p7
L10L
sa(dp8
g6
L514L
sg7
L10L
sa(dp9
g6
L524L
sg7
L10L
sasVhhints
p10
(lp11
(dp12
g6
L65L
sg7
L10L
sa(dp13
g6
L606L
sg7
L10L
sass."
EndChar

StartChar: equal
Encoding: 32 61 33
GlifName: equal
Width: 600
VWidth: 0
Flags: HMW
LayerCount: 2
Fore
SplineSet
89 421 m 1
 104 519 l 1
 540 519 l 1
 525 421 l 1
 89 421 l 1
54 201 m 1
 69 299 l 1
 505 299 l 1
 490 201 l 1
 54 201 l 1
EndSplineSet
PickledDataWithLists: "(dp0
Vcom.fontlab.hintData
p1
(dp2
Vvhints
p3
(lp4
(dp5
Vposition
p6
L75L
sVwidth
p7
L10L
sa(dp8
g6
L514L
sg7
L10L
sasVhhints
p9
(lp10
(dp11
g6
L201L
sg7
L10L
sa(dp12
g6
L263L
sg7
L10L
sa(dp13
g6
L271L
sg7
L10L
sa(dp14
g6
L401L
sg7
L10L
sa(dp15
g6
L463L
sg7
L10L
sa(dp16
g6
L471L
sg7
L10L
sass."
EndChar

StartChar: greater
Encoding: 33 62 34
GlifName: greater
Width: 600
VWidth: 0
Flags: HMW
LayerCount: 2
Fore
SplineSet
521 398 m 1
 515 360 l 1
 509 322 l 1
 60 74 l 1
 52 181 l 1
 386 360 l 1
 108 539 l 1
 150 646 l 1
 521 398 l 1
EndSplineSet
PickledDataWithLists: "(dp0
Vcom.fontlab.hintData
p1
(dp2
Vvhints
p3
(lp4
(dp5
Vposition
p6
L66L
sVwidth
p7
L10L
sa(dp8
g6
L76L
sg7
L10L
sa(dp9
g6
L527L
sg7
L10L
sasVhhints
p10
(lp11
(dp12
g6
L64L
sg7
L10L
sa(dp13
g6
L605L
sg7
L10L
sass."
EndChar

StartChar: question
Encoding: 34 63 35
GlifName: question
Width: 570
VWidth: 0
Flags: HMW
LayerCount: 2
Fore
SplineSet
250 157 m 0
 295 157 326 131 326 90 c 0
 326 85 326 81 325 76 c 0
 317 26 274 -5 224 -5 c 0
 179 -5 148 21 148 62 c 0
 148 67 148 71 149 76 c 0
 157 126 200 157 250 157 c 0
90 643 m 0
 106 746 210 830 357 830 c 0
 483 830 556 766 556 667 c 0
 556 656 555 644 553 632 c 0
 527 468 327 431 310 323 c 0
 309 315 308 307 308 300 c 0
 308 290 309 281 312 273 c 1
 199 261 l 1
 192 278 188 295 188 312 c 0
 188 318 189 324 190 331 c 0
 215 486 388 507 407 628 c 0
 408 637 409 645 409 653 c 0
 409 709 372 724 337 724 c 0
 287 724 244 699 235 643 c 0
 234 636 233 629 233 622 c 0
 233 610 235 599 238 588 c 1
 96 554 l 1
 91 573 88 593 88 613 c 0
 88 623 88 633 90 643 c 0
EndSplineSet
PickledDataWithLists: "(dp0
Vcom.fontlab.hintData
p1
(dp2
Vvhints
p3
(lp4
(dp5
Vposition
p6
L11L
sVwidth
p7
L10L
sa(dp8
g6
L98L
sg7
L10L
sa(dp9
g6
L120L
sg7
L10L
sa(dp10
g6
L152L
sg7
L10L
sa(dp11
g6
L161L
sg7
L10L
sa(dp12
g6
L241L
sg7
L10L
sa(dp13
g6
L254L
sg7
L10L
sa(dp14
g6
L310L
sg7
L10L
sa(dp15
g6
L351L
sg7
L10L
sa(dp16
g6
L439L
sg7
L10L
sasVhhints
p17
(lp18
(dp19
g6
L-5L
sg7
L10L
sa(dp20
g6
L122L
sg7
L10L
sa(dp21
g6
L255L
sg7
L10L
sa(dp22
g6
L594L
sg7
L10L
sa(dp23
g6
L784L
sg7
L10L
sa(dp24
g6
L846L
sg7
L10L
sass."
EndChar

StartChar: at
Encoding: 35 64 36
GlifName: at
Width: 1020
VWidth: 0
Flags: HMW
LayerCount: 2
Fore
SplineSet
53 237 m 0
 93 489 311 780 622 780 c 0
 850 780 954 638 954 468 c 0
 954 445 952 420 948 396 c 0
 922 234 797 34 644 34 c 0
 586 34 564 63 557 97 c 1
 517 56 469 28 415 28 c 0
 294 28 255 110 255 190 c 0
 255 204 256 217 258 230 c 0
 279 365 406 564 609 565 c 1
 610 565 l 1
 696 565 725 508 725 456 c 0
 725 448 724 441 723 434 c 0
 716 390 683 309 678 294 c 0
 657 232 644 187 639 156 c 0
 637 146 637 138 637 131 c 0
 637 112 643 103 655 103 c 0
 725 103 845 239 870 396 c 0
 874 419 875 441 875 462 c 0
 875 606 791 711 611 711 c 0
 365 711 168 470 131 237 c 0
 127 211 125 186 125 161 c 0
 125 3 213 -121 423 -121 c 0
 489 -121 577 -86 604 -71 c 1
 638 -128 l 1
 600 -150 504 -190 412 -190 c 0
 152 -190 46 -30 46 155 c 0
 46 182 49 210 53 237 c 0
428 106 m 0
 495 106 545 180 587 308 c 0
 592 322 624 406 628 434 c 0
 629 440 629 446 629 451 c 0
 629 480 613 487 597 487 c 0
 499 486 381 359 361 230 c 0
 359 218 358 207 358 197 c 0
 358 135 390 106 428 106 c 0
EndSplineSet
PickledDataWithLists: "(dp0
Vcom.fontlab.hintData
p1
(dp2
Vvhints
p3
(lp4
(dp5
Vposition
p6
L74L
sVwidth
p7
L10L
sa(dp8
g6
L143L
sg7
L10L
sa(dp9
g6
L293L
sg7
L10L
sa(dp10
g6
L372L
sg7
L10L
sa(dp11
g6
L622L
sg7
L10L
sa(dp12
g6
L670L
sg7
L10L
sa(dp13
g6
L702L
sg7
L10L
sa(dp14
g6
L726L
sg7
L10L
sa(dp15
g6
L865L
sg7
L10L
sa(dp16
g6
L935L
sg7
L10L
sasVhhints
p17
(lp18
(dp19
g6
L-179L
sg7
L10L
sa(dp20
g6
L-131L
sg7
L10L
sa(dp21
g6
L-76L
sg7
L10L
sa(dp22
g6
L38L
sg7
L10L
sa(dp23
g6
L92L
sg7
L10L
sa(dp24
g6
L352L
sg7
L10L
sa(dp25
g6
L399L
sg7
L10L
sa(dp26
g6
L490L
sg7
L10L
sa(dp27
g6
L544L
sg7
L10L
sa(dp28
g6
L711L
sg7
L10L
sa(dp29
g6
L759L
sg7
L10L
sass."
EndChar

StartChar: A
Encoding: 36 65 37
GlifName: A_
Width: 750
VWidth: 0
Flags: HMW
AnchorPoint: "LatinOgonek.mark" 610 0 basechar 0
AnchorPoint: "LatinBelow.mark" 315 0 basechar 0
AnchorPoint: "LatinAbove.mark" 339 150 basechar 0
LayerCount: 2
Fore
SplineSet
682 0 m 1
 519 0 l 1
 490 158 l 1
 190 158 l 1
 111 0 l 1
 -52 0 l 1
 -50 10 l 1
 378 780 l 1
 500 780 l 1
 684 10 l 1
 682 0 l 1
471 262 m 1
 410 600 l 1
 241 262 l 1
 471 262 l 1
EndSplineSet
PickledDataWithLists: "(dp0
Vcom.fontlab.hintData
p1
(dp2
Vvhints
p3
(lp4
(dp5
Vposition
p6
L33L
sVwidth
p7
L10L
sa(dp8
g6
L39L
sg7
L10L
sa(dp9
g6
L763L
sg7
L10L
sasVhhints
p10
(lp11
(dp12
g6
L-16L
sg7
L10L
sa(dp13
g6
L3L
sg7
L10L
sa(dp14
g6
L179L
sg7
L10L
sa(dp15
g6
L209L
sg7
L10L
sa(dp16
g6
L271L
sg7
L10L
sa(dp17
g6
L810L
sg7
L10L
sass."
EndChar

StartChar: B
Encoding: 37 66 38
GlifName: B_
Width: 745
VWidth: 0
Flags: HMW
AnchorPoint: "LatinBelow.mark" 260 0 basechar 0
AnchorPoint: "LatinAbove.mark" 284 150 basechar 0
LayerCount: 2
Fore
SplineSet
535 436 m 1
 624 408 676 351 676 267 c 0
 676 255 675 243 673 230 c 0
 649 80 502 -9 308 -9 c 0
 179 -9 31 -1 22 0 c 1
 146 780 l 1
 154 781 291 789 407 789 c 0
 549 789 658 729 658 619 c 0
 658 610 658 601 656 591 c 0
 644 516 596 467 535 436 c 1
381 457 m 1
 437 464 500 500 513 579 c 0
 514 586 515 593 515 599 c 0
 515 661 461 687 374 687 c 0
 329 687 285 685 267 684 c 1
 231 454 l 1
 276 456 329 457 381 457 c 1
175 98 m 1
 210 96 262 94 308 94 c 0
 419 94 514 125 531 230 c 0
 532 239 533 247 533 255 c 0
 533 339 452 362 350 362 c 0
 304 362 251 360 216 358 c 1
 175 98 l 1
EndSplineSet
PickledDataWithLists: "(dp0
Vcom.fontlab.hintData
p1
(dp2
Vvhints
p3
(lp4
(dp5
Vposition
p6
L26L
sVwidth
p7
L10L
sa(dp8
g6
L116L
sg7
L10L
sa(dp9
g6
L121L
sg7
L10L
sa(dp10
g6
L223L
sg7
L10L
sa(dp11
g6
L537L
sg7
L10L
sa(dp12
g6
L636L
sg7
L10L
sa(dp13
g6
L735L
sg7
L10L
sasVhhints
p14
(lp15
(dp16
g6
L-22L
sg7
L10L
sa(dp17
g6
L49L
sg7
L10L
sa(dp18
g6
L395L
sg7
L10L
sa(dp19
g6
L634L
sg7
L10L
sa(dp20
g6
L661L
sg7
L10L
sa(dp21
g6
L742L
sg7
L10L
sa(dp22
g6
L809L
sg7
L10L
sass."
Colour: ff00
EndChar

StartChar: C
Encoding: 38 67 39
GlifName: C_
Width: 755
VWidth: 0
Flags: HMW
AnchorPoint: "LatinCedilla.mark" 352 0 basechar 0
AnchorPoint: "LatinBelow.mark" 350 0 basechar 0
AnchorPoint: "LatinAbove.mark" 374 150 basechar 0
LayerCount: 2
Fore
SplineSet
56 406 m 2
 84 585 199 800 479 800 c 0
 685 800 753 666 755 585 c 1
 604 572 l 1
 603 626 559 690 461 690 c 0
 327 690 237 586 208 406 c 2
 203 374 l 2
 198 344 196 316 196 290 c 0
 196 162 255 90 366 90 c 0
 464 90 527 154 546 208 c 1
 693 195 l 1
 665 114 555 -20 349 -20 c 0
 114 -20 44 132 44 286 c 0
 44 316 46 345 51 374 c 2
 56 406 l 2
EndSplineSet
PickledDataWithLists: "(dp0
Vcom.fontlab.hintData
p1
(dp2
Vvhints
p3
(lp4
(dp5
Vposition
p6
L68L
sVwidth
p7
L10L
sa(dp8
g6
L172L
sg7
L10L
sa(dp9
g6
L569L
sg7
L10L
sa(dp10
g6
L673L
sg7
L10L
sa(dp11
g6
L707L
sg7
L10L
sasVhhints
p12
(lp13
(dp14
g6
L-20L
sg7
L10L
sa(dp15
g6
L52L
sg7
L10L
sa(dp16
g6
L169L
sg7
L10L
sa(dp17
g6
L586L
sg7
L10L
sa(dp18
g6
L739L
sg7
L10L
sa(dp19
g6
L811L
sg7
L10L
sass."
Colour: ff00
EndChar

StartChar: D
Encoding: 39 68 40
GlifName: D_
Width: 770
VWidth: 0
Flags: HMW
AnchorPoint: "LatinBelow.mark" 260 0 basechar 0
AnchorPoint: "LatinAbove.mark" 284 150 basechar 0
LayerCount: 2
Fore
SplineSet
182 97 m 1
 205 96 231 96 251 96 c 0
 452 96 545 208 572 378 c 2
 576 402 l 2
 580 428 582 452 582 475 c 0
 582 603 515 684 344 684 c 0
 324 684 298 684 275 683 c 1
 182 97 l 1
146 780 m 1
 146 780 258 789 361 789 c 0
 636 789 727 638 727 476 c 0
 727 452 725 426 721 402 c 2
 717 378 l 2
 688 192 552 -9 235 -9 c 0
 132 -9 22 0 22 0 c 1
 146 780 l 1
EndSplineSet
PickledDataWithLists: "(dp0
Vcom.fontlab.hintData
p1
(dp2
Vvhints
p3
(lp4
(dp5
Vposition
p6
L26L
sVwidth
p7
L10L
sa(dp8
g6
L116L
sg7
L10L
sa(dp9
g6
L121L
sg7
L10L
sa(dp10
g6
L223L
sg7
L10L
sa(dp11
g6
L630L
sg7
L10L
sa(dp12
g6
L729L
sg7
L10L
sasVhhints
p13
(lp14
(dp15
g6
L-21L
sg7
L10L
sa(dp16
g6
L49L
sg7
L10L
sa(dp17
g6
L634L
sg7
L10L
sa(dp18
g6
L661L
sg7
L10L
sa(dp19
g6
L742L
sg7
L10L
sa(dp20
g6
L810L
sg7
L10L
sass."
EndChar

StartChar: E
Encoding: 40 69 41
GlifName: E_
Width: 675
VWidth: 0
Flags: HMW
AnchorPoint: "LatinOgonek.mark" 485 0 basechar 0
AnchorPoint: "LatinBelow.mark" 290 0 basechar 0
AnchorPoint: "LatinAbove.mark" 314 150 basechar 0
LayerCount: 2
Fore
SplineSet
22 0 m 1
 146 780 l 1
 676 780 l 1
 658 669 l 1
 273 669 l 1
 236 436 l 1
 583 436 l 1
 567 334 l 1
 220 334 l 1
 185 111 l 1
 585 111 l 1
 567 0 l 1
 22 0 l 1
EndSplineSet
PickledDataWithLists: "(dp0
Vcom.fontlab.hintData
p1
(dp2
Vvhints
p3
(lp4
(dp5
Vposition
p6
L66L
sVwidth
p7
L10L
sa(dp8
g6
L106L
sg7
L10L
sa(dp9
g6
L121L
sg7
L10L
sa(dp10
g6
L204L
sg7
L10L
sa(dp11
g6
L220L
sg7
L10L
sa(dp12
g6
L564L
sg7
L10L
sa(dp13
g6
L644L
sg7
L10L
sa(dp14
g6
L674L
sg7
L10L
sasVhhints
p15
(lp16
(dp17
g6
L-24L
sg7
L10L
sa(dp18
g6
L-9L
sg7
L10L
sa(dp19
g6
L46L
sg7
L10L
sa(dp20
g6
L59L
sg7
L10L
sa(dp21
g6
L361L
sg7
L10L
sa(dp22
g6
L423L
sg7
L10L
sa(dp23
g6
L726L
sg7
L10L
sa(dp24
g6
L794L
sg7
L10L
sa(dp25
g6
L799L
sg7
L10L
sa(dp26
g6
L804L
sg7
L10L
sass."
Colour: ff00
EndChar

StartChar: F
Encoding: 41 70 42
GlifName: F_
Width: 640
VWidth: 0
Flags: HMW
AnchorPoint: "LatinBelow.mark" 100 0 basechar 0
AnchorPoint: "LatinAbove.mark" 304 150 basechar 0
LayerCount: 2
Fore
SplineSet
22 0 m 1
 146 780 l 1
 666 780 l 1
 648 669 l 1
 275 669 l 1
 239 441 l 1
 574 441 l 1
 556 329 l 1
 221 329 l 1
 169 0 l 1
 22 0 l 1
EndSplineSet
PickledDataWithLists: "(dp0
Vcom.fontlab.hintData
p1
(dp2
Vvhints
p3
(lp4
(dp5
Vposition
p6
L59L
sVwidth
p7
L10L
sa(dp8
g6
L66L
sg7
L10L
sa(dp9
g6
L116L
sg7
L10L
sa(dp10
g6
L124L
sg7
L10L
sa(dp11
g6
L214L
sg7
L10L
sa(dp12
g6
L222L
sg7
L10L
sa(dp13
g6
L564L
sg7
L10L
sa(dp14
g6
L644L
sg7
L10L
sasVhhints
p15
(lp16
(dp17
g6
L-14L
sg7
L10L
sa(dp18
g6
L355L
sg7
L10L
sa(dp19
g6
L360L
sg7
L10L
sa(dp20
g6
L423L
sg7
L10L
sa(dp21
g6
L726L
sg7
L10L
sa(dp22
g6
L794L
sg7
L10L
sa(dp23
g6
L799L
sg7
L10L
sa(dp24
g6
L804L
sg7
L10L
sass."
Colour: ff00
EndChar

StartChar: G
Encoding: 42 71 43
GlifName: G_
Width: 770
VWidth: 0
Flags: HMW
AnchorPoint: "LatinBelow.mark" 350 0 basechar 0
AnchorPoint: "LatinAbove.mark" 374 150 basechar 0
LayerCount: 2
Fore
SplineSet
404 294 m 1
 420 397 l 1
 720 397 l 1
 679 136 l 1
 631 68 522 -20 349 -20 c 0
 114 -20 44 132 44 287 c 0
 44 317 46 346 51 375 c 2
 56 405 l 2
 84 584 199 800 479 800 c 0
 685 800 753 666 755 585 c 1
 605 571 l 1
 604 625 562 692 462 692 c 0
 325 692 234 589 205 405 c 2
 200 375 l 2
 195 344 193 315 193 289 c 0
 193 159 252 88 366 88 c 0
 462 88 516 120 548 154 c 1
 571 294 l 1
 404 294 l 1
EndSplineSet
PickledDataWithLists: "(dp0
Vcom.fontlab.hintData
p1
(dp2
Vvhints
p3
(lp4
(dp5
Vposition
p6
L71L
sVwidth
p7
L10L
sa(dp8
g6
L169L
sg7
L10L
sa(dp9
g6
L386L
sg7
L10L
sa(dp10
g6
L572L
sg7
L10L
sa(dp11
g6
L615L
sg7
L10L
sa(dp12
g6
L670L
sg7
L10L
sa(dp13
g6
L715L
sg7
L10L
sasVhhints
p14
(lp15
(dp16
g6
L-24L
sg7
L10L
sa(dp17
g6
L44L
sg7
L10L
sa(dp18
g6
L290L
sg7
L10L
sa(dp19
g6
L390L
sg7
L10L
sa(dp20
g6
L587L
sg7
L10L
sa(dp21
g6
L741L
sg7
L10L
sa(dp22
g6
L810L
sg7
L10L
sass."
Colour: ff00
EndChar

StartChar: H
Encoding: 43 72 44
GlifName: H_
Width: 790
VWidth: 0
Flags: HMW
AnchorPoint: "LatinBelow.mark" 335 0 basechar 0
AnchorPoint: "LatinAbove.mark" 359 150 basechar 0
LayerCount: 2
Fore
SplineSet
22 0 m 1
 146 780 l 1
 291 780 l 1
 238 446 l 1
 574 446 l 1
 627 780 l 1
 772 780 l 1
 648 0 l 1
 503 0 l 1
 556 334 l 1
 220 334 l 1
 167 0 l 1
 22 0 l 1
EndSplineSet
PickledDataWithLists: "(dp0
Vcom.fontlab.hintData
p1
(dp2
Vvhints
p3
(lp4
(dp5
Vposition
p6
L66L
sVwidth
p7
L10L
sa(dp8
g6
L101L
sg7
L10L
sa(dp9
g6
L111L
sg7
L10L
sa(dp10
g6
L211L
sg7
L10L
sa(dp11
g6
L605L
sg7
L10L
sa(dp12
g6
L704L
sg7
L10L
sa(dp13
g6
L744L
sg7
L10L
sasVhhints
p14
(lp15
(dp16
g6
L-14L
sg7
L10L
sa(dp17
g6
L355L
sg7
L10L
sa(dp18
g6
L423L
sg7
L10L
sa(dp19
g6
L794L
sg7
L10L
sa(dp20
g6
L799L
sg7
L10L
sass."
Colour: ff00
EndChar

StartChar: I
Encoding: 44 73 45
GlifName: I_
Width: 320
VWidth: 0
Flags: HMW
AnchorPoint: "LatinOgonek.mark" 105 0 basechar 0
AnchorPoint: "LatinBelow.mark" 100 0 basechar 0
AnchorPoint: "LatinAbove.mark" 124 150 basechar 0
LayerCount: 2
Fore
SplineSet
27 0 m 1
 151 780 l 1
 297 780 l 1
 173 0 l 1
 27 0 l 1
EndSplineSet
PickledDataWithLists: "(dp0
Vcom.fontlab.hintData
p1
(dp2
Vvhints
p3
(lp4
(dp5
Vposition
p6
L53L
sVwidth
p7
L10L
sa(dp8
g6
L77L
sg7
L10L
sa(dp9
g6
L188L
sg7
L10L
sa(dp10
g6
L194L
sg7
L10L
sa(dp11
g6
L282L
sg7
L10L
sa(dp12
g6
L288L
sg7
L10L
sa(dp13
g6
L414L
sg7
L10L
sasVhhints
p14
(lp15
(dp16
g6
L-3L
sg7
L10L
sa(dp17
g6
L3L
sg7
L10L
sa(dp18
g6
L59L
sg7
L10L
sa(dp19
g6
L67L
sg7
L10L
sa(dp20
g6
L729L
sg7
L10L
sa(dp21
g6
L788L
sg7
L10L
sass."
Colour: ff00
EndChar

StartChar: J
Encoding: 45 74 46
GlifName: J_
Width: 520
VWidth: 0
Flags: HMW
AnchorPoint: "LatinBelow.mark" 170 0 basechar 0
AnchorPoint: "LatinAbove.mark" 324 150 basechar 0
LayerCount: 2
Fore
SplineSet
-26 140 m 1
 121 151 l 1
 121 101 144 83 177 83 c 0
 209 83 247 98 258 166 c 2
 356 780 l 1
 501 780 l 1
 403 166 l 2
 387 68 299 -20 161 -20 c 0
 25 -20 -26 64 -26 138 c 0
 -26 139 -26 139 -26 140 c 1
EndSplineSet
PickledDataWithLists: "(dp0
Vcom.fontlab.hintData
p1
(dp2
Vvhints
p3
(lp4
(dp5
Vposition
p6
L16L
sVwidth
p7
L10L
sa(dp8
g6
L152L
sg7
L10L
sa(dp9
g6
L318L
sg7
L10L
sa(dp10
g6
L412L
sg7
L10L
sa(dp11
g6
L492L
sg7
L10L
sasVhhints
p12
(lp13
(dp14
g6
L-14L
sg7
L10L
sa(dp15
g6
L55L
sg7
L9L
sa(dp16
g6
L129L
sg7
L10L
sa(dp17
g6
L730L
sg7
L10L
sa(dp18
g6
L788L
sg7
L10L
sass."
Colour: ff00
EndChar

StartChar: K
Encoding: 46 75 47
GlifName: K_
Width: 715
VWidth: 0
Flags: HMW
AnchorPoint: "LatinBelow.mark" 300 0 basechar 0
AnchorPoint: "LatinAbove.mark" 324 150 basechar 0
LayerCount: 2
Fore
SplineSet
22 0 m 1
 146 780 l 1
 286 780 l 1
 231 437 l 1
 583 780 l 1
 743 769 l 1
 742 762 l 1
 390 448 l 1
 658 7 l 1
 657 0 l 1
 487 0 l 1
 282 351 l 1
 207 284 l 1
 162 0 l 1
 22 0 l 1
EndSplineSet
PickledDataWithLists: "(dp0
Vcom.fontlab.hintData
p1
(dp2
Vvhints
p3
(lp4
(dp5
Vposition
p6
L64L
sVwidth
p7
L10L
sa(dp8
g6
L86L
sg7
L10L
sa(dp9
g6
L116L
sg7
L10L
sa(dp10
g6
L211L
sg7
L10L
sa(dp11
g6
L219L
sg7
L10L
sa(dp12
g6
L679L
sg7
L10L
sa(dp13
g6
L734L
sg7
L10L
sasVhhints
p14
(lp15
(dp16
g6
L-14L
sg7
L10L
sa(dp17
g6
L-9L
sg7
L10L
sa(dp18
g6
L799L
sg7
L10L
sass."
Colour: ff00
EndChar

StartChar: L
Encoding: 47 76 48
GlifName: L_
Width: 570
VWidth: 0
Flags: HMW
AnchorPoint: "LatinBelow.mark" 260 0 basechar 0
AnchorPoint: "LatinAbove.mark" 124 150 basechar 0
LayerCount: 2
Fore
SplineSet
22 0 m 1
 146 780 l 1
 293 780 l 1
 187 111 l 1
 510 111 l 1
 492 0 l 1
 22 0 l 1
EndSplineSet
PickledDataWithLists: "(dp0
Vcom.fontlab.hintData
p1
(dp2
Vvhints
p3
(lp4
(dp5
Vposition
p6
L126L
sVwidth
p7
L10L
sa(dp8
g6
L131L
sg7
L10L
sa(dp9
g6
L144L
sg7
L10L
sa(dp10
g6
L224L
sg7
L10L
sa(dp11
g6
L242L
sg7
L10L
sa(dp12
g6
L624L
sg7
L10L
sasVhhints
p13
(lp14
(dp15
g6
L-23L
sg7
L10L
sa(dp16
g6
L-9L
sg7
L10L
sa(dp17
g6
L45L
sg7
L10L
sa(dp18
g6
L59L
sg7
L10L
sa(dp19
g6
L794L
sg7
L10L
sass."
Colour: ff00
EndChar

StartChar: M
Encoding: 48 77 49
GlifName: M_
Width: 880
VWidth: 0
Flags: HMW
AnchorPoint: "LatinBelow.mark" 380 0 basechar 0
AnchorPoint: "LatinAbove.mark" 404 150 basechar 0
LayerCount: 2
Fore
SplineSet
738 0 m 1
 595 0 l 1
 676 511 l 1
 445 195 l 1
 377 195 l 1
 246 511 l 1
 165 0 l 1
 22 0 l 1
 143 767 l 1
 266 780 l 1
 434 341 l 1
 742 780 l 1
 859 767 l 1
 738 0 l 1
EndSplineSet
PickledDataWithLists: "(dp0
Vcom.fontlab.hintData
p1
(dp2
Vvhints
p3
(lp4
(dp5
Vposition
p6
L66L
sVwidth
p7
L10L
sa(dp8
g6
L102L
sg7
L10L
sa(dp9
g6
L197L
sg7
L10L
sa(dp10
g6
L691L
sg7
L10L
sa(dp11
g6
L785L
sg7
L10L
sa(dp12
g6
L824L
sg7
L10L
sasVhhints
p13
(lp14
(dp15
g6
L-19L
sg7
L10L
sa(dp16
g6
L-9L
sg7
L10L
sa(dp17
g6
L137L
sg7
L10L
sa(dp18
g6
L604L
sg7
L20L
sa(dp19
g6
L783L
sg7
L10L
sa(dp20
g6
L795L
sg7
L10L
sass."
Colour: ff00
EndChar

StartChar: N
Encoding: 49 78 50
GlifName: N_
Width: 790
VWidth: 0
Flags: HMW
AnchorPoint: "LatinBelow.mark" 335 0 basechar 0
AnchorPoint: "LatinAbove.mark" 359 150 basechar 0
LayerCount: 2
Fore
SplineSet
23 0 m 1
 144 767 l 1
 271 780 l 1
 542 233 l 1
 629 780 l 1
 771 780 l 1
 647 0 l 1
 523 0 l 1
 252 547 l 1
 165 0 l 1
 23 0 l 1
EndSplineSet
PickledDataWithLists: "(dp0
Vcom.fontlab.hintData
p1
(dp2
Vvhints
p3
(lp4
(dp5
Vposition
p6
L97L
sVwidth
p7
L10L
sa(dp8
g6
L111L
sg7
L10L
sa(dp9
g6
L209L
sg7
L10L
sa(dp10
g6
L601L
sg7
L10L
sa(dp11
g6
L613L
sg7
L10L
sa(dp12
g6
L699L
sg7
L10L
sa(dp13
g6
L711L
sg7
L10L
sasVhhints
p14
(lp15
(dp16
g6
L-14L
sg7
L10L
sa(dp17
g6
L-8L
sg7
L10L
sa(dp18
g6
L794L
sg7
L10L
sass."
Colour: ff00
EndChar

StartChar: O
Encoding: 50 79 51
GlifName: O_
Width: 820
VWidth: 0
Flags: HMW
AnchorPoint: "LatinOgonek.mark" 420 0 basechar 0
AnchorPoint: "LatinBelow.mark" 350 0 basechar 0
AnchorPoint: "LatinAbove.mark" 374 150 basechar 0
LayerCount: 2
Fore
SplineSet
51 373 m 2
 56 407 l 2
 84 585 197 800 477 800 c 0
 711 800 779 650 779 497 c 0
 779 467 777 436 772 407 c 2
 767 373 l 2
 739 195 627 -20 347 -20 c 0
 113 -20 44 131 44 284 c 0
 44 314 46 344 51 373 c 2
364 87 m 0
 501 87 590 194 618 373 c 2
 623 407 l 2
 628 438 630 466 630 492 c 0
 630 619 574 693 460 693 c 0
 323 693 233 586 205 407 c 2
 200 373 l 2
 195 343 193 315 193 289 c 0
 193 161 250 87 364 87 c 0
EndSplineSet
PickledDataWithLists: "(dp0
Vcom.fontlab.hintData
p1
(dp2
Vvhints
p3
(lp4
(dp5
Vposition
p6
L66L
sVwidth
p7
L10L
sa(dp8
g6
L164L
sg7
L10L
sa(dp9
g6
L572L
sg7
L10L
sa(dp10
g6
L659L
sg7
L10L
sa(dp11
g6
L690L
sg7
L10L
sa(dp12
g6
L757L
sg7
L10L
sasVhhints
p13
(lp14
(dp15
g6
L-22L
sg7
L10L
sa(dp16
g6
L47L
sg7
L10L
sa(dp17
g6
L742L
sg7
L10L
sa(dp18
g6
L811L
sg7
L10L
sass."
Colour: ff00
EndChar

StartChar: P
Encoding: 51 80 52
GlifName: P_
Width: 710
VWidth: 0
Flags: HMW
AnchorPoint: "LatinBelow.mark" 100 0 basechar 0
AnchorPoint: "LatinAbove.mark" 324 150 basechar 0
LayerCount: 2
Fore
SplineSet
231 416 m 1
 259 414 298 413 338 413 c 0
 449 413 544 445 561 550 c 0
 562 559 563 568 563 576 c 0
 563 661 483 686 382 686 c 0
 342 686 301 685 273 683 c 1
 231 416 l 1
214 312 m 1
 165 0 l 1
 22 0 l 1
 73 319 l 1
 146 780 l 1
 155 781 285 789 414 789 c 0
 591 789 707 715 707 587 c 0
 707 575 706 563 704 550 c 0
 680 400 532 310 338 310 c 0
 295 310 252 311 214 312 c 1
EndSplineSet
PickledDataWithLists: "(dp0
Vcom.fontlab.hintData
p1
(dp2
Vvhints
p3
(lp4
(dp5
Vposition
p6
L26L
sVwidth
p7
L10L
sa(dp8
g6
L36L
sg7
L10L
sa(dp9
g6
L116L
sg7
L10L
sa(dp10
g6
L130L
sg7
L10L
sa(dp11
g6
L228L
sg7
L10L
sa(dp12
g6
L592L
sg7
L10L
sa(dp13
g6
L693L
sg7
L10L
sasVhhints
p14
(lp15
(dp16
g6
L-24L
sg7
L10L
sa(dp17
g6
L302L
sg7
L10L
sa(dp18
g6
L369L
sg7
L10L
sa(dp19
g6
L429L
sg7
L10L
sa(dp20
g6
L634L
sg7
L10L
sa(dp21
g6
L661L
sg7
L10L
sa(dp22
g6
L744L
sg7
L10L
sa(dp23
g6
L813L
sg7
L10L
sass."
Colour: ff00
EndChar

StartChar: Q
Encoding: 52 81 53
GlifName: Q_
Width: 820
VWidth: 0
Flags: HMW
AnchorPoint: "LatinBelow.mark" 350 0 basechar 0
AnchorPoint: "LatinAbove.mark" 374 150 basechar 0
LayerCount: 2
Fore
SplineSet
51 373 m 2
 56 407 l 2
 84 585 197 800 477 800 c 0
 711 800 779 650 779 497 c 0
 779 467 777 436 772 407 c 2
 767 373 l 2
 754 289 722 197 662 123 c 1
 752 43 l 1
 678 -39 l 1
 584 49 l 1
 523 7 445 -20 347 -20 c 0
 113 -20 44 131 44 284 c 0
 44 314 46 344 51 373 c 2
360 257 m 1
 428 330 l 1
 564 209 l 1
 589 253 608 309 618 373 c 2
 623 407 l 2
 628 438 630 466 630 492 c 0
 630 619 574 693 460 693 c 0
 323 693 233 586 205 407 c 2
 200 373 l 2
 195 343 193 315 193 289 c 0
 193 161 250 87 364 87 c 0
 415 87 460 102 497 130 c 1
 360 257 l 1
EndSplineSet
PickledDataWithLists: "(dp0
Vcom.fontlab.hintData
p1
(dp2
Vvhints
p3
(lp4
(dp5
Vposition
p6
L66L
sVwidth
p7
L10L
sa(dp8
g6
L164L
sg7
L10L
sa(dp9
g6
L407L
sg7
L10L
sa(dp10
g6
L491L
sg7
L10L
sa(dp11
g6
L675L
sg7
L10L
sa(dp12
g6
L690L
sg7
L10L
sa(dp13
g6
L760L
sg7
L10L
sa(dp14
g6
L769L
sg7
L10L
sasVhhints
p15
(lp16
(dp17
g6
L-206L
sg7
L10L
sa(dp18
g6
L-17L
sg7
L10L
sa(dp19
g6
L46L
sg7
L10L
sa(dp20
g6
L514L
sg7
L10L
sa(dp21
g6
L576L
sg7
L10L
sa(dp22
g6
L598L
sg7
L10L
sa(dp23
g6
L742L
sg7
L10L
sa(dp24
g6
L811L
sg7
L10L
sass."
Colour: ff00
EndChar

StartChar: R
Encoding: 53 82 54
GlifName: R_
Width: 730
VWidth: 0
Flags: HMW
AnchorPoint: "LatinBelow.mark" 300 0 basechar 0
AnchorPoint: "LatinAbove.mark" 324 150 basechar 0
LayerCount: 2
Fore
SplineSet
280 310 m 1
 257 310 235 311 214 312 c 1
 165 0 l 1
 22 0 l 1
 73 319 l 1
 146 780 l 1
 155 781 285 789 414 789 c 0
 591 789 707 715 707 587 c 0
 707 575 706 563 704 550 c 0
 685 427 582 345 439 319 c 1
 648 7 l 1
 647 0 l 1
 483 0 l 1
 280 310 l 1
231 416 m 1
 259 414 298 413 338 413 c 0
 449 413 544 445 561 550 c 0
 562 559 563 568 563 576 c 0
 563 661 483 686 382 686 c 0
 342 686 301 685 273 683 c 1
 231 416 l 1
EndSplineSet
PickledDataWithLists: "(dp0
Vcom.fontlab.hintData
p1
(dp2
Vvhints
p3
(lp4
(dp5
Vposition
p6
L26L
sVwidth
p7
L10L
sa(dp8
g6
L116L
sg7
L10L
sa(dp9
g6
L126L
sg7
L10L
sa(dp10
g6
L228L
sg7
L10L
sa(dp11
g6
L605L
sg7
L10L
sa(dp12
g6
L705L
sg7
L10L
sa(dp13
g6
L734L
sg7
L10L
sasVhhints
p14
(lp15
(dp16
g6
L-29L
sg7
L10L
sa(dp17
g6
L-24L
sg7
L10L
sa(dp18
g6
L332L
sg7
L10L
sa(dp19
g6
L401L
sg7
L10L
sa(dp20
g6
L430L
sg7
L10L
sa(dp21
g6
L634L
sg7
L10L
sa(dp22
g6
L661L
sg7
L10L
sa(dp23
g6
L745L
sg7
L10L
sa(dp24
g6
L812L
sg7
L10L
sass."
Colour: ff00
EndChar

StartChar: S
Encoding: 54 83 55
GlifName: S_
Width: 710
VWidth: 0
Flags: HMW
AnchorPoint: "LatinCedilla.mark" 320 0 basechar 0
AnchorPoint: "LatinBelow.mark" 295 0 basechar 0
AnchorPoint: "LatinAbove.mark" 319 150 basechar 0
LayerCount: 2
Fore
SplineSet
16 182 m 1
 162 202 l 1
 163 147 207 85 308 85 c 0
 418 85 481 129 493 204 c 0
 494 211 495 218 495 224 c 0
 495 279 454 298 423 307 c 0
 369 322 288 351 233 371 c 0
 171 395 93 446 93 542 c 0
 93 552 94 563 96 574 c 0
 117 704 249 800 422 800 c 0
 605 800 674 680 677 602 c 1
 531 582 l 1
 530 637 488 695 405 695 c 0
 314 695 249 651 238 581 c 0
 237 576 237 571 237 566 c 0
 237 521 275 502 314 487 c 0
 365 468 444 442 493 427 c 0
 565 404 638 351 638 248 c 0
 638 236 637 223 635 210 c 0
 614 80 483 -20 292 -20 c 0
 92 -20 18 102 16 182 c 1
EndSplineSet
PickledDataWithLists: "(dp0
Vcom.fontlab.hintData
p1
(dp2
Vvhints
p3
(lp4
(dp5
Vposition
p6
L60L
sVwidth
p7
L10L
sa(dp8
g6
L68L
sg7
L10L
sa(dp9
g6
L159L
sg7
L10L
sa(dp10
g6
L494L
sg7
L10L
sa(dp11
g6
L555L
sg7
L10L
sa(dp12
g6
L594L
sg7
L10L
sa(dp13
g6
L654L
sg7
L10L
sasVhhints
p14
(lp15
(dp16
g6
L-22L
sg7
L10L
sa(dp17
g6
L46L
sg7
L10L
sa(dp18
g6
L192L
sg7
L10L
sa(dp19
g6
L584L
sg7
L10L
sa(dp20
g6
L744L
sg7
L10L
sa(dp21
g6
L812L
sg7
L10L
sass."
Colour: ff00
EndChar

StartChar: T
Encoding: 55 84 56
GlifName: T_
Width: 620
VWidth: 0
Flags: HMW
AnchorPoint: "LatinCedilla.mark" 260 0 basechar 0
AnchorPoint: "LatinBelow.mark" 250 0 basechar 0
AnchorPoint: "LatinAbove.mark" 274 150 basechar 0
LayerCount: 2
Fore
SplineSet
69 673 m 1
 86 780 l 1
 662 780 l 1
 645 673 l 1
 430 673 l 1
 323 0 l 1
 177 0 l 1
 284 673 l 1
 69 673 l 1
EndSplineSet
PickledDataWithLists: "(dp0
Vcom.fontlab.hintData
p1
(dp2
Vvhints
p3
(lp4
(dp5
Vposition
p6
L25L
sVwidth
p7
L10L
sa(dp8
g6
L301L
sg7
L10L
sa(dp9
g6
L306L
sg7
L10L
sa(dp10
g6
L407L
sg7
L10L
sa(dp11
g6
L674L
sg7
L10L
sasVhhints
p12
(lp13
(dp14
g6
L-19L
sg7
L10L
sa(dp15
g6
L722L
sg7
L10L
sa(dp16
g6
L731L
sg7
L10L
sa(dp17
g6
L790L
sg7
L10L
sa(dp18
g6
L800L
sg7
L10L
sass."
Colour: ff00
EndChar

StartChar: U
Encoding: 56 85 57
GlifName: U_
Width: 770
VWidth: 0
Flags: HMW
AnchorPoint: "LatinOgonek.mark" 420 0 basechar 0
AnchorPoint: "LatinBelow.mark" 325 0 basechar 0
AnchorPoint: "LatinAbove.mark" 349 150 basechar 0
LayerCount: 2
Fore
SplineSet
51 242 m 2
 137 780 l 1
 284 780 l 1
 198 242 l 2
 196 230 195 219 195 209 c 0
 195 124 254 86 339 86 c 0
 434 86 511 134 528 242 c 2
 614 780 l 1
 761 780 l 1
 675 242 l 2
 652 95 514 -20 322 -20 c 0
 148 -20 48 75 48 202 c 0
 48 215 49 228 51 242 c 2
EndSplineSet
PickledDataWithLists: "(dp0
Vcom.fontlab.hintData
p1
(dp2
Vvhints
p3
(lp4
(dp5
Vposition
p6
L96L
sVwidth
p7
L10L
sa(dp8
g6
L107L
sg7
L10L
sa(dp9
g6
L194L
sg7
L10L
sa(dp10
g6
L205L
sg7
L10L
sa(dp11
g6
L603L
sg7
L10L
sa(dp12
g6
L616L
sg7
L10L
sa(dp13
g6
L704L
sg7
L10L
sa(dp14
g6
L714L
sg7
L10L
sasVhhints
p15
(lp16
(dp17
g6
L-24L
sg7
L10L
sa(dp18
g6
L44L
sg7
L10L
sa(dp19
g6
L789L
sg7
L10L
sass."
EndChar

StartChar: V
Encoding: 57 86 58
GlifName: V_
Width: 750
VWidth: 0
Flags: HMW
AnchorPoint: "LatinBelow.mark" 315 0 basechar 0
AnchorPoint: "LatinAbove.mark" 339 150 basechar 0
LayerCount: 2
Fore
SplineSet
73 758 m 1
 74 767 l 1
 248 780 l 1
 345 189 l 1
 630 780 l 1
 798 767 l 1
 797 758 l 1
 376 0 l 1
 254 0 l 1
 73 758 l 1
EndSplineSet
PickledDataWithLists: "(dp0
Vcom.fontlab.hintData
p1
(dp2
Vvhints
p3
(lp4
(dp5
Vposition
p6
L41L
sVwidth
p7
L10L
sa(dp8
g6
L759L
sg7
L10L
sasVhhints
p9
(lp10
(dp11
g6
L-21L
sg7
L10L
sa(dp12
g6
L781L
sg7
L10L
sa(dp13
g6
L794L
sg7
L10L
sass."
EndChar

StartChar: W
Encoding: 58 87 59
GlifName: W_
Width: 1060
VWidth: 0
Flags: HMW
AnchorPoint: "LatinBelow.mark" 470 0 basechar 0
AnchorPoint: "LatinAbove.mark" 494 150 basechar 0
LayerCount: 2
Fore
SplineSet
1103 758 m 1
 756 0 l 1
 632 0 l 1
 558 555 l 1
 308 0 l 1
 184 0 l 1
 77 758 l 1
 78 766 l 1
 239 780 l 1
 290 206 l 1
 530 760 l 1
 650 760 l 1
 716 206 l 1
 949 780 l 1
 1104 766 l 1
 1103 758 l 1
EndSplineSet
PickledDataWithLists: "(dp0
Vcom.fontlab.hintData
p1
(dp2
Vvhints
p3
(lp4
(dp5
Vposition
p6
L46L
sVwidth
p7
L10L
sa(dp8
g6
L1045L
sg7
L10L
sasVhhints
p9
(lp10
(dp11
g6
L-10L
sg7
L10L
sa(dp12
g6
L762L
sg7
L10L
sa(dp13
g6
L790L
sg7
L10L
sass."
Colour: ff00
EndChar

StartChar: X
Encoding: 59 88 60
GlifName: X_
Width: 740
VWidth: 0
Flags: HMW
AnchorPoint: "LatinBelow.mark" 310 0 basechar 0
AnchorPoint: "LatinAbove.mark" 334 150 basechar 0
LayerCount: 2
Fore
SplineSet
108 758 m 1
 109 766 l 1
 272 780 l 1
 390 507 l 1
 597 780 l 1
 754 766 l 1
 753 758 l 1
 458 414 l 1
 684 7 l 1
 683 0 l 1
 515 0 l 1
 357 297 l 1
 106 0 l 1
 -62 0 l 1
 -61 7 l 1
 295 414 l 1
 108 758 l 1
EndSplineSet
PickledDataWithLists: "(dp0
Vcom.fontlab.hintData
p1
(dp2
Vvhints
p3
(lp4
(dp5
Vposition
p6
L31L
sVwidth
p7
L10L
sa(dp8
g6
L91L
sg7
L10L
sa(dp9
g6
L687L
sg7
L10L
sa(dp10
g6
L734L
sg7
L10L
sasVhhints
p11
(lp12
(dp13
g6
L-9L
sg7
L10L
sa(dp14
g6
L4L
sg7
L10L
sa(dp15
g6
L789L
sg7
L10L
sass."
Colour: ff00
EndChar

StartChar: Y
Encoding: 60 89 61
GlifName: Y_
Width: 670
VWidth: 0
Flags: HMW
AnchorPoint: "LatinBelow.mark" 275 0 basechar 0
AnchorPoint: "LatinAbove.mark" 299 150 basechar 0
LayerCount: 2
Fore
SplineSet
63 758 m 1
 64 767 l 1
 229 780 l 1
 343 431 l 1
 569 780 l 1
 728 767 l 1
 727 758 l 1
 393 291 l 1
 347 0 l 1
 203 0 l 1
 249 291 l 1
 63 758 l 1
EndSplineSet
PickledDataWithLists: "(dp0
Vcom.fontlab.hintData
p1
(dp2
Vvhints
p3
(lp4
(dp5
Vposition
p6
L35L
sVwidth
p7
L10L
sa(dp8
g6
L310L
sg7
L10L
sa(dp9
g6
L408L
sg7
L10L
sa(dp10
g6
L414L
sg7
L10L
sa(dp11
g6
L675L
sg7
L10L
sasVhhints
p12
(lp13
(dp14
g6
L-20L
sg7
L10L
sa(dp15
g6
L789L
sg7
L10L
sa(dp16
g6
L800L
sg7
L10L
sass."
EndChar

StartChar: Z
Encoding: 61 90 62
GlifName: Z_
Width: 670
VWidth: 0
Flags: HMW
AnchorPoint: "LatinBelow.mark" 275 0 basechar 0
AnchorPoint: "LatinAbove.mark" 299 150 basechar 0
LayerCount: 2
Fore
SplineSet
-19 82 m 1
 485 668 l 1
 102 668 l 1
 120 780 l 1
 686 780 l 1
 683 698 l 1
 181 112 l 1
 601 112 l 1
 583 0 l 1
 -22 0 l 1
 -19 82 l 1
EndSplineSet
PickledDataWithLists: "(dp0
Vcom.fontlab.hintData
p1
(dp2
Vvhints
p3
(lp4
(dp5
Vposition
p6
L46L
sVwidth
p7
L10L
sa(dp8
g6
L66L
sg7
L10L
sa(dp9
g6
L679L
sg7
L10L
sa(dp10
g6
L699L
sg7
L10L
sasVhhints
p11
(lp12
(dp13
g6
L-13L
sg7
L10L
sa(dp14
g6
L64L
sg7
L10L
sa(dp15
g6
L75L
sg7
L10L
sa(dp16
g6
L709L
sg7
L10L
sa(dp17
g6
L779L
sg7
L10L
sa(dp18
g6
L785L
sg7
L10L
sa(dp19
g6
L790L
sg7
L10L
sass."
Colour: ff00
EndChar

StartChar: bracketleft
Encoding: 62 91 63
GlifName: bracketleft
Width: 435
VWidth: 0
Flags: HMW
LayerCount: 2
Fore
SplineSet
33 -120 m 1
 195 900 l 1
 435 900 l 1
 422 818 l 1
 298 818 l 1
 162 -38 l 1
 284 -38 l 1
 271 -120 l 1
 33 -120 l 1
EndSplineSet
PickledDataWithLists: "(dp0
Vcom.fontlab.hintData
p1
(dp2
Vvhints
p3
(lp4
(dp5
Vposition
p6
L71L
sVwidth
p7
L10L
sa(dp8
g6
L92L
sg7
L10L
sa(dp9
g6
L161L
sg7
L10L
sa(dp10
g6
L289L
sg7
L10L
sasVhhints
p11
(lp12
(dp13
g6
L-91L
sg7
L10L
sa(dp14
g6
L-44L
sg7
L10L
sa(dp15
g6
L830L
sg7
L10L
sa(dp16
g6
L877L
sg7
L10L
sass."
EndChar

StartChar: backslash
Encoding: 63 92 64
GlifName: backslash
Width: 510
VWidth: 0
Flags: HMW
LayerCount: 2
Fore
SplineSet
420 0 m 1
 296 0 l 1
 92 773 l 1
 94 780 l 1
 218 780 l 1
 421 7 l 1
 420 0 l 1
EndSplineSet
PickledDataWithLists: "(dp0
Vcom.fontlab.hintData
p1
(dp2
Vvhints
p3
(lp4
(dp5
Vposition
p6
L40L
sVwidth
p7
L10L
sa(dp8
g6
L430L
sg7
L10L
sasVhhints
p9
(lp10
(dp11
g6
L-29L
sg7
L10L
sa(dp12
g6
L819L
sg7
L10L
sass."
EndChar

StartChar: bracketright
Encoding: 64 93 65
GlifName: bracketright
Width: 435
VWidth: 0
Flags: HMW
LayerCount: 2
Fore
SplineSet
406 900 m 1
 244 -120 l 1
 4 -120 l 1
 17 -38 l 1
 141 -38 l 1
 277 818 l 1
 155 818 l 1
 168 900 l 1
 406 900 l 1
EndSplineSet
PickledDataWithLists: "(dp0
Vcom.fontlab.hintData
p1
(dp2
Vvhints
p3
(lp4
(dp5
Vposition
p6
L61L
sVwidth
p7
L10L
sa(dp8
g6
L189L
sg7
L10L
sa(dp9
g6
L258L
sg7
L10L
sa(dp10
g6
L279L
sg7
L10L
sasVhhints
p11
(lp12
(dp13
g6
L-90L
sg7
L10L
sa(dp14
g6
L-42L
sg7
L10L
sa(dp15
g6
L829L
sg7
L10L
sa(dp16
g6
L879L
sg7
L10L
sass."
EndChar

StartChar: asciicircum
Encoding: 65 94 66
GlifName: asciicircum
Width: 630
VWidth: 0
Flags: HMW
LayerCount: 2
Fore
SplineSet
56 592 m 1
 370 894 l 1
 423 894 l 1
 641 592 l 1
 564 544 l 1
 373 750 l 1
 117 544 l 1
 56 592 l 1
EndSplineSet
PickledDataWithLists: "(dp0
Vcom.fontlab.hintData
p1
(dp2
Vvhints
p3
(lp4
(dp5
Vposition
p6
L23L
sVwidth
p7
L10L
sasVhhints
p8
(lp9
(dp10
g6
L532L
sg7
L10L
sa(dp11
g6
L839L
sg7
L10L
sass."
EndChar

StartChar: underscore
Encoding: 66 95 67
GlifName: underscore
Width: 600
VWidth: 0
Flags: HMW
LayerCount: 2
Fore
SplineSet
-60 0 m 25
 540 0 l 25
 524 -104 l 25
 -76 -104 l 25
 -60 0 l 25
EndSplineSet
PickledDataWithLists: "(dp0
Vcom.fontlab.hintData
p1
(dp2
Vvhints
p3
(lp4
(dp5
Vposition
p6
L30L
sVwidth
p7
L10L
sa(dp8
g6
L559L
sg7
L10L
sasVhhints
p9
(lp10
(dp11
g6
L-69L
sg7
L10L
sa(dp12
g6
L-6L
sg7
L10L
sa(dp13
g6
L1L
sg7
L10L
sass."
EndChar

StartChar: grave
Encoding: 67 96 68
GlifName: grave
Width: 390
VWidth: 0
Flags: HMW
LayerCount: 2
Fore
SplineSet
63 818 m 1
 178 894 l 1
 402 592 l 1
 325 544 l 1
 63 818 l 1
EndSplineSet
PickledDataWithLists: "(dp0
Vcom.fontlab.hintData
p1
(dp2
Vvhints
p3
(lp4
(dp5
Vposition
p6
L20L
sVwidth
p7
L10L
sasVhhints
p8
(lp9
(dp10
g6
L541L
sg7
L10L
sa(dp11
g6
L838L
sg7
L10L
sass."
EndChar

StartChar: a
Encoding: 68 97 69
GlifName: a
Width: 625
VWidth: 0
Flags: HMW
AnchorPoint: "LatinOgonek.mark" 455 0 basechar 0
AnchorPoint: "LatinBelow.mark" 270 0 basechar 0
AnchorPoint: "LatinAbove.mark" 250 0 basechar 0
LayerCount: 2
Fore
SplineSet
15 173 m 0
 27 249 103 326 245 326 c 0
 303 326 360 322 405 318 c 1
 421 415 l 2
 422 424 423 432 423 440 c 0
 423 500 380 522 324 522 c 0
 266 522 217 489 196 419 c 1
 61 430 l 1
 89 522 182 620 339 620 c 0
 477 620 556 546 556 446 c 0
 556 436 556 426 554 415 c 2
 512 149 l 2
 510 138 509 128 509 120 c 0
 509 90 522 78 560 73 c 1
 512 -15 l 1
 475 -10 412 4 397 64 c 1
 354 20 294 -15 210 -15 c 0
 84 -15 12 45 12 140 c 0
 12 151 13 162 15 173 c 0
400 237 m 1
 358 242 298 248 239 248 c 0
 201 248 156 226 147 172 c 0
 146 164 145 157 145 150 c 0
 145 89 191 67 240 67 c 0
 326 67 371 133 394 204 c 1
 400 237 l 1
EndSplineSet
PickledDataWithLists: "(dp0
Vcom.fontlab.hintData
p1
(dp2
Vvhints
p3
(lp4
(dp5
Vposition
p6
L60L
sVwidth
p7
L10L
sa(dp8
g6
L149L
sg7
L10L
sa(dp9
g6
L441L
sg7
L10L
sa(dp10
g6
L529L
sg7
L10L
sa(dp11
g6
L649L
sg7
L10L
sasVhhints
p12
(lp13
(dp14
g6
L-21L
sg7
L10L
sa(dp15
g6
L-11L
sg7
L10L
sa(dp16
g6
L41L
sg7
L10L
sa(dp17
g6
L362L
sg7
L10L
sa(dp18
g6
L432L
sg7
L10L
sa(dp19
g6
L549L
sg7
L10L
sa(dp20
g6
L611L
sg7
L10L
sass."
Substitution2: "Latin.ss20 subtable" uni0251
Substitution2: "Latin.ss19 subtable" uni0251
Colour: ff00
EndChar

StartChar: b
Encoding: 69 98 70
GlifName: b
Width: 675
VWidth: 0
Flags: HMW
AnchorPoint: "LatinBelow.mark" 300 0 basechar 0
AnchorPoint: "LatinAbove.mark" 104 180 basechar 0
LayerCount: 2
Fore
SplineSet
616 311 m 2
 613 289 l 2
 592 155 500 -15 312 -15 c 0
 234 -15 185 28 156 82 c 1
 133 0 l 1
 17 0 l 1
 145 810 l 1
 278 810 l 1
 234 528 l 1
 279 578 338 615 411 615 c 0
 569 615 621 495 621 377 c 0
 621 355 619 332 616 311 c 2
209 371 m 1
 186 229 l 1
 192 149 230 84 310 84 c 0
 391 84 454 150 476 289 c 2
 479 311 l 2
 483 336 485 359 485 379 c 0
 485 471 445 516 379 516 c 0
 299 516 241 451 209 371 c 1
EndSplineSet
PickledDataWithLists: "(dp0
Vcom.fontlab.hintData
p1
(dp2
Vvhints
p3
(lp4
(dp5
Vposition
p6
L81L
sVwidth
p7
L10L
sa(dp8
g6
L91L
sg7
L10L
sa(dp9
g6
L179L
sg7
L10L
sa(dp10
g6
L211L
sg7
L10L
sa(dp11
g6
L504L
sg7
L10L
sa(dp12
g6
L593L
sg7
L10L
sasVhhints
p13
(lp14
(dp15
g6
L-21L
sg7
L10L
sa(dp16
g6
L41L
sg7
L10L
sa(dp17
g6
L524L
sg7
L10L
sa(dp18
g6
L546L
sg7
L10L
sa(dp19
g6
L607L
sg7
L10L
sa(dp20
g6
L836L
sg7
L10L
sass."
Colour: ff00
EndChar

StartChar: c
Encoding: 70 99 71
GlifName: c
Width: 605
VWidth: 0
Flags: HMW
AnchorPoint: "LatinCedilla.mark" 270 0 basechar 0
AnchorPoint: "LatinBelow.mark" 270 0 basechar 0
AnchorPoint: "LatinAbove.mark" 270 0 basechar 0
LayerCount: 2
Fore
SplineSet
34 288 m 2
 37 312 l 2
 58 446 142 620 369 620 c 0
 535 620 588 513 589 449 c 1
 449 437 l 1
 447 476 416 521 354 521 c 0
 268 521 199 449 177 312 c 2
 174 288 l 2
 170 265 169 244 169 225 c 0
 169 129 212 79 284 79 c 0
 346 79 392 124 406 163 c 1
 542 151 l 1
 521 87 434 -20 268 -20 c 0
 80 -20 28 100 28 217 c 0
 28 241 30 265 34 288 c 2
EndSplineSet
PickledDataWithLists: "(dp0
Vcom.fontlab.hintData
p1
(dp2
Vvhints
p3
(lp4
(dp5
Vposition
p6
L58L
sVwidth
p7
L10L
sa(dp8
g6
L152L
sg7
L10L
sa(dp9
g6
L433L
sg7
L10L
sa(dp10
g6
L527L
sg7
L10L
sa(dp11
g6
L552L
sg7
L10L
sasVhhints
p12
(lp13
(dp14
g6
L-22L
sg7
L10L
sa(dp15
g6
L44L
sg7
L10L
sa(dp16
g6
L133L
sg7
L10L
sa(dp17
g6
L433L
sg7
L10L
sa(dp18
g6
L548L
sg7
L10L
sa(dp19
g6
L614L
sg7
L10L
sass."
Colour: ff00
EndChar

StartChar: d
Encoding: 71 100 72
GlifName: d
Width: 680
VWidth: 0
Flags: HMW
AnchorPoint: "LatinBelow.mark" 300 0 basechar 0
AnchorPoint: "LatinAbove.mark" 494 180 basechar 0
LayerCount: 2
Fore
SplineSet
34 289 m 2
 37 311 l 2
 58 445 150 615 338 615 c 0
 411 615 460 578 489 528 c 1
 533 810 l 1
 666 810 l 1
 562 149 l 2
 560 138 559 128 559 120 c 0
 559 90 572 78 610 73 c 1
 562 -15 l 1
 518 -9 444 10 444 97 c 0
 444 100 444 102 444 105 c 1
 397 40 328 -15 239 -15 c 0
 81 -15 29 105 29 223 c 0
 29 245 31 268 34 289 c 2
464 371 m 1
 458 451 420 516 340 516 c 0
 259 516 196 450 174 311 c 2
 171 289 l 2
 167 264 165 241 165 221 c 0
 165 129 205 84 271 84 c 0
 351 84 409 149 441 229 c 1
 464 371 l 1
EndSplineSet
PickledDataWithLists: "(dp0
Vcom.fontlab.hintData
p1
(dp2
Vvhints
p3
(lp4
(dp5
Vposition
p6
L61L
sVwidth
p7
L10L
sa(dp8
g6
L149L
sg7
L10L
sa(dp9
g6
L476L
sg7
L10L
sa(dp10
g6
L564L
sg7
L10L
sa(dp11
g6
L679L
sg7
L10L
sasVhhints
p12
(lp13
(dp14
g6
L-21L
sg7
L10L
sa(dp15
g6
L41L
sg7
L10L
sa(dp16
g6
L544L
sg7
L10L
sa(dp17
g6
L606L
sg7
L10L
sa(dp18
g6
L836L
sg7
L10L
sass."
Colour: ff00
EndChar

StartChar: e
Encoding: 72 101 73
GlifName: e
Width: 640
VWidth: 0
Flags: HMW
AnchorPoint: "LatinOgonek.mark" 350 0 basechar 0
AnchorPoint: "LatinBelow.mark" 270 0 basechar 0
AnchorPoint: "LatinAbove.mark" 270 0 basechar 0
LayerCount: 2
Fore
SplineSet
33 287 m 2
 38 313 l 2
 59 448 146 620 366 620 c 0
 524 620 594 518 594 405 c 0
 594 390 592 374 590 359 c 0
 585 330 577 301 567 273 c 1
 568 272 l 1
 567 272 l 1
 164 272 l 1
 162 255 161 238 161 223 c 0
 161 127 204 76 280 76 c 0
 349 76 398 123 411 162 c 1
 541 150 l 1
 519 84 429 -20 265 -20 c 0
 79 -20 27 99 27 217 c 0
 27 241 29 264 33 287 c 2
180 358 m 1
 462 358 l 2
 462 359 l 0
 464 375 466 389 466 402 c 0
 466 487 418 524 351 524 c 0
 271 524 208 465 180 358 c 1
EndSplineSet
PickledDataWithLists: "(dp0
Vcom.fontlab.hintData
p1
(dp2
Vvhints
p3
(lp4
(dp5
Vposition
p6
L45L
sVwidth
p7
L10L
sa(dp8
g6
L71L
sg7
L10L
sa(dp9
g6
L159L
sg7
L10L
sa(dp10
g6
L471L
sg7
L10L
sa(dp11
g6
L559L
sg7
L10L
sa(dp12
g6
L570L
sg7
L10L
sasVhhints
p13
(lp14
(dp15
g6
L-20L
sg7
L10L
sa(dp16
g6
L42L
sg7
L10L
sa(dp17
g6
L131L
sg7
L10L
sa(dp18
g6
L552L
sg7
L10L
sa(dp19
g6
L613L
sg7
L10L
sass."
Colour: ff00
EndChar

StartChar: f
Encoding: 73 102 74
GlifName: f
Width: 400
VWidth: 0
Flags: HMW
AnchorPoint: "LatinBelow.mark" 120 0 basechar 0
AnchorPoint: "LatinAbove.mark" 239 180 basechar 0
LayerCount: 2
Fore
SplineSet
46 514 m 1
 60 600 l 1
 145 600 l 1
 156 672 l 2
 165 730 218 830 354 830 c 0
 436 830 482 792 494 781 c 1
 425 708 l 1
 414 716 387 735 349 735 c 0
 317 735 295 710 289 672 c 2
 278 600 l 1
 420 600 l 1
 406 514 l 1
 268 514 l 1
 187 0 l 1
 50 0 l 1
 131 514 l 1
 46 514 l 1
EndSplineSet
PickledDataWithLists: "(dp0
Vcom.fontlab.hintData
p1
(dp2
Vvhints
p3
(lp4
(dp5
Vposition
p6
L20L
sVwidth
p7
L10L
sa(dp8
g6
L132L
sg7
L10L
sa(dp9
g6
L166L
sg7
L10L
sa(dp10
g6
L219L
sg7
L9L
sa(dp11
g6
L255L
sg7
L10L
sa(dp12
g6
L399L
sg7
L10L
sa(dp13
g6
L469L
sg7
L10L
sasVhhints
p14
(lp15
(dp16
g6
L-20L
sg7
L10L
sa(dp17
g6
L521L
sg7
L10L
sa(dp18
g6
L586L
sg7
L10L
sa(dp19
g6
L591L
sg7
L10L
sa(dp20
g6
L759L
sg7
L10L
sa(dp21
g6
L803L
sg7
L10L
sa(dp22
g6
L864L
sg7
L10L
sass."
Colour: ff00
EndChar

StartChar: h
Encoding: 75 104 76
GlifName: h
Width: 665
VWidth: 0
Flags: HMW
AnchorPoint: "LatinBelow.mark" 300 0 basechar 0
AnchorPoint: "LatinAbove.mark" 104 180 basechar 0
LayerCount: 2
Fore
SplineSet
17 0 m 1
 145 810 l 1
 277 810 l 1
 223 465 l 1
 278 545 358 615 465 615 c 0
 568 615 610 541 610 455 c 0
 610 441 609 426 607 411 c 2
 542 0 l 1
 405 0 l 1
 469 406 l 2
 471 417 472 428 472 437 c 0
 472 493 440 507 410 507 c 0
 330 507 238 409 202 306 c 1
 154 0 l 1
 17 0 l 1
EndSplineSet
PickledDataWithLists: "(dp0
Vcom.fontlab.hintData
p1
(dp2
Vvhints
p3
(lp4
(dp5
Vposition
p6
L65L
sVwidth
p7
L10L
sa(dp8
g6
L106L
sg7
L10L
sa(dp9
g6
L187L
sg7
L10L
sa(dp10
g6
L491L
sg7
L10L
sa(dp11
g6
L496L
sg7
L10L
sa(dp12
g6
L579L
sg7
L10L
sa(dp13
g6
L584L
sg7
L10L
sasVhhints
p14
(lp15
(dp16
g6
L-14L
sg7
L10L
sa(dp17
g6
L549L
sg7
L10L
sa(dp18
g6
L611L
sg7
L10L
sa(dp19
g6
L836L
sg7
L10L
sass."
Colour: ff00
EndChar

StartChar: i
Encoding: 76 105 77
GlifName: i
Width: 300
VWidth: 0
GlyphClass: 3
Flags: HMW
AnchorPoint: "LatinOgonek.mark" 95 0 basechar 0
AnchorPoint: "LatinBelow.mark" 90 0 basechar 0
AnchorPoint: "LatinAbove.mark" 119 180 basechar 0
LayerCount: 2
Fore
SplineSet
21 0 m 1
 116 600 l 1
 254 600 l 1
 159 0 l 1
 21 0 l 1
226 861 m 0
 271 861 303 836 303 794 c 0
 303 789 303 785 302 780 c 0
 294 730 251 699 201 699 c 0
 156 699 125 725 125 766 c 0
 125 771 125 775 126 780 c 0
 134 830 176 861 226 861 c 0
EndSplineSet
PickledDataWithLists: "(dp0
Vcom.fontlab.hintData
p1
(dp2
Vvhints
p3
(lp4
(dp5
Vposition
p6
L86L
sVwidth
p7
L10L
sa(dp8
g6
L116L
sg7
L10L
sa(dp9
g6
L204L
sg7
L10L
sa(dp10
g6
L234L
sg7
L10L
sa(dp11
g6
L244L
sg7
L10L
sasVhhints
p12
(lp13
(dp14
g6
L-21L
sg7
L10L
sa(dp15
g6
L595L
sg7
L10L
sa(dp16
g6
L725L
sg7
L10L
sa(dp17
g6
L826L
sg7
L20L
sa(dp18
g6
L852L
sg7
L10L
sass."
Substitution2: "Latin.ij.dotless subtable" dotlessi
Ligature2: "Latin.ij subtable" dotlessi uni0307
EndChar

StartChar: j
Encoding: 77 106 78
GlifName: j
Width: 310
VWidth: 0
GlyphClass: 3
Flags: HMW
AnchorPoint: "LatinBelow.mark" 61 -180 basechar 0
AnchorPoint: "LatinAbove.mark" 119 180 basechar 0
LayerCount: 2
Fore
SplineSet
-93 -138 m 1
 -24 -119 16 -89 29 -10 c 2
 126 600 l 1
 262 600 l 1
 164 -18 l 2
 145 -135 40 -201 -64 -225 c 1
 -93 -138 l 1
235 861 m 0
 280 861 312 836 312 794 c 0
 312 789 312 785 311 780 c 0
 303 730 260 699 210 699 c 0
 165 699 134 725 134 766 c 0
 134 771 134 775 135 780 c 0
 143 830 185 861 235 861 c 0
EndSplineSet
PickledDataWithLists: "(dp0
Vcom.fontlab.hintData
p1
(dp2
Vvhints
p3
(lp4
(dp5
Vposition
p6
L31L
sVwidth
p7
L10L
sa(dp8
g6
L86L
sg7
L10L
sa(dp9
g6
L126L
sg7
L10L
sa(dp10
g6
L146L
sg7
L10L
sa(dp11
g6
L234L
sg7
L10L
sa(dp12
g6
L244L
sg7
L10L
sasVhhints
p13
(lp14
(dp15
g6
L-246L
sg7
L10L
sa(dp16
g6
L596L
sg7
L10L
sa(dp17
g6
L725L
sg7
L10L
sa(dp18
g6
L826L
sg7
L20L
sa(dp19
g6
L852L
sg7
L10L
sass."
Substitution2: "Latin.ij.dotless subtable" uni0237
Ligature2: "Latin.ij subtable" uni0237 uni200D uni0307
Ligature2: "Latin.ij subtable" uni0237 uni0307
Ligature2: "Latin.ij subtable" dotlessi uni200D uni0307
EndChar

StartChar: k
Encoding: 78 107 79
GlifName: k
Width: 605
VWidth: 0
Flags: HMW
AnchorPoint: "LatinBelow.mark" 300 0 basechar 0
AnchorPoint: "LatinAbove.mark" 104 180 basechar 0
LayerCount: 2
Fore
SplineSet
28 0 m 1
 156 810 l 1
 286 810 l 1
 214 355 l 1
 469 600 l 1
 617 591 l 1
 616 586 l 1
 340 343 l 1
 549 5 l 1
 548 0 l 1
 392 0 l 1
 240 254 l 1
 192 212 l 1
 158 0 l 1
 28 0 l 1
EndSplineSet
PickledDataWithLists: "(dp0
Vcom.fontlab.hintData
p1
(dp2
Vvhints
p3
(lp4
(dp5
Vposition
p6
L75L
sVwidth
p7
L10L
sa(dp8
g6
L105L
sg7
L10L
sa(dp9
g6
L194L
sg7
L10L
sa(dp10
g6
L539L
sg7
L10L
sa(dp11
g6
L580L
sg7
L10L
sasVhhints
p12
(lp13
(dp14
g6
L-11L
sg7
L10L
sa(dp15
g6
L596L
sg7
L10L
sa(dp16
g6
L836L
sg7
L10L
sass."
Colour: ff00
EndChar

StartChar: l
Encoding: 79 108 80
GlifName: l
Width: 315
VWidth: 0
Flags: HMW
AnchorPoint: "LatinBelow.mark" 130 0 basechar 0
AnchorPoint: "LatinAbove.mark" 109 180 basechar 0
LayerCount: 2
Fore
SplineSet
41 134 m 2
 148 810 l 1
 285 810 l 1
 180 147 l 2
 179 141 179 136 179 131 c 0
 179 93 206 79 262 74 c 1
 222 -15 l 1
 145 -9 39 11 39 109 c 0
 39 117 40 125 41 134 c 2
EndSplineSet
PickledDataWithLists: "(dp0
Vcom.fontlab.hintData
p1
(dp2
Vvhints
p3
(lp4
(dp5
Vposition
p6
L106L
sVwidth
p7
L10L
sa(dp8
g6
L111L
sg7
L10L
sa(dp9
g6
L194L
sg7
L10L
sa(dp10
g6
L199L
sg7
L10L
sa(dp11
g6
L315L
sg7
L10L
sasVhhints
p12
(lp13
(dp14
g6
L-23L
sg7
L10L
sa(dp15
g6
L830L
sg7
L10L
sass."
EndChar

StartChar: m
Encoding: 80 109 81
GlifName: m
Width: 945
VWidth: 0
Flags: HMW
AnchorPoint: "LatinBelow.mark" 420 0 basechar 0
AnchorPoint: "LatinAbove.mark" 420 0 basechar 0
LayerCount: 2
Fore
SplineSet
101 593 m 1
 227 603 l 1
 223 495 l 1
 267 561 329 613 417 613 c 0
 504 613 546 559 555 490 c 1
 599 558 662 613 752 613 c 0
 852 613 891 542 891 458 c 0
 891 443 889 427 887 411 c 2
 822 0 l 1
 685 0 l 1
 749 406 l 2
 751 419 752 430 752 440 c 0
 752 493 725 505 697 505 c 0
 630 505 570 419 539 323 c 1
 488 0 l 1
 351 0 l 1
 415 406 l 2
 417 419 418 430 418 440 c 0
 418 493 391 505 363 505 c 0
 296 505 236 419 205 323 c 1
 154 0 l 1
 17 0 l 1
 84 420 l 1
 101 593 l 1
EndSplineSet
PickledDataWithLists: "(dp0
Vcom.fontlab.hintData
p1
(dp2
Vvhints
p3
(lp4
(dp5
Vposition
p6
L76L
sVwidth
p7
L10L
sa(dp8
g6
L96L
sg7
L10L
sa(dp9
g6
L167L
sg7
L10L
sa(dp10
g6
L436L
sg7
L10L
sa(dp11
g6
L441L
sg7
L10L
sa(dp12
g6
L776L
sg7
L10L
sa(dp13
g6
L781L
sg7
L10L
sa(dp14
g6
L864L
sg7
L10L
sa(dp15
g6
L869L
sg7
L10L
sasVhhints
p16
(lp17
(dp18
g6
L-19L
sg7
L10L
sa(dp19
g6
L-10L
sg7
L10L
sa(dp20
g6
L549L
sg7
L10L
sa(dp21
g6
L606L
sg7
L10L
sa(dp22
g6
L611L
sg7
L10L
sass."
Colour: ff00
EndChar

StartChar: n
Encoding: 81 110 82
GlifName: n
Width: 655
VWidth: 0
Flags: HMW
AnchorPoint: "LatinBelow.mark" 300 0 basechar 0
AnchorPoint: "LatinAbove.mark" 270 0 basechar 0
LayerCount: 2
Fore
SplineSet
17 0 m 1
 84 420 l 1
 101 593 l 1
 227 603 l 1
 222 470 l 1
 274 548 352 615 456 615 c 0
 559 615 601 542 601 456 c 0
 601 441 599 426 597 411 c 2
 532 0 l 1
 395 0 l 1
 459 406 l 2
 461 418 462 428 462 437 c 0
 462 493 430 507 401 507 c 0
 323 507 238 410 203 307 c 1
 154 0 l 1
 17 0 l 1
EndSplineSet
PickledDataWithLists: "(dp0
Vcom.fontlab.hintData
p1
(dp2
Vvhints
p3
(lp4
(dp5
Vposition
p6
L55L
sVwidth
p7
L10L
sa(dp8
g6
L96L
sg7
L10L
sa(dp9
g6
L481L
sg7
L10L
sa(dp10
g6
L486L
sg7
L10L
sa(dp11
g6
L569L
sg7
L10L
sa(dp12
g6
L574L
sg7
L10L
sasVhhints
p13
(lp14
(dp15
g6
L-15L
sg7
L10L
sa(dp16
g6
L-10L
sg7
L10L
sa(dp17
g6
L549L
sg7
L10L
sa(dp18
g6
L606L
sg7
L10L
sa(dp19
g6
L611L
sg7
L10L
sass."
Substitution2: "Latin.sups subtable" n.sups
Substitution2: "Latin.sups subtable" n.sups
Colour: ff00
EndChar

StartChar: o
Encoding: 82 111 83
GlifName: o
Width: 660
VWidth: 0
Flags: HMW
AnchorPoint: "LatinOgonek.mark" 340 0 basechar 0
AnchorPoint: "LatinBelow.mark" 270 0 basechar 0
AnchorPoint: "LatinAbove.mark" 270 0 basechar 0
LayerCount: 2
Fore
SplineSet
33 287 m 2
 38 313 l 2
 59 447 142 620 368 620 c 0
 556 620 608 500 608 383 c 0
 608 359 606 336 602 313 c 2
 597 287 l 2
 576 153 493 -20 267 -20 c 0
 79 -20 27 100 27 217 c 0
 27 241 29 264 33 287 c 2
282 78 m 0
 372 78 438 150 460 287 c 2
 465 313 l 2
 469 336 471 358 471 378 c 0
 471 473 428 522 353 522 c 0
 263 522 197 450 175 313 c 2
 170 287 l 2
 166 264 164 242 164 222 c 0
 164 127 207 78 282 78 c 0
EndSplineSet
PickledDataWithLists: "(dp0
Vcom.fontlab.hintData
p1
(dp2
Vvhints
p3
(lp4
(dp5
Vposition
p6
L61L
sVwidth
p7
L10L
sa(dp8
g6
L149L
sg7
L10L
sa(dp9
g6
L441L
sg7
L10L
sa(dp10
g6
L506L
sg7
L10L
sa(dp11
g6
L594L
sg7
L10L
sasVhhints
p12
(lp13
(dp14
g6
L-21L
sg7
L10L
sa(dp15
g6
L42L
sg7
L9L
sa(dp16
g6
L552L
sg7
L10L
sa(dp17
g6
L614L
sg7
L10L
sass."
Colour: ff00
EndChar

StartChar: p
Encoding: 83 112 84
GlifName: p
Width: 675
VWidth: 0
Flags: HMW
AnchorPoint: "LatinBelow.mark" 61 -180 basechar 0
AnchorPoint: "LatinAbove.mark" 270 0 basechar 0
LayerCount: 2
Fore
SplineSet
616 311 m 2
 613 289 l 2
 592 155 500 -15 312 -15 c 0
 241 -15 195 20 165 67 c 1
 121 -210 l 1
 -16 -210 l 1
 84 420 l 1
 101 593 l 1
 227 603 l 1
 224 517 l 1
 271 572 332 615 411 615 c 0
 569 615 621 495 621 377 c 0
 621 355 619 332 616 311 c 2
188 214 m 1
 197 141 235 84 310 84 c 0
 391 84 454 150 476 289 c 2
 479 311 l 2
 483 336 485 359 485 379 c 0
 485 471 445 516 379 516 c 0
 304 516 248 459 215 386 c 1
 188 214 l 1
EndSplineSet
PickledDataWithLists: "(dp0
Vcom.fontlab.hintData
p1
(dp2
Vvhints
p3
(lp4
(dp5
Vposition
p6
L41L
sVwidth
p7
L10L
sa(dp8
g6
L101L
sg7
L10L
sa(dp9
g6
L108L
sg7
L10L
sa(dp10
g6
L193L
sg7
L10L
sa(dp11
g6
L523L
sg7
L10L
sa(dp12
g6
L612L
sg7
L10L
sasVhhints
p13
(lp14
(dp15
g6
L-246L
sg7
L10L
sa(dp16
g6
L-16L
sg7
L10L
sa(dp17
g6
L46L
sg7
L10L
sa(dp18
g6
L549L
sg7
L10L
sa(dp19
g6
L610L
sg7
L10L
sass."
Colour: ff00
EndChar

StartChar: q
Encoding: 84 113 85
GlifName: q
Width: 675
VWidth: 0
Flags: HMW
AnchorPoint: "LatinBelow.mark" 437 -240 basechar 0
AnchorPoint: "LatinAbove.mark" 300 0 basechar 0
LayerCount: 2
Fore
SplineSet
34 289 m 2
 37 311 l 2
 58 445 150 615 338 615 c 0
 416 615 465 572 494 518 c 1
 517 600 l 1
 633 600 l 1
 505 -210 l 1
 372 -210 l 1
 416 72 l 1
 371 22 312 -15 239 -15 c 0
 81 -15 29 105 29 223 c 0
 29 245 31 268 34 289 c 2
441 229 m 1
 464 371 l 1
 458 451 420 516 340 516 c 0
 259 516 196 450 174 311 c 2
 171 289 l 2
 167 264 165 241 165 221 c 0
 165 129 205 84 271 84 c 0
 351 84 409 149 441 229 c 1
EndSplineSet
PickledDataWithLists: "(dp0
Vcom.fontlab.hintData
p1
(dp2
Vvhints
p3
(lp4
(dp5
Vposition
p6
L59L
sVwidth
p7
L10L
sa(dp8
g6
L149L
sg7
L10L
sa(dp9
g6
L444L
sg7
L10L
sa(dp10
g6
L459L
sg7
L10L
sa(dp11
g6
L471L
sg7
L10L
sa(dp12
g6
L547L
sg7
L10L
sa(dp13
g6
L559L
sg7
L10L
sa(dp14
g6
L649L
sg7
L10L
sasVhhints
p15
(lp16
(dp17
g6
L-261L
sg7
L10L
sa(dp18
g6
L-184L
sg7
L10L
sa(dp19
g6
L-17L
sg7
L10L
sa(dp20
g6
L44L
sg7
L10L
sa(dp21
g6
L66L
sg7
L10L
sa(dp22
g6
L549L
sg7
L10L
sa(dp23
g6
L611L
sg7
L10L
sass."
Colour: ff00
EndChar

StartChar: r
Encoding: 85 114 86
GlifName: r
Width: 435
VWidth: 0
Flags: HMW
AnchorPoint: "LatinBelow.mark" 110 0 basechar 0
AnchorPoint: "LatinAbove.mark" 180 0 basechar 0
LayerCount: 2
Fore
SplineSet
95 590 m 1
 213 603 l 1
 225 475 l 1
 262 550 319 615 408 615 c 0
 436 615 459 609 477 599 c 1
 407 487 l 1
 396 494 384 498 367 498 c 0
 306 498 254 417 225 323 c 1
 174 0 l 1
 37 0 l 1
 107 443 l 1
 95 590 l 1
EndSplineSet
PickledDataWithLists: "(dp0
Vcom.fontlab.hintData
p1
(dp2
Vvhints
p3
(lp4
(dp5
Vposition
p6
L20L
sVwidth
p7
L10L
sa(dp8
g6
L171L
sg7
L10L
sa(dp9
g6
L261L
sg7
L10L
sa(dp10
g6
L479L
sg7
L10L
sasVhhints
p11
(lp12
(dp13
g6
L-13L
sg7
L10L
sa(dp14
g6
L524L
sg7
L10L
sa(dp15
g6
L549L
sg7
L10L
sa(dp16
g6
L596L
sg7
L10L
sa(dp17
g6
L611L
sg7
L10L
sass."
Colour: ff00
EndChar

StartChar: s
Encoding: 86 115 87
GlifName: s
Width: 570
VWidth: 0
Flags: HMW
AnchorPoint: "LatinCedilla.mark" 250 0 basechar 0
AnchorPoint: "LatinBelow.mark" 225 0 basechar 0
AnchorPoint: "LatinAbove.mark" 225 0 basechar 0
LayerCount: 2
Fore
SplineSet
-1 141 m 1
 134 158 l 1
 134 157 134 157 134 156 c 0
 134 115 169 76 241 76 c 0
 313 76 359 108 367 159 c 0
 368 164 368 168 368 172 c 0
 368 210 337 227 316 233 c 0
 274 246 214 263 173 279 c 0
 123 298 60 332 60 412 c 0
 60 420 60 429 62 439 c 0
 78 541 183 620 323 620 c 0
 475 620 528 526 530 462 c 1
 394 445 l 1
 394 487 370 524 308 524 c 0
 246 524 200 493 192 444 c 0
 192 441 191 438 191 435 c 0
 191 402 222 386 248 378 c 0
 288 364 350 346 383 335 c 0
 442 316 501 281 501 197 c 0
 501 187 500 176 498 164 c 0
 482 60 375 -20 222 -20 c 0
 59 -20 1 76 -1 141 c 1
EndSplineSet
PickledDataWithLists: "(dp0
Vcom.fontlab.hintData
p1
(dp2
Vvhints
p3
(lp4
(dp5
Vposition
p6
L60L
sVwidth
p7
L10L
sa(dp8
g6
L139L
sg7
L10L
sa(dp9
g6
L381L
sg7
L10L
sa(dp10
g6
L431L
sg7
L10L
sa(dp11
g6
L470L
sg7
L10L
sa(dp12
g6
L516L
sg7
L10L
sasVhhints
p13
(lp14
(dp15
g6
L-20L
sg7
L10L
sa(dp16
g6
L42L
sg7
L10L
sa(dp17
g6
L151L
sg7
L10L
sa(dp18
g6
L434L
sg7
L10L
sa(dp19
g6
L554L
sg7
L10L
sa(dp20
g6
L616L
sg7
L10L
sass."
Colour: ff00
EndChar

StartChar: t
Encoding: 87 116 88
GlifName: t
Width: 415
VWidth: 0
Flags: HMW
AnchorPoint: "LatinCedilla.mark" 210 0 basechar 0
AnchorPoint: "LatinBelow.mark" 220 0 basechar 0
AnchorPoint: "LatinAbove.mark" 139 120 basechar 0
LayerCount: 2
Fore
SplineSet
46 514 m 1
 60 600 l 1
 150 600 l 1
 170 725 l 1
 300 735 l 1
 279 600 l 1
 420 600 l 1
 406 514 l 1
 268 514 l 1
 211 154 l 2
 209 141 208 131 208 122 c 0
 208 91 220 83 246 83 c 0
 284 83 325 96 340 105 c 1
 358 16 l 1
 325 0 276 -15 214 -15 c 0
 127 -15 68 17 68 100 c 0
 68 110 69 122 71 134 c 2
 131 514 l 1
 46 514 l 1
EndSplineSet
PickledDataWithLists: "(dp0
Vcom.fontlab.hintData
p1
(dp2
Vvhints
p3
(lp4
(dp5
Vposition
p6
L20L
sVwidth
p7
L10L
sa(dp8
g6
L131L
sg7
L10L
sa(dp9
g6
L136L
sg7
L10L
sa(dp10
g6
L141L
sg7
L10L
sa(dp11
g6
L219L
sg7
L10L
sa(dp12
g6
L225L
sg7
L10L
sa(dp13
g6
L399L
sg7
L10L
sa(dp14
g6
L439L
sg7
L10L
sasVhhints
p15
(lp16
(dp17
g6
L-18L
sg7
L10L
sa(dp18
g6
L41L
sg7
L10L
sa(dp19
g6
L86L
sg7
L10L
sa(dp20
g6
L524L
sg7
L10L
sa(dp21
g6
L586L
sg7
L10L
sa(dp22
g6
L741L
sg7
L10L
sass."
Colour: ff00
EndChar

StartChar: u
Encoding: 88 117 89
GlifName: u
Width: 620
VWidth: 0
Flags: HMW
AnchorPoint: "LatinOgonek.mark" 320 0 basechar 0
AnchorPoint: "LatinBelow.mark" 250 0 basechar 0
AnchorPoint: "LatinAbove.mark" 250 0 basechar 0
LayerCount: 2
Fore
SplineSet
28 191 m 2
 93 600 l 1
 230 600 l 1
 165 191 l 2
 164 182 163 173 163 165 c 0
 163 103 205 78 262 78 c 0
 326 78 382 110 395 191 c 2
 460 600 l 1
 597 600 l 1
 532 191 l 2
 514 75 403 -20 247 -20 c 0
 105 -20 26 59 26 160 c 0
 26 170 26 180 28 191 c 2
EndSplineSet
PickledDataWithLists: "(dp0
Vcom.fontlab.hintData
p1
(dp2
Vvhints
p3
(lp4
(dp5
Vposition
p6
L81L
sVwidth
p7
L10L
sa(dp8
g6
L86L
sg7
L10L
sa(dp9
g6
L174L
sg7
L10L
sa(dp10
g6
L471L
sg7
L10L
sa(dp11
g6
L649L
sg7
L10L
sasVhhints
p12
(lp13
(dp14
g6
L-21L
sg7
L10L
sa(dp15
g6
L-16L
sg7
L10L
sa(dp16
g6
L41L
sg7
L10L
sa(dp17
g6
L601L
sg7
L10L
sass."
EndChar

StartChar: v
Encoding: 89 118 90
GlifName: v
Width: 600
VWidth: 0
Flags: HMW
AnchorPoint: "LatinBelow.mark" 240 0 basechar 0
AnchorPoint: "LatinAbove.mark" 240 0 basechar 0
LayerCount: 2
Fore
SplineSet
39 583 m 1
 40 590 l 1
 191 600 l 1
 267 168 l 1
 479 600 l 1
 626 590 l 1
 625 583 l 1
 296 0 l 1
 184 0 l 1
 39 583 l 1
EndSplineSet
PickledDataWithLists: "(dp0
Vcom.fontlab.hintData
p1
(dp2
Vvhints
p3
(lp4
(dp5
Vposition
p6
L35L
sVwidth
p7
L10L
sa(dp8
g6
L584L
sg7
L10L
sasVhhints
p9
(lp10
(dp11
g6
L-18L
sg7
L10L
sa(dp12
g6
L581L
sg7
L10L
sa(dp13
g6
L591L
sg7
L10L
sass."
Colour: ff00
EndChar

StartChar: w
Encoding: 90 119 91
GlifName: w
Width: 830
VWidth: 0
Flags: HMW
AnchorPoint: "LatinBelow.mark" 355 0 basechar 0
AnchorPoint: "LatinAbove.mark" 355 0 basechar 0
LayerCount: 2
Fore
SplineSet
850 582 m 1
 584 0 l 1
 468 0 l 1
 467 0 l 1
 416 394 l 1
 242 0 l 1
 126 0 l 1
 44 582 l 1
 45 590 l 1
 192 600 l 1
 226 196 l 1
 393 585 l 1
 502 585 l 1
 546 194 l 1
 708 600 l 1
 851 590 l 1
 850 582 l 1
EndSplineSet
PickledDataWithLists: "(dp0
Vcom.fontlab.hintData
p1
(dp2
Vvhints
p3
(lp4
(dp5
Vposition
p6
L41L
sVwidth
p7
L10L
sa(dp8
g6
L790L
sg7
L10L
sasVhhints
p9
(lp10
(dp11
g6
L-11L
sg7
L10L
sa(dp12
g6
L568L
sg7
L10L
sa(dp13
g6
L590L
sg7
L10L
sass."
Colour: ff00
EndChar

StartChar: x
Encoding: 91 120 92
GlifName: x
Width: 600
VWidth: 0
Flags: HMW
AnchorPoint: "LatinBelow.mark" 240 0 basechar 0
AnchorPoint: "LatinAbove.mark" 240 0 basechar 0
LayerCount: 2
Fore
SplineSet
75 583 m 1
 76 590 l 1
 223 600 l 1
 306 410 l 1
 448 600 l 1
 591 590 l 1
 590 583 l 1
 367 323 l 1
 539 5 l 1
 538 0 l 1
 386 0 l 1
 275 214 l 1
 95 0 l 1
 -57 0 l 1
 -56 5 l 1
 216 323 l 1
 75 583 l 1
EndSplineSet
PickledDataWithLists: "(dp0
Vcom.fontlab.hintData
p1
(dp2
Vvhints
p3
(lp4
(dp5
Vposition
p6
L26L
sVwidth
p7
L10L
sa(dp8
g6
L71L
sg7
L10L
sa(dp9
g6
L524L
sg7
L10L
sa(dp10
g6
L559L
sg7
L10L
sasVhhints
p11
(lp12
(dp13
g6
L-6L
sg7
L10L
sa(dp14
g6
L5L
sg7
L10L
sa(dp15
g6
L591L
sg7
L10L
sass."
Colour: ff00
EndChar

StartChar: y
Encoding: 92 121 93
GlifName: y
Width: 600
VWidth: 0
Flags: HMW
AnchorPoint: "LatinBelow.mark" 211 -180 basechar 0
AnchorPoint: "LatinAbove.mark" 240 0 basechar 0
LayerCount: 2
Fore
SplineSet
39 583 m 1
 40 590 l 1
 191 600 l 1
 267 164 l 1
 479 600 l 1
 626 590 l 1
 625 583 l 1
 289 -20 l 1
 227 -121 171 -230 42 -230 c 0
 -13 -230 -50 -208 -73 -188 c 1
 5 -107 l 1
 19 -121 32 -136 52 -136 c 0
 95 -136 128 -84 182 6 c 2
 182 7 l 1
 39 583 l 1
EndSplineSet
PickledDataWithLists: "(dp0
Vcom.fontlab.hintData
p1
(dp2
Vvhints
p3
(lp4
(dp5
Vposition
p6
L56L
sVwidth
p7
L10L
sa(dp8
g6
L130L
sg7
L10L
sasVhhints
p9
(lp10
(dp11
g6
L-257L
sg7
L10L
sa(dp12
g6
L-195L
sg7
L10L
sa(dp13
g6
L-164L
sg7
L10L
sa(dp14
g6
L4L
sg7
L10L
sa(dp15
g6
L584L
sg7
L10L
sa(dp16
g6
L595L
sg7
L10L
sass."
Colour: ff00
EndChar

StartChar: z
Encoding: 93 122 94
GlifName: z
Width: 530
VWidth: 0
Flags: HMW
AnchorPoint: "LatinBelow.mark" 205 0 basechar 0
AnchorPoint: "LatinAbove.mark" 205 0 basechar 0
LayerCount: 2
Fore
SplineSet
-27 68 m 1
 342 505 l 1
 65 505 l 1
 80 600 l 1
 528 600 l 1
 525 532 l 1
 156 95 l 1
 462 95 l 1
 447 0 l 1
 -30 0 l 1
 -27 68 l 1
EndSplineSet
PickledDataWithLists: "(dp0
Vcom.fontlab.hintData
p1
(dp2
Vvhints
p3
(lp4
(dp5
Vposition
p6
L46L
sVwidth
p7
L10L
sa(dp8
g6
L61L
sg7
L10L
sa(dp9
g6
L531L
sg7
L10L
sa(dp10
g6
L544L
sg7
L10L
sasVhhints
p11
(lp12
(dp13
g6
L-17L
sg7
L10L
sa(dp14
g6
L51L
sg7
L10L
sa(dp15
g6
L59L
sg7
L10L
sa(dp16
g6
L525L
sg7
L15L
sa(dp17
g6
L587L
sg7
L10L
sa(dp18
g6
L592L
sg7
L10L
sass."
Colour: ff00
EndChar

StartChar: braceleft
Encoding: 94 123 95
GlifName: braceleft
Width: 390
VWidth: 0
Flags: HMW
LayerCount: 2
Fore
SplineSet
35 368 m 1
 39 390 l 1
 42 412 l 1
 89 424 145 455 158 539 c 0
 159 544 159 551 159 558 c 0
 159 591 152 643 152 689 c 0
 152 704 153 719 155 732 c 0
 169 822 239 900 350 900 c 2
 405 900 l 1
 394 831 l 1
 356 831 l 2
 331 831 289 818 274 724 c 0
 272 712 271 698 271 682 c 0
 271 647 275 605 275 570 c 0
 275 554 274 539 272 527 c 0
 260 454 218 411 164 390 c 1
 205 372 232 338 232 284 c 0
 232 274 231 264 229 253 c 0
 221 202 176 105 168 56 c 0
 166 41 165 28 165 17 c 0
 165 -42 195 -51 216 -51 c 2
 254 -51 l 1
 243 -120 l 1
 188 -120 l 2
 90 -120 44 -60 44 16 c 0
 44 26 45 37 47 48 c 0
 57 108 105 204 111 241 c 0
 113 251 113 260 113 268 c 0
 113 332 73 357 35 368 c 1
EndSplineSet
PickledDataWithLists: "(dp0
Vcom.fontlab.hintData
p1
(dp2
Vvhints
p3
(lp4
(dp5
Vposition
p6
L22L
sVwidth
p7
L10L
sa(dp8
g6
L112L
sg7
L10L
sa(dp9
g6
L128L
sg7
L10L
sa(dp10
g6
L182L
sg7
L10L
sa(dp11
g6
L197L
sg7
L10L
sa(dp12
g6
L205L
sg7
L10L
sa(dp13
g6
L289L
sg7
L10L
sasVhhints
p14
(lp15
(dp16
g6
L-89L
sg7
L10L
sa(dp17
g6
L-41L
sg7
L10L
sa(dp18
g6
L830L
sg7
L10L
sa(dp19
g6
L879L
sg7
L10L
sass."
EndChar

StartChar: bar
Encoding: 95 124 96
GlifName: bar
Width: 360
VWidth: 0
Flags: HMW
LayerCount: 2
Fore
SplineSet
41 -120 m 1
 203 900 l 1
 323 900 l 1
 161 -120 l 1
 41 -120 l 1
EndSplineSet
PickledDataWithLists: "(dp0
Vcom.fontlab.hintData
p1
(dp2
Vvhints
p3
(lp4
(dp5
Vposition
p6
L131L
sVwidth
p7
L10L
sa(dp8
g6
L209L
sg7
L10L
sa(dp9
g6
L216L
sg7
L10L
sasVhhints
p10
(lp11
(dp12
g6
L-92L
sg7
L10L
sa(dp13
g6
L882L
sg7
L10L
sass."
EndChar

StartChar: braceright
Encoding: 96 125 97
GlifName: braceright
Width: 390
VWidth: 0
Flags: HMW
LayerCount: 2
Fore
SplineSet
358 412 m 1
 355 390 l 1
 351 368 l 1
 304 356 248 325 235 241 c 0
 234 236 234 230 234 223 c 0
 234 189 242 136 242 89 c 0
 242 74 241 60 239 48 c 0
 225 -42 155 -120 44 -120 c 2
 -11 -120 l 1
 -0 -51 l 1
 38 -51 l 2
 63 -51 105 -38 120 56 c 0
 122 67 122 80 122 95 c 0
 122 131 119 176 119 213 c 0
 119 228 119 242 121 253 c 0
 133 326 176 369 230 390 c 1
 189 408 161 441 161 496 c 0
 161 506 162 516 164 527 c 0
 172 578 218 675 226 724 c 0
 228 739 229 752 229 763 c 0
 229 822 199 831 178 831 c 2
 140 831 l 1
 151 900 l 1
 206 900 l 2
 304 900 350 840 350 764 c 0
 350 754 349 743 347 732 c 0
 337 672 288 576 282 539 c 0
 280 529 280 520 280 512 c 0
 280 448 320 423 358 412 c 1
EndSplineSet
PickledDataWithLists: "(dp0
Vcom.fontlab.hintData
p1
(dp2
Vvhints
p3
(lp4
(dp5
Vposition
p6
L61L
sVwidth
p7
L10L
sa(dp8
g6
L145L
sg7
L10L
sa(dp9
g6
L153L
sg7
L10L
sa(dp10
g6
L166L
sg7
L10L
sa(dp11
g6
L216L
sg7
L10L
sa(dp12
g6
L222L
sg7
L10L
sa(dp13
g6
L237L
sg7
L10L
sa(dp14
g6
L328L
sg7
L10L
sasVhhints
p15
(lp16
(dp17
g6
L-89L
sg7
L10L
sa(dp18
g6
L-41L
sg7
L10L
sa(dp19
g6
L831L
sg7
L10L
sa(dp20
g6
L879L
sg7
L10L
sass."
EndChar

StartChar: asciitilde
Encoding: 97 126 98
GlifName: asciitilde
Width: 600
VWidth: 0
Flags: HMW
LayerCount: 2
Fore
SplineSet
28 320 m 1
 70 405 123 497 221 497 c 0
 287 497 320 453 343 426 c 0
 368 396 385 381 401 381 c 0
 435 381 469 430 493 486 c 1
 575 460 l 1
 533 375 480 283 382 283 c 0
 316 283 282 327 259 354 c 0
 234 384 217 399 201 399 c 0
 167 399 134 350 110 294 c 1
 28 320 l 1
EndSplineSet
PickledDataWithLists: "(dp0
Vcom.fontlab.hintData
p1
(dp2
Vvhints
p3
(lp4
(dp5
Vposition
p6
L51L
sVwidth
p7
L10L
sa(dp8
g6
L539L
sg7
L10L
sasVhhints
p9
(lp10
(dp11
g6
L249L
sg7
L10L
sa(dp12
g6
L260L
sg7
L10L
sa(dp13
g6
L311L
sg7
L10L
sa(dp14
g6
L359L
sg7
L10L
sa(dp15
g6
L411L
sg7
L10L
sa(dp16
g6
L421L
sg7
L10L
sass."
EndChar

StartChar: copyright
Encoding: 107 169 100
GlifName: copyright
Width: 1020
VWidth: 0
Flags: HMW
LayerCount: 2
Fore
SplineSet
338 396 m 2
 340 411 l 2
 354 499 411 609 555 609 c 0
 661 609 694 540 696 499 c 1
 609 491 l 1
 609 516 588 545 545 545 c 0
 487 545 443 499 429 411 c 2
 427 396 l 2
 425 381 424 367 424 355 c 0
 424 294 452 262 500 262 c 0
 543 262 573 290 581 315 c 1
 666 307 l 1
 652 266 596 198 490 198 c 0
 369 198 334 275 334 352 c 0
 334 367 336 382 338 396 c 2
448 -15 m 0
 215 -15 79 128 79 329 c 0
 79 353 81 379 85 405 c 0
 123 644 320 825 581 825 c 0
 813 825 949 681 949 481 c 0
 949 456 947 431 943 405 c 0
 905 166 709 -15 448 -15 c 0
459 55 m 0
 672 55 832 196 865 405 c 0
 869 429 871 452 871 474 c 0
 871 645 759 755 570 755 c 0
 357 755 196 614 163 405 c 0
 159 381 157 359 157 337 c 0
 157 166 270 55 459 55 c 0
EndSplineSet
PickledDataWithLists: "(dp0
Vcom.fontlab.hintData
p1
(dp2
Vvhints
p3
(lp4
(dp5
Vposition
p6
L83L
sVwidth
p7
L10L
sa(dp8
g6
L147L
sg7
L10L
sa(dp9
g6
L315L
sg7
L10L
sa(dp10
g6
L395L
sg7
L10L
sa(dp11
g6
L565L
sg7
L10L
sa(dp12
g6
L645L
sg7
L10L
sa(dp13
g6
L661L
sg7
L10L
sa(dp14
g6
L798L
sg7
L10L
sa(dp15
g6
L863L
sg7
L10L
sa(dp16
g6
L927L
sg7
L10L
sasVhhints
p17
(lp18
(dp19
g6
L-27L
sg7
L10L
sa(dp20
g6
L17L
sg7
L10L
sa(dp21
g6
L170L
sg7
L10L
sa(dp22
g6
L224L
sg7
L10L
sa(dp23
g6
L283L
sg7
L10L
sa(dp24
g6
L472L
sg7
L10L
sa(dp25
g6
L549L
sg7
L10L
sa(dp26
g6
L603L
sg7
L10L
sa(dp27
g6
L773L
sg7
L10L
sa(dp28
g6
L817L
sg7
L10L
sass."
EndChar

StartChar: registered
Encoding: 112 174 101
GlifName: registered
Width: 870
VWidth: 0
Flags: HMW
LayerCount: 2
Fore
SplineSet
417 263 m 0
 228 263 119 379 119 540 c 0
 119 559 121 579 124 600 c 0
 154 791 311 937 523 937 c 0
 712 937 821 821 821 660 c 0
 821 641 819 621 816 600 c 0
 786 409 629 263 417 263 c 0
425 315 m 0
 595 315 726 429 753 600 c 0
 756 619 758 638 758 656 c 0
 758 796 666 885 515 885 c 0
 345 885 214 771 187 600 c 0
 184 581 182 562 182 544 c 0
 182 404 274 315 425 315 c 0
426 551 m 1
 420 551 414 551 408 551 c 1
 384 400 l 1
 300 400 l 1
 325 555 l 1
 362 790 l 1
 362 790 432 795 501 795 c 0
 593 795 651 755 651 691 c 0
 651 685 650 679 649 673 c 0
 639 613 588 570 518 556 c 1
 621 404 l 1
 620 400 l 1
 524 400 l 1
 426 551 l 1
418 612 m 1
 430 611 446 611 462 611 c 0
 513 611 557 623 565 673 c 0
 566 677 566 681 566 685 c 0
 566 725 528 735 481 735 c 0
 465 735 449 734 437 733 c 1
 418 612 l 1
EndSplineSet
PickledDataWithLists: "(dp0
Vcom.fontlab.hintData
p1
(dp2
Vvhints
p3
(lp4
(dp5
Vposition
p6
L90L
sVwidth
p7
L10L
sa(dp8
g6
L140L
sg7
L10L
sa(dp9
g6
L263L
sg7
L10L
sa(dp10
g6
L301L
sg7
L10L
sa(dp11
g6
L303L
sg7
L10L
sa(dp12
g6
L363L
sg7
L10L
sa(dp13
g6
L480L
sg7
L10L
sa(dp14
g6
L544L
sg7
L10L
sa(dp15
g6
L557L
sg7
L10L
sa(dp16
g6
L628L
sg7
L10L
sa(dp17
g6
L677L
sg7
L10L
sa(dp18
g6
L727L
sg7
L10L
sasVhhints
p19
(lp20
(dp21
g6
L319L
sg7
L10L
sa(dp22
g6
L351L
sg7
L10L
sa(dp23
g6
L469L
sg7
L10L
sa(dp24
g6
L596L
sg7
L20L
sa(dp25
g6
L644L
sg7
L10L
sa(dp26
g6
L654L
sg7
L10L
sa(dp27
g6
L725L
sg7
L11L
sa(dp28
g6
L757L
sg7
L10L
sa(dp29
g6
L799L
sg7
L10L
sa(dp30
g6
L919L
sg7
L10L
sa(dp31
g6
L951L
sg7
L10L
sass."
EndChar

StartChar: guillemotleft
Encoding: 109 171 102
GlifName: guillemotleft
Width: 780
VWidth: 0
Flags: HMW
LayerCount: 2
Fore
SplineSet
60 334 m 1
 68 386 l 1
 412 652 l 1
 449 584 l 1
 208 360 l 1
 379 136 l 1
 320 68 l 1
 60 334 l 1
355 334 m 1
 363 386 l 1
 708 652 l 1
 744 584 l 1
 503 360 l 1
 674 136 l 1
 616 68 l 1
 355 334 l 1
EndSplineSet
PickledDataWithLists: "(dp0
Vcom.fontlab.hintData
p1
(dp2
Vvhints
p3
(lp4
(dp5
Vposition
p6
L66L
sVwidth
p7
L10L
sa(dp8
g6
L336L
sg7
L10L
sa(dp9
g6
L356L
sg7
L10L
sa(dp10
g6
L368L
sg7
L10L
sa(dp11
g6
L626L
sg7
L10L
sa(dp12
g6
L638L
sg7
L10L
sasVhhints
p13
(lp14
(dp15
g6
L65L
sg7
L10L
sa(dp16
g6
L605L
sg7
L10L
sass."
EndChar

StartChar: guillemotright
Encoding: 125 187 103
GlifName: guillemotright
Width: 780
VWidth: 0
Flags: HMW
LayerCount: 2
Fore
SplineSet
714 386 m 1
 706 334 l 1
 362 68 l 1
 325 136 l 1
 566 360 l 1
 395 584 l 1
 454 652 l 1
 714 386 l 1
419 386 m 1
 411 334 l 1
 66 68 l 1
 30 136 l 1
 271 360 l 1
 100 584 l 1
 158 652 l 1
 419 386 l 1
EndSplineSet
PickledDataWithLists: "(dp0
Vcom.fontlab.hintData
p1
(dp2
Vvhints
p3
(lp4
(dp5
Vposition
p6
L72L
sVwidth
p7
L10L
sa(dp8
g6
L84L
sg7
L10L
sa(dp9
g6
L342L
sg7
L10L
sa(dp10
g6
L354L
sg7
L10L
sa(dp11
g6
L374L
sg7
L10L
sa(dp12
g6
L644L
sg7
L10L
sasVhhints
p13
(lp14
(dp15
g6
L64L
sg7
L10L
sa(dp16
g6
L605L
sg7
L10L
sass."
EndChar

StartChar: uni2010
Encoding: 704 8208 111
GlifName: uni2010
Width: 600
VWidth: 0
Flags: HMW
LayerCount: 2
Fore
SplineSet
87 412 m 1
 523 412 l 1
 507 308 l 1
 71 308 l 1
 87 412 l 1
EndSplineSet
PickledDataWithLists: "(dp0
Vcom.fontlab.hintData
p1
(dp2
Vvhints
p3
(lp4
(dp5
Vposition
p6
L75L
sVwidth
p7
L10L
sa(dp8
g6
L514L
sg7
L10L
sasVhhints
p9
(lp10
(dp11
g6
L301L
sg7
L10L
sa(dp12
g6
L363L
sg7
L10L
sa(dp13
g6
L371L
sg7
L10L
sass."
EndChar

StartChar: uni2011
Encoding: 705 8209 112
GlifName: uni2011
Width: 600
VWidth: 0
Flags: HMW
LayerCount: 2
Fore
SplineSet
87 412 m 1
 523 412 l 1
 507 308 l 1
 71 308 l 1
 87 412 l 1
EndSplineSet
PickledDataWithLists: "(dp0
Vcom.fontlab.hintData
p1
(dp2
Vvhints
p3
(lp4
(dp5
Vposition
p6
L75L
sVwidth
p7
L10L
sa(dp8
g6
L514L
sg7
L10L
sasVhhints
p9
(lp10
(dp11
g6
L301L
sg7
L10L
sa(dp12
g6
L363L
sg7
L10L
sa(dp13
g6
L371L
sg7
L10L
sass."
EndChar

StartChar: figuredash
Encoding: 706 8210 113
GlifName: figuredash
Width: 660
VWidth: 0
Flags: HMW
LayerCount: 2
Fore
SplineSet
87 412 m 1
 583 412 l 1
 567 308 l 1
 71 308 l 1
 87 412 l 1
EndSplineSet
PickledDataWithLists: "(dp0
Vcom.fontlab.hintData
p1
(dp2
Vvhints
p3
(lp4
(dp5
Vposition
p6
L105L
sVwidth
p7
L10L
sa(dp8
g6
L604L
sg7
L10L
sasVhhints
p9
(lp10
(dp11
g6
L301L
sg7
L10L
sa(dp12
g6
L364L
sg7
L10L
sa(dp13
g6
L371L
sg7
L10L
sass."
EndChar

StartChar: uni2015
Encoding: 709 8213 114
GlifName: uni2015
Width: 1200
VWidth: 0
Flags: HMW
LayerCount: 2
Fore
SplineSet
87 412 m 1
 1123 412 l 1
 1107 308 l 1
 71 308 l 1
 87 412 l 1
EndSplineSet
PickledDataWithLists: "(dp0
Vcom.fontlab.hintData
p1
(dp2
Vvhints
p3
(lp4
(dp5
Vposition
p6
L90L
sVwidth
p7
L10L
sa(dp8
g6
L1099L
sg7
L10L
sasVhhints
p9
(lp10
(dp11
g6
L299L
sg7
L10L
sa(dp12
g6
L304L
sg7
L10L
sa(dp13
g6
L309L
sg7
L10L
sa(dp14
g6
L361L
sg7
L10L
sa(dp15
g6
L366L
sg7
L10L
sa(dp16
g6
L371L
sg7
L10L
sass."
EndChar

StartChar: endash
Encoding: 707 8211 115
GlifName: endash
Width: 660
VWidth: 0
Flags: HMW
LayerCount: 2
Fore
SplineSet
87 412 m 1
 583 412 l 1
 567 308 l 1
 71 308 l 1
 87 412 l 1
EndSplineSet
PickledDataWithLists: "(dp0
Vcom.fontlab.hintData
p1
(dp2
Vvhints
p3
(lp4
(dp5
Vposition
p6
L75L
sVwidth
p7
L10L
sa(dp8
g6
L574L
sg7
L10L
sasVhhints
p9
(lp10
(dp11
g6
L301L
sg7
L10L
sa(dp12
g6
L364L
sg7
L10L
sa(dp13
g6
L371L
sg7
L10L
sass."
EndChar

StartChar: emdash
Encoding: 708 8212 116
GlifName: emdash
Width: 1200
VWidth: 0
Flags: HMW
LayerCount: 2
Fore
SplineSet
87 412 m 1
 1123 412 l 1
 1107 308 l 1
 71 308 l 1
 87 412 l 1
EndSplineSet
PickledDataWithLists: "(dp0
Vcom.fontlab.hintData
p1
(dp2
Vvhints
p3
(lp4
(dp5
Vposition
p6
L90L
sVwidth
p7
L10L
sa(dp8
g6
L1099L
sg7
L10L
sasVhhints
p9
(lp10
(dp11
g6
L299L
sg7
L10L
sa(dp12
g6
L304L
sg7
L10L
sa(dp13
g6
L309L
sg7
L10L
sa(dp14
g6
L361L
sg7
L10L
sa(dp15
g6
L366L
sg7
L10L
sa(dp16
g6
L371L
sg7
L10L
sass."
EndChar

StartChar: quoteleft
Encoding: 710 8216 117
GlifName: quoteleft
Width: 330
VWidth: 0
Flags: HMW
LayerCount: 2
Fore
SplineSet
294 637 m 0
 286 588 247 552 192 552 c 0
 130 552 107 596 107 645 c 0
 107 654 108 662 109 671 c 0
 127 787 219 871 296 915 c 1
 329 859 l 1
 280 831 233 783 210 714 c 1
 214 714 219 715 223 715 c 0
 265 715 295 691 295 651 c 0
 295 646 295 642 294 637 c 0
EndSplineSet
PickledDataWithLists: "(dp0
Vcom.fontlab.hintData
p1
(dp2
Vvhints
p3
(lp4
(dp5
Vposition
p6
L69L
sVwidth
p7
L10L
sa(dp8
g6
L150L
sg7
L10L
sa(dp9
g6
L255L
sg7
L10L
sasVhhints
p10
(lp11
(dp12
g6
L533L
sg7
L10L
sa(dp13
g6
L602L
sg7
L10L
sa(dp14
g6
L832L
sg7
L10L
sass."
EndChar

StartChar: quoteright
Encoding: 711 8217 118
GlifName: quoteright
Width: 330
VWidth: 0
Flags: HMW
LayerCount: 2
Fore
SplineSet
146 813 m 0
 154 862 192 898 247 898 c 0
 309 898 332 854 332 805 c 0
 332 796 331 788 330 779 c 0
 312 663 221 579 144 535 c 1
 111 591 l 1
 160 619 207 667 230 736 c 1
 226 736 220 735 216 735 c 0
 174 735 145 759 145 798 c 0
 145 803 145 808 146 813 c 0
EndSplineSet
PickledDataWithLists: "(dp0
Vcom.fontlab.hintData
p1
(dp2
Vvhints
p3
(lp4
(dp5
Vposition
p6
L61L
sVwidth
p7
L10L
sa(dp8
g6
L170L
sg7
L10L
sa(dp9
g6
L251L
sg7
L10L
sasVhhints
p10
(lp11
(dp12
g6
L538L
sg7
L10L
sa(dp13
g6
L768L
sg7
L10L
sa(dp14
g6
L837L
sg7
L10L
sass."
EndChar

StartChar: quotedblleft
Encoding: 712 8220 119
GlifName: quotedblleft
Width: 570
VWidth: 0
Flags: HMW
LayerCount: 2
Fore
SplineSet
299 637 m 0
 291 588 252 552 197 552 c 0
 135 552 112 596 112 645 c 0
 112 654 113 662 114 671 c 0
 132 787 224 871 301 915 c 1
 334 859 l 1
 285 831 238 783 215 714 c 1
 219 714 224 715 228 715 c 0
 270 715 300 691 300 651 c 0
 300 646 300 642 299 637 c 0
529 637 m 0
 521 588 482 552 427 552 c 0
 365 552 342 596 342 645 c 0
 342 654 343 662 344 671 c 0
 362 787 454 871 531 915 c 1
 564 859 l 1
 515 831 468 783 445 714 c 1
 449 714 454 715 458 715 c 0
 500 715 530 691 530 651 c 0
 530 646 530 642 529 637 c 0
EndSplineSet
PickledDataWithLists: "(dp0
Vcom.fontlab.hintData
p1
(dp2
Vvhints
p3
(lp4
(dp5
Vposition
p6
L69L
sVwidth
p7
L10L
sa(dp8
g6
L150L
sg7
L10L
sa(dp9
g6
L255L
sg7
L10L
sa(dp10
g6
L309L
sg7
L10L
sa(dp11
g6
L390L
sg7
L10L
sa(dp12
g6
L495L
sg7
L10L
sasVhhints
p13
(lp14
(dp15
g6
L533L
sg7
L10L
sa(dp16
g6
L602L
sg7
L10L
sa(dp17
g6
L832L
sg7
L10L
sass."
EndChar

StartChar: quotedblright
Encoding: 713 8221 120
GlifName: quotedblright
Width: 570
VWidth: 0
Flags: HMW
LayerCount: 2
Fore
SplineSet
151 813 m 0
 159 862 197 898 252 898 c 0
 314 898 337 854 337 805 c 0
 337 796 336 788 335 779 c 0
 317 663 226 579 149 535 c 1
 116 591 l 1
 165 619 212 667 235 736 c 1
 231 736 225 735 221 735 c 0
 179 735 150 759 150 798 c 0
 150 803 150 808 151 813 c 0
381 813 m 0
 389 862 427 898 482 898 c 0
 544 898 567 854 567 805 c 0
 567 796 566 788 565 779 c 0
 547 663 456 579 379 535 c 1
 346 591 l 1
 395 619 442 667 465 736 c 1
 461 736 455 735 451 735 c 0
 409 735 380 759 380 798 c 0
 380 803 380 808 381 813 c 0
EndSplineSet
PickledDataWithLists: "(dp0
Vcom.fontlab.hintData
p1
(dp2
Vvhints
p3
(lp4
(dp5
Vposition
p6
L61L
sVwidth
p7
L10L
sa(dp8
g6
L170L
sg7
L10L
sa(dp9
g6
L251L
sg7
L10L
sa(dp10
g6
L301L
sg7
L10L
sa(dp11
g6
L410L
sg7
L10L
sa(dp12
g6
L491L
sg7
L10L
sasVhhints
p13
(lp14
(dp15
g6
L538L
sg7
L10L
sa(dp16
g6
L768L
sg7
L10L
sa(dp17
g6
L837L
sg7
L10L
sass."
EndChar

StartChar: bullet
Encoding: 718 8226 121
GlifName: bullet
Width: 660
VWidth: 0
Flags: HMW
LayerCount: 2
Fore
SplineSet
191 360 m 0
 203 438 270 486 347 486 c 0
 416 486 465 447 465 382 c 0
 465 375 464 368 463 360 c 0
 451 282 384 234 307 234 c 0
 238 234 189 273 189 338 c 0
 189 345 190 352 191 360 c 0
EndSplineSet
PickledDataWithLists: "(dp0
Vcom.fontlab.hintData
p1
(dp2
Vvhints
p3
(lp4
(dp5
Vposition
p6
L231L
sVwidth
p7
L10L
sa(dp8
g6
L479L
sg7
L10L
sasVhhints
p9
(lp10
(dp11
g6
L234L
sg7
L10L
sa(dp12
g6
L456L
sg7
L10L
sass."
EndChar

StartChar: ellipsis
Encoding: 720 8230 122
GlifName: ellipsis
Width: 870
VWidth: 0
GlyphClass: 3
Flags: HMW
LayerCount: 2
Fore
SplineSet
130 157 m 0
 175 157 206 131 206 90 c 0
 206 85 206 81 205 76 c 0
 197 26 154 -5 104 -5 c 0
 59 -5 28 21 28 62 c 0
 28 67 28 71 29 76 c 0
 37 126 80 157 130 157 c 0
400 157 m 0
 445 157 476 131 476 90 c 0
 476 85 476 81 475 76 c 0
 467 26 424 -5 374 -5 c 0
 329 -5 298 21 298 62 c 0
 298 67 298 71 299 76 c 0
 307 126 350 157 400 157 c 0
670 157 m 0
 715 157 746 131 746 90 c 0
 746 85 746 81 745 76 c 0
 737 26 694 -5 644 -5 c 0
 599 -5 568 21 568 62 c 0
 568 67 568 71 569 76 c 0
 577 126 620 157 670 157 c 0
EndSplineSet
PickledDataWithLists: "(dp0
Vcom.fontlab.hintData
p1
(dp2
Vvhints
p3
(lp4
(dp5
Vposition
p6
L60L
sVwidth
p7
L10L
sa(dp8
g6
L200L
sg7
L10L
sa(dp9
g6
L285L
sg7
L10L
sa(dp10
g6
L425L
sg7
L10L
sa(dp11
g6
L510L
sg7
L10L
sa(dp12
g6
L650L
sg7
L10L
sasVhhints
p13
(lp14
(dp15
g6
L2L
sg7
L10L
sa(dp16
g6
L115L
sg7
L10L
sass."
Ligature2: "Latin.liga subtable" period uni200D period uni200D period
Ligature2: "Latin.liga subtable" period period period
EndChar

StartChar: Euro
Encoding: 756 8364 124
GlifName: E_uro
Width: 660
VWidth: 0
Flags: HMW
LayerCount: 2
Fore
SplineSet
14 426 m 1
 27 504 l 1
 109 504 l 1
 151 652 246 800 441 800 c 0
 618 800 661 663 661 589 c 0
 661 588 661 587 661 586 c 1
 523 574 l 1
 523 575 523 576 523 577 c 0
 523 638 487 696 424 696 c 0
 351 696 286 629 247 504 c 1
 497 504 l 1
 484 426 l 1
 227 426 l 1
 226 419 225 413 224 406 c 2
 219 374 l 2
 218 367 217 361 216 354 c 1
 473 354 l 1
 461 276 l 1
 211 276 l 1
 211 275 211 273 211 272 c 0
 211 150 255 84 327 84 c 0
 391 84 446 144 465 206 c 1
 599 194 l 1
 576 121 490 -20 311 -20 c 0
 123 -20 73 117 73 259 c 0
 73 265 73 270 73 276 c 1
 -9 276 l 1
 3 354 l 1
 79 354 l 1
 80 361 81 367 82 374 c 2
 87 406 l 2
 88 413 89 419 90 426 c 1
 14 426 l 1
EndSplineSet
PickledDataWithLists: "(dp0
Vcom.fontlab.hintData
p1
(dp2
Vvhints
p3
(lp4
(dp5
Vposition
p6
L21L
sVwidth
p7
L10L
sa(dp8
g6
L115L
sg7
L10L
sa(dp9
g6
L203L
sg7
L10L
sa(dp10
g6
L484L
sg7
L10L
sa(dp11
g6
L659L
sg7
L10L
sasVhhints
p12
(lp13
(dp14
g6
L-15L
sg7
L10L
sa(dp15
g6
L48L
sg7
L9L
sa(dp16
g6
L165L
sg7
L10L
sa(dp17
g6
L268L
sg7
L10L
sa(dp18
g6
L323L
sg7
L10L
sa(dp19
g6
L448L
sg7
L10L
sa(dp20
g6
L453L
sg7
L10L
sa(dp21
g6
L503L
sg7
L10L
sa(dp22
g6
L590L
sg7
L10L
sa(dp23
g6
L745L
sg7
L10L
sa(dp24
g6
L806L
sg7
L10L
sass."
EndChar

StartChar: trademark
Encoding: 767 8482 125
GlifName: trademark
Width: 765
VWidth: 0
Flags: HMW
LayerCount: 2
Fore
SplineSet
83 838 m 1
 93 900 l 1
 388 900 l 1
 378 838 l 1
 273 838 l 1
 221 510 l 1
 136 510 l 1
 188 838 l 1
 83 838 l 1
743 510 m 1
 659 510 l 1
 696 743 l 1
 596 608 l 1
 556 608 l 1
 500 743 l 1
 463 510 l 1
 379 510 l 1
 439 892 l 1
 511 900 l 1
 590 694 l 1
 735 900 l 1
 803 892 l 1
 743 510 l 1
EndSplineSet
PickledDataWithLists: "(dp0
Vcom.fontlab.hintData
p1
(dp2
Vvhints
p3
(lp4
(dp5
Vposition
p6
L39L
sVwidth
p7
L10L
sa(dp8
g6
L180L
sg7
L10L
sa(dp9
g6
L251L
sg7
L10L
sa(dp10
g6
L383L
sg7
L10L
sa(dp11
g6
L421L
sg7
L10L
sa(dp12
g6
L440L
sg7
L10L
sa(dp13
g6
L504L
sg7
L10L
sa(dp14
g6
L735L
sg7
L10L
sa(dp15
g6
L800L
sg7
L10L
sa(dp16
g6
L819L
sg7
L10L
sasVhhints
p17
(lp18
(dp19
g6
L381L
sg7
L10L
sa(dp20
g6
L390L
sg7
L10L
sa(dp21
g6
L395L
sg7
L10L
sa(dp22
g6
L473L
sg7
L10L
sa(dp23
g6
L745L
sg7
L10L
sa(dp24
g6
L751L
sg7
L10L
sa(dp25
g6
L803L
sg7
L10L
sass."
EndChar

StartChar: uni25CC
Encoding: 806 9676 126
GlifName: uni25C_C_
Width: 720
VWidth: 0
GlyphClass: 2
Flags: HMW
AnchorPoint: "LatinCedilla.mark" 320 0 basechar 0
AnchorPoint: "LatinBelow.mark" 300 0 basechar 0
AnchorPoint: "LatinAbove.mark" 300 0 basechar 0
LayerCount: 2
Fore
SplineSet
332 15 m 0
 329 -2 315 -15 298 -15 c 0
 283 -15 272 -4 272 10 c 0
 272 12 272 13 272 15 c 0
 275 32 290 45 307 45 c 0
 322 45 332 34 332 20 c 0
 332 18 332 17 332 15 c 0
423 585 m 0
 420 568 405 555 388 555 c 0
 373 555 363 566 363 580 c 0
 363 582 363 583 363 585 c 0
 366 602 380 615 397 615 c 0
 412 615 423 604 423 590 c 0
 423 588 423 587 423 585 c 0
637 330 m 0
 652 330 663 319 663 305 c 0
 663 303 663 302 663 300 c 0
 660 283 645 270 628 270 c 0
 613 270 603 281 603 295 c 0
 603 297 603 298 603 300 c 0
 606 317 620 330 637 330 c 0
67 330 m 0
 82 330 93 319 93 305 c 0
 93 303 93 302 93 300 c 0
 90 283 75 270 58 270 c 0
 43 270 33 281 33 295 c 0
 33 297 33 298 33 300 c 0
 36 317 50 330 67 330 c 0
107 439 m 0
 122 439 132 428 132 414 c 0
 132 412 132 411 132 409 c 0
 129 392 114 379 97 379 c 0
 82 379 72 390 72 404 c 0
 72 406 72 407 72 409 c 0
 75 426 90 439 107 439 c 0
72 221 m 0
 87 221 97 210 97 196 c 0
 97 194 97 193 97 191 c 0
 94 174 79 161 62 161 c 0
 47 161 37 172 37 186 c 0
 37 188 37 189 37 191 c 0
 40 208 55 221 72 221 c 0
633 439 m 0
 648 439 658 428 658 414 c 0
 658 412 658 411 658 409 c 0
 655 392 640 379 623 379 c 0
 608 379 598 390 598 404 c 0
 598 406 598 407 598 409 c 0
 601 426 616 439 633 439 c 0
598 221 m 0
 613 221 623 210 623 196 c 0
 623 194 623 193 623 191 c 0
 620 174 605 161 588 161 c 0
 573 161 563 172 563 186 c 0
 563 188 563 189 563 191 c 0
 566 208 581 221 598 221 c 0
182 531 m 0
 197 531 207 520 207 506 c 0
 207 504 207 503 207 501 c 0
 204 484 190 471 173 471 c 0
 158 471 147 482 147 496 c 0
 147 498 147 499 147 501 c 0
 150 518 165 531 182 531 c 0
585 531 m 0
 600 531 610 520 610 506 c 0
 610 504 610 503 610 501 c 0
 607 484 593 471 576 471 c 0
 561 471 550 482 550 496 c 0
 550 498 550 499 550 501 c 0
 553 518 568 531 585 531 c 0
118 128 m 0
 133 128 144 117 144 103 c 0
 144 101 144 100 144 98 c 0
 141 81 126 68 109 68 c 0
 94 68 84 79 84 93 c 0
 84 95 84 96 84 98 c 0
 87 115 101 128 118 128 c 0
521 128 m 0
 536 128 547 117 547 103 c 0
 547 101 547 100 547 98 c 0
 544 81 529 68 512 68 c 0
 497 68 487 79 487 93 c 0
 487 95 487 96 487 98 c 0
 490 115 504 128 521 128 c 0
420 67 m 0
 435 67 445 56 445 42 c 0
 445 40 445 39 445 37 c 0
 442 20 427 7 410 7 c 0
 395 7 385 18 385 32 c 0
 385 34 385 35 385 37 c 0
 388 54 403 67 420 67 c 0
202 67 m 0
 217 67 227 56 227 42 c 0
 227 40 227 39 227 37 c 0
 224 20 209 7 192 7 c 0
 177 7 167 18 167 32 c 0
 167 34 167 35 167 37 c 0
 170 54 185 67 202 67 c 0
503 593 m 0
 518 593 528 582 528 568 c 0
 528 566 528 565 528 563 c 0
 525 546 510 533 493 533 c 0
 478 533 468 544 468 558 c 0
 468 560 468 561 468 563 c 0
 471 580 486 593 503 593 c 0
285 593 m 0
 300 593 310 582 310 568 c 0
 310 566 310 565 310 563 c 0
 307 546 292 533 275 533 c 0
 260 533 250 544 250 558 c 0
 250 560 250 561 250 563 c 0
 253 580 268 593 285 593 c 0
EndSplineSet
PickledDataWithLists: "(dp0
Vcom.fontlab.hintData
p1
(dp2
Vvhints
p3
(lp4
(dp5
Vposition
p6
L40L
sVwidth
p7
L10L
sa(dp8
g6
L76L
sg7
L10L
sa(dp9
g6
L90L
sg7
L10L
sa(dp10
g6
L132L
sg7
L10L
sa(dp11
g6
L180L
sg7
L10L
sa(dp12
g6
L238L
sg7
L10L
sa(dp13
g6
L325L
sg7
L10L
sa(dp14
g6
L385L
sg7
L10L
sa(dp15
g6
L472L
sg7
L10L
sa(dp16
g6
L528L
sg7
L10L
sa(dp17
g6
L581L
sg7
L10L
sa(dp18
g6
L620L
sg7
L10L
sa(dp19
g6
L631L
sg7
L10L
sa(dp20
g6
L670L
sg7
L10L
sasVhhints
p21
(lp22
(dp23
g6
L-20L
sg7
L10L
sa(dp24
g6
L16L
sg7
L10L
sa(dp25
g6
L30L
sg7
L10L
sa(dp26
g6
L69L
sg7
L10L
sa(dp27
g6
L122L
sg7
L10L
sa(dp28
g6
L178L
sg7
L10L
sa(dp29
g6
L265L
sg7
L10L
sa(dp30
g6
L325L
sg7
L10L
sa(dp31
g6
L410L
sg7
L10L
sa(dp32
g6
L468L
sg7
L10L
sa(dp33
g6
L518L
sg7
L10L
sa(dp34
g6
L560L
sg7
L10L
sa(dp35
g6
L574L
sg7
L10L
sa(dp36
g6
L610L
sg7
L10L
sass."
Colour: ff00
EndChar

StartChar: uni0E01
Encoding: 401 3585 127
GlifName: uni0E_01
Width: 655
VWidth: 0
GlyphClass: 2
Flags: HMW
LayerCount: 2
Fore
SplineSet
33 0 m 1
 79 292 l 2
 87 340 117 374 162 389 c 1
 48 412 l 1
 79 516 185 620 353 620 c 0
 503 620 594 541 594 429 c 0
 594 418 593 407 591 395 c 2
 528 0 l 1
 400 0 l 1
 463 395 l 2
 464 405 465 414 465 422 c 0
 465 494 414 525 338 525 c 0
 270 525 221 494 191 440 c 1
 322 411 l 1
 300 358 l 2
 299 358 281 362 267 362 c 0
 229 362 214 337 209 305 c 2
 161 0 l 1
 33 0 l 1
EndSplineSet
PickledDataWithLists: "(dp0
Vcom.fontlab.hintData
p1
(dp2
Vvhints
p3
(lp4
(dp5
Vposition
p6
L91L
sVwidth
p7
L10L
sa(dp8
g6
L105L
sg7
L10L
sa(dp9
g6
L179L
sg7
L10L
sa(dp10
g6
L193L
sg7
L10L
sa(dp11
g6
L467L
sg7
L10L
sa(dp12
g6
L476L
sg7
L10L
sa(dp13
g6
L559L
sg7
L10L
sa(dp14
g6
L564L
sg7
L10L
sasVhhints
p15
(lp16
(dp17
g6
L-16L
sg7
L10L
sa(dp18
g6
L4L
sg7
L10L
sa(dp19
g6
L544L
sg7
L10L
sa(dp20
g6
L606L
sg7
L10L
sass."
EndChar

StartChar: uni0E02
Encoding: 402 3586 128
GlifName: uni0E_02
Width: 635
VWidth: 0
GlyphClass: 2
Flags: HMW
LayerCount: 2
Fore
SplineSet
140 512 m 0
 116 512 100 495 96 472 c 0
 95 469 95 466 95 463 c 0
 95 445 106 432 127 432 c 0
 151 432 168 449 172 472 c 0
 173 475 173 477 173 480 c 0
 173 499 161 512 140 512 c 0
23 472 m 0
 35 547 110 614 231 614 c 0
 339 614 398 561 398 485 c 0
 398 477 397 469 396 460 c 0
 374 321 220 279 202 163 c 0
 201 157 201 152 201 147 c 0
 201 99 238 75 287 75 c 0
 340 75 391 102 403 180 c 2
 469 600 l 1
 598 600 l 1
 532 180 l 2
 515 70 415 -20 272 -20 c 0
 142 -20 70 43 70 128 c 0
 70 136 71 145 72 153 c 0
 99 321 283 349 302 468 c 0
 303 473 303 478 303 483 c 0
 303 523 275 545 222 549 c 1
 238 534 246 514 246 489 c 0
 246 483 246 478 245 472 c 0
 235 410 181 370 118 370 c 0
 61 370 22 402 22 454 c 0
 22 460 22 466 23 472 c 0
EndSplineSet
PickledDataWithLists: "(dp0
Vcom.fontlab.hintData
p1
(dp2
Vvhints
p3
(lp4
(dp5
Vposition
p6
L14L
sVwidth
p7
L10L
sa(dp8
g6
L547L
sg7
L10L
sasVhhints
p9
(lp10
(dp11
g6
L-19L
sg7
L10L
sa(dp12
g6
L432L
sg7
L10L
sa(dp13
g6
L584L
sg7
L10L
sa(dp14
g6
L594L
sg7
L10L
sass."
EndChar

StartChar: uni0E03
Encoding: 403 3587 129
GlifName: uni0E_03
Width: 635
VWidth: 0
GlyphClass: 2
Flags: HMW
LayerCount: 2
Fore
SplineSet
146 548 m 0
 122 548 105 531 101 508 c 0
 100 505 100 503 100 500 c 0
 100 481 112 468 133 468 c 0
 157 468 173 485 177 508 c 0
 178 511 178 514 178 517 c 0
 178 535 167 548 146 548 c 0
156 610 m 0
 213 610 251 578 251 526 c 0
 251 520 251 514 250 508 c 0
 249 500 248 491 245 484 c 1
 279 514 306 557 325 599 c 1
 370 605 l 1
 385 588 401 555 401 508 c 0
 401 497 400 485 398 473 c 0
 376 334 220 279 202 163 c 0
 201 157 201 152 201 147 c 0
 201 99 238 75 287 75 c 0
 340 75 392 103 404 181 c 2
 470 600 l 1
 598 600 l 1
 532 181 l 2
 515 71 415 -20 272 -20 c 0
 142 -20 70 43 70 128 c 0
 70 136 71 145 72 153 c 0
 98 315 274 350 307 475 c 1
 269 429 218 395 139 395 c 0
 67 395 26 432 26 488 c 0
 26 495 27 501 28 508 c 0
 38 570 93 610 156 610 c 0
EndSplineSet
PickledDataWithLists: "(dp0
Vcom.fontlab.hintData
p1
(dp2
Vvhints
p3
(lp4
(dp5
Vposition
p6
L11L
sVwidth
p7
L10L
sa(dp8
g6
L224L
sg7
L10L
sa(dp9
g6
L230L
sg7
L10L
sa(dp10
g6
L297L
sg7
L10L
sasVhhints
p11
(lp12
(dp13
g6
L-24L
sg7
L10L
sa(dp14
g6
L400L
sg7
L10L
sa(dp15
g6
L584L
sg7
L10L
sa(dp16
g6
L603L
sg7
L10L
sass."
EndChar

StartChar: uni0E04
Encoding: 404 3588 130
GlifName: uni0E_04
Width: 665
VWidth: 0
GlyphClass: 2
Flags: HMW
LayerCount: 2
Fore
SplineSet
327 357 m 0
 303 357 286 340 282 317 c 0
 281 314 281 312 281 309 c 0
 281 290 293 277 314 277 c 0
 338 277 354 294 358 317 c 0
 359 320 359 323 359 326 c 0
 359 344 348 357 327 357 c 0
336 419 m 0
 393 419 431 387 431 335 c 0
 431 329 431 323 430 317 c 0
 420 255 367 215 304 215 c 0
 269 215 241 227 224 248 c 1
 203 214 185 167 171 95 c 2
 154 0 l 1
 16 0 l 1
 16 0 38 71 45 117 c 0
 51 156 52 184 52 213 c 0
 52 220 52 228 52 236 c 0
 52 274 53 319 65 395 c 0
 85 523 205 620 368 620 c 0
 516 620 603 540 603 430 c 0
 603 419 602 407 600 395 c 2
 537 0 l 1
 409 0 l 1
 424 95 l 2
 435 162 452 235 477 395 c 0
 479 405 479 415 479 424 c 0
 479 495 428 525 353 525 c 0
 268 525 203 487 188 395 c 0
 180 343 174 304 170 272 c 1
 189 319 216 361 254 390 c 0
 277 408 305 419 336 419 c 0
EndSplineSet
PickledDataWithLists: "(dp0
Vcom.fontlab.hintData
p1
(dp2
Vvhints
p3
(lp4
(dp5
Vposition
p6
L59L
sVwidth
p7
L10L
sa(dp8
g6
L142L
sg7
L10L
sa(dp9
g6
L381L
sg7
L10L
sa(dp10
g6
L439L
sg7
L10L
sa(dp11
g6
L508L
sg7
L10L
sa(dp12
g6
L590L
sg7
L10L
sasVhhints
p13
(lp14
(dp15
g6
L-19L
sg7
L10L
sa(dp16
g6
L-4L
sg7
L10L
sa(dp17
g6
L363L
sg7
L10L
sa(dp18
g6
L551L
sg7
L10L
sa(dp19
g6
L608L
sg7
L10L
sass."
EndChar

StartChar: uni0E05
Encoding: 405 3589 131
GlifName: uni0E_05
Width: 665
VWidth: 0
GlyphClass: 2
Flags: HMW
LayerCount: 2
Fore
SplineSet
327 357 m 0
 303 357 286 340 282 317 c 0
 281 314 281 312 281 309 c 0
 281 290 293 277 314 277 c 0
 338 277 354 294 358 317 c 0
 359 320 359 323 359 326 c 0
 359 344 348 357 327 357 c 0
336 419 m 0
 393 419 431 387 431 335 c 0
 431 329 431 323 430 317 c 0
 420 255 367 215 304 215 c 0
 269 215 241 227 224 248 c 1
 203 214 185 167 171 95 c 2
 154 0 l 1
 16 0 l 1
 16 0 38 71 45 117 c 0
 51 156 52 184 52 213 c 0
 52 220 52 228 52 236 c 0
 52 274 53 319 65 395 c 0
 77 473 123 614 277 614 c 1
 355 537 l 1
 457 614 l 1
 578 614 605 527 605 452 c 0
 605 432 603 412 600 395 c 2
 537 0 l 1
 409 0 l 1
 424 95 l 2
 435 162 452 235 477 395 c 0
 481 419 483 438 483 455 c 0
 483 499 470 520 449 524 c 1
 357 459 l 1
 343 459 l 1
 329 459 l 1
 256 524 l 1
 224 518 197 481 183 395 c 0
 174 338 168 295 166 262 c 1
 186 313 214 359 254 390 c 0
 277 408 305 419 336 419 c 0
EndSplineSet
PickledDataWithLists: "(dp0
Vcom.fontlab.hintData
p1
(dp2
Vvhints
p3
(lp4
(dp5
Vposition
p6
L60L
sVwidth
p7
L10L
sa(dp8
g6
L142L
sg7
L10L
sa(dp9
g6
L444L
sg7
L10L
sa(dp10
g6
L508L
sg7
L10L
sa(dp11
g6
L590L
sg7
L10L
sasVhhints
p12
(lp13
(dp14
g6
L-18L
sg7
L10L
sa(dp15
g6
L-4L
sg7
L10L
sa(dp16
g6
L363L
sg7
L10L
sa(dp17
g6
L469L
sg7
L10L
sa(dp18
g6
L549L
sg7
L10L
sa(dp19
g6
L606L
sg7
L10L
sass."
EndChar

StartChar: uni0E06
Encoding: 406 3590 132
GlifName: uni0E_06
Width: 650
VWidth: 0
GlyphClass: 2
Flags: HMW
LayerCount: 2
Fore
SplineSet
125 132 m 0
 101 132 85 115 81 92 c 0
 80 89 80 86 80 83 c 0
 80 65 91 52 112 52 c 0
 136 52 153 69 157 92 c 0
 158 95 158 97 158 100 c 0
 158 119 146 132 125 132 c 0
156 548 m 0
 132 548 115 531 111 508 c 0
 110 505 110 503 110 500 c 0
 110 481 122 468 143 468 c 0
 167 468 183 485 187 508 c 0
 188 511 188 514 188 517 c 0
 188 535 177 548 156 548 c 0
166 610 m 0
 223 610 261 578 261 526 c 0
 261 520 261 514 260 508 c 0
 259 500 258 491 255 484 c 1
 289 514 316 557 335 599 c 1
 380 605 l 1
 395 588 411 555 411 508 c 0
 411 497 410 485 408 473 c 0
 388 347 260 290 222 195 c 1
 309 184 365 148 405 110 c 1
 408 143 413 178 418 210 c 2
 480 600 l 1
 608 600 l 1
 513 0 l 1
 395 0 l 1
 364 52 314 101 231 118 c 1
 232 110 231 101 230 92 c 0
 220 30 165 -10 102 -10 c 0
 45 -10 7 22 7 74 c 0
 7 80 7 86 8 92 c 0
 15 139 49 173 91 187 c 1
 134 321 287 360 317 475 c 1
 279 429 228 395 149 395 c 0
 77 395 36 432 36 488 c 0
 36 495 37 501 38 508 c 0
 48 570 103 610 166 610 c 0
EndSplineSet
PickledDataWithLists: "(dp0
Vcom.fontlab.hintData
p1
(dp2
Vvhints
p3
(lp4
(dp5
Vposition
p6
L11L
sVwidth
p7
L10L
sa(dp8
g6
L35L
sg7
L10L
sa(dp9
g6
L110L
sg7
L10L
sa(dp10
g6
L239L
sg7
L10L
sa(dp11
g6
L251L
sg7
L10L
sa(dp12
g6
L317L
sg7
L10L
sa(dp13
g6
L325L
sg7
L10L
sa(dp14
g6
L486L
sg7
L10L
sa(dp15
g6
L494L
sg7
L10L
sa(dp16
g6
L566L
sg7
L10L
sa(dp17
g6
L576L
sg7
L10L
sasVhhints
p18
(lp19
(dp20
g6
L-27L
sg7
L10L
sa(dp21
g6
L223L
sg7
L10L
sa(dp22
g6
L277L
sg7
L10L
sa(dp23
g6
L403L
sg7
L10L
sa(dp24
g6
L598L
sg7
L10L
sa(dp25
g6
L608L
sg7
L10L
sass."
EndChar

StartChar: uni0E07
Encoding: 407 3591 133
GlifName: uni0E_07
Width: 525
VWidth: 0
GlyphClass: 2
Flags: HMW
AnchorPoint: "ThaiAbove.mark" 485 0 basechar 0
LayerCount: 2
Fore
SplineSet
332 548 m 0
 308 548 291 531 287 508 c 0
 286 505 286 503 286 500 c 0
 286 481 298 468 319 468 c 0
 343 468 359 485 363 508 c 0
 364 511 364 514 364 517 c 0
 364 535 353 548 332 548 c 0
-7 323 m 1
 83 395 l 1
 296 107 l 1
 293 119 291 134 291 152 c 0
 291 164 292 177 294 190 c 2
 310 292 l 2
 319 351 336 374 350 412 c 1
 337 408 323 406 309 406 c 0
 252 406 213 438 213 490 c 0
 213 496 213 502 214 508 c 0
 224 570 279 610 342 610 c 0
 430 610 473 565 473 495 c 0
 473 485 472 474 470 463 c 0
 461 408 444 353 432 280 c 2
 388 0 l 1
 251 0 l 1
 -7 323 l 1
EndSplineSet
PickledDataWithLists: "(dp0
Vcom.fontlab.hintData
p1
(dp2
Vvhints
p3
(lp4
(dp5
Vposition
p6
L41L
sVwidth
p7
L10L
sa(dp8
g6
L151L
sg7
L10L
sa(dp9
g6
L381L
sg7
L10L
sa(dp10
g6
L469L
sg7
L10L
sasVhhints
p11
(lp12
(dp13
g6
L-26L
sg7
L10L
sa(dp14
g6
L355L
sg7
L10L
sa(dp15
g6
L504L
sg7
L10L
sa(dp16
g6
L549L
sg7
L10L
sa(dp17
g6
L611L
sg7
L10L
sass."
EndChar

StartChar: uni0E08
Encoding: 408 3592 134
GlifName: uni0E_08
Width: 590
VWidth: 0
GlyphClass: 2
Flags: HMW
AnchorPoint: "ThaiBelow.mark" 500 0 basechar 0
LayerCount: 2
Fore
SplineSet
30 427 m 1
 58 523 157 620 313 620 c 0
 451 620 535 547 535 445 c 0
 535 435 534 424 532 413 c 0
 509 266 438 195 421 90 c 2
 407 0 l 1
 270 0 l 1
 273 21 274 41 274 62 c 0
 274 112 266 160 253 194 c 1
 229 170 195 156 158 156 c 0
 101 156 62 188 62 240 c 0
 62 246 62 252 63 258 c 0
 73 320 127 360 190 360 c 0
 291 360 327 264 336 169 c 1
 355 257 386 301 404 413 c 0
 406 422 406 431 406 439 c 0
 406 501 363 525 298 525 c 0
 228 525 177 488 156 418 c 1
 30 427 l 1
168 218 m 0
 192 218 208 235 212 258 c 0
 213 261 213 263 213 266 c 0
 213 285 201 298 180 298 c 0
 156 298 140 281 136 258 c 0
 135 255 135 253 135 250 c 0
 135 231 147 218 168 218 c 0
EndSplineSet
PickledDataWithLists: "(dp0
Vcom.fontlab.hintData
p1
(dp2
Vvhints
p3
(lp4
(dp5
Vposition
p6
L31L
sVwidth
p7
L10L
sa(dp8
g6
L101L
sg7
L10L
sa(dp9
g6
L444L
sg7
L10L
sa(dp10
g6
L529L
sg7
L10L
sasVhhints
p11
(lp12
(dp13
g6
L-11L
sg7
L10L
sa(dp14
g6
L229L
sg7
L10L
sa(dp15
g6
L307L
sg7
L10L
sa(dp16
g6
L429L
sg7
L10L
sa(dp17
g6
L552L
sg7
L9L
sa(dp18
g6
L614L
sg7
L10L
sass."
EndChar

StartChar: uni0E09
Encoding: 409 3593 135
GlifName: uni0E_09
Width: 645
VWidth: 0
GlyphClass: 2
Flags: HMW
LayerCount: 2
Fore
SplineSet
67 0 m 1
 85 111 l 2
 88 130 96 145 106 157 c 1
 59 163 28 194 28 240 c 0
 28 246 28 252 29 258 c 0
 39 320 93 360 156 360 c 0
 213 360 252 328 252 276 c 0
 252 270 252 264 251 258 c 0
 243 208 220 187 212 138 c 2
 207 106 l 1
 256 148 320 188 409 197 c 1
 411 202 413 207 414 212 c 2
 444 405 l 2
 446 415 446 424 446 432 c 0
 446 498 399 525 328 525 c 0
 252 525 198 484 176 410 c 1
 50 420 l 1
 80 520 181 620 343 620 c 0
 487 620 575 545 575 438 c 0
 575 427 574 416 572 405 c 2
 546 238 l 2
 543 216 529 200 513 187 c 1
 546 175 566 147 566 109 c 0
 566 103 566 98 565 92 c 0
 555 30 500 -10 437 -10 c 0
 380 -10 342 22 342 74 c 0
 342 80 342 86 343 92 c 0
 344 100 346 107 348 114 c 1
 280 93 228 47 185 0 c 1
 67 0 l 1
460 132 m 0
 436 132 420 115 416 92 c 0
 415 89 415 86 415 83 c 0
 415 65 426 52 447 52 c 0
 471 52 488 69 492 92 c 0
 493 95 493 97 493 100 c 0
 493 119 481 132 460 132 c 0
146 298 m 0
 122 298 106 281 102 258 c 0
 101 255 101 253 101 250 c 0
 101 231 113 218 134 218 c 0
 158 218 174 235 178 258 c 0
 179 261 179 263 179 266 c 0
 179 285 167 298 146 298 c 0
EndSplineSet
PickledDataWithLists: "(dp0
Vcom.fontlab.hintData
p1
(dp2
Vvhints
p3
(lp4
(dp5
Vposition
p6
L33L
sVwidth
p7
L10L
sa(dp8
g6
L87L
sg7
L10L
sa(dp9
g6
L156L
sg7
L10L
sa(dp10
g6
L410L
sg7
L10L
sa(dp11
g6
L426L
sg7
L10L
sa(dp12
g6
L480L
sg7
L10L
sa(dp13
g6
L498L
sg7
L10L
sa(dp14
g6
L570L
sg7
L10L
sa(dp15
g6
L640L
sg7
L10L
sasVhhints
p16
(lp17
(dp18
g6
L-19L
sg7
L10L
sa(dp19
g6
L29L
sg7
L10L
sa(dp20
g6
L231L
sg7
L10L
sa(dp21
g6
L279L
sg7
L10L
sa(dp22
g6
L318L
sg7
L10L
sa(dp23
g6
L431L
sg7
L10L
sa(dp24
g6
L557L
sg7
L10L
sa(dp25
g6
L616L
sg7
L10L
sass."
EndChar

StartChar: uni0E0A
Encoding: 410 3594 136
GlifName: uni0E_0A_
Width: 640
VWidth: 0
GlyphClass: 2
Flags: HMW
LayerCount: 2
Fore
SplineSet
140 512 m 0
 116 512 100 495 96 472 c 0
 95 469 95 466 95 463 c 0
 95 445 106 432 127 432 c 0
 151 432 168 449 172 472 c 0
 173 475 173 477 173 480 c 0
 173 499 161 512 140 512 c 0
397 489 m 1
 472 502 509 549 523 626 c 1
 651 616 l 1
 638 541 576 481 491 455 c 1
 534 440 561 413 561 374 c 0
 561 370 561 365 560 360 c 2
 532 180 l 2
 515 70 415 -20 272 -20 c 0
 142 -20 70 43 70 128 c 0
 70 136 71 145 72 153 c 0
 99 321 283 349 302 468 c 0
 303 473 303 478 303 483 c 0
 303 523 275 545 222 549 c 1
 238 534 246 514 246 489 c 0
 246 483 246 478 245 472 c 0
 235 410 181 370 118 370 c 0
 61 370 22 402 22 454 c 0
 22 460 22 466 23 472 c 0
 35 547 110 614 231 614 c 0
 337 614 395 563 397 489 c 1
386 421 m 1
 345 312 218 267 202 163 c 0
 201 157 201 152 201 147 c 0
 201 99 238 75 287 75 c 0
 340 75 392 102 404 180 c 2
 432 360 l 2
 433 366 434 371 434 376 c 0
 434 401 420 415 386 421 c 1
EndSplineSet
PickledDataWithLists: "(dp0
Vcom.fontlab.hintData
p1
(dp2
Vvhints
p3
(lp4
(dp5
Vposition
p6
L44L
sVwidth
p7
L10L
sa(dp8
g6
L186L
sg7
L10L
sa(dp9
g6
L197L
sg7
L10L
sa(dp10
g6
L268L
sg7
L10L
sa(dp11
g6
L279L
sg7
L10L
sa(dp12
g6
L473L
sg7
L10L
sa(dp13
g6
L555L
sg7
L10L
sa(dp14
g6
L586L
sg7
L10L
sasVhhints
p15
(lp16
(dp17
g6
L-29L
sg7
L10L
sa(dp18
g6
L29L
sg7
L10L
sa(dp19
g6
L437L
sg7
L10L
sa(dp20
g6
L599L
sg7
L10L
sa(dp21
g6
L644L
sg7
L10L
sass."
EndChar

StartChar: uni0E0B
Encoding: 411 3595 137
GlifName: uni0E_0B_
Width: 640
VWidth: 0
GlyphClass: 2
Flags: HMW
LayerCount: 2
Fore
SplineSet
146 548 m 0
 122 548 105 531 101 508 c 0
 100 505 100 503 100 500 c 0
 100 481 112 468 133 468 c 0
 157 468 173 485 177 508 c 0
 178 511 178 514 178 517 c 0
 178 535 167 548 146 548 c 0
156 610 m 0
 213 610 251 578 251 526 c 0
 251 520 251 514 250 508 c 0
 249 500 248 491 245 484 c 1
 279 514 306 557 325 599 c 1
 370 605 l 1
 385 588 401 555 401 509 c 0
 401 503 401 496 400 490 c 1
 474 503 509 550 523 626 c 1
 651 616 l 1
 638 541 576 481 491 455 c 1
 534 440 561 413 561 374 c 0
 561 370 561 365 560 360 c 2
 532 181 l 2
 515 71 415 -20 272 -20 c 0
 142 -20 70 43 70 128 c 0
 70 136 71 145 72 153 c 0
 98 315 274 350 307 475 c 1
 269 429 218 395 139 395 c 0
 67 395 26 432 26 488 c 0
 26 495 27 501 28 508 c 0
 38 570 93 610 156 610 c 0
432 360 m 2
 433 366 433 371 433 376 c 0
 433 402 419 417 383 422 c 1
 338 319 218 264 202 163 c 0
 201 157 201 152 201 147 c 0
 201 99 238 75 287 75 c 0
 340 75 392 103 404 181 c 2
 432 360 l 2
EndSplineSet
PickledDataWithLists: "(dp0
Vcom.fontlab.hintData
p1
(dp2
Vvhints
p3
(lp4
(dp5
Vposition
p6
L11L
sVwidth
p7
L10L
sa(dp8
g6
L199L
sg7
L10L
sa(dp9
g6
L226L
sg7
L10L
sa(dp10
g6
L278L
sg7
L10L
sa(dp11
g6
L296L
sg7
L10L
sa(dp12
g6
L474L
sg7
L10L
sa(dp13
g6
L556L
sg7
L10L
sa(dp14
g6
L586L
sg7
L10L
sasVhhints
p15
(lp16
(dp17
g6
L-24L
sg7
L10L
sa(dp18
g6
L34L
sg7
L10L
sa(dp19
g6
L398L
sg7
L10L
sa(dp20
g6
L603L
sg7
L10L
sa(dp21
g6
L608L
sg7
L10L
sa(dp22
g6
L644L
sg7
L10L
sass."
EndChar

StartChar: uni0E0C
Encoding: 412 3596 138
GlifName: uni0E_0C_
Width: 950
VWidth: 0
GlyphClass: 2
Flags: HMW
LayerCount: 2
Fore
SplineSet
452 132 m 0
 428 132 412 115 408 92 c 0
 407 89 407 86 407 83 c 0
 407 65 418 52 439 52 c 0
 463 52 480 69 484 92 c 0
 485 95 485 97 485 100 c 0
 485 119 473 132 452 132 c 0
154 132 m 0
 130 132 114 115 110 92 c 0
 109 89 109 86 109 83 c 0
 109 65 120 52 141 52 c 0
 165 52 182 69 186 92 c 0
 187 95 187 97 187 100 c 0
 187 119 175 132 154 132 c 0
445 193 m 1
 440 202 437 214 437 227 c 0
 437 231 437 236 438 240 c 2
 463 395 l 2
 464 405 465 414 465 422 c 0
 465 494 414 525 338 525 c 0
 270 525 221 495 191 440 c 1
 322 411 l 1
 300 358 l 2
 299 358 281 362 267 362 c 0
 229 362 214 337 209 305 c 2
 199 240 l 2
 196 221 189 206 180 193 c 1
 228 188 260 157 260 110 c 0
 260 104 260 98 259 92 c 0
 249 30 194 -10 131 -10 c 0
 74 -10 36 22 36 74 c 0
 36 80 36 86 37 92 c 0
 44 139 59 164 66 210 c 2
 79 292 l 2
 87 340 117 374 162 389 c 1
 48 412 l 1
 79 516 185 620 353 620 c 0
 503 620 594 541 594 429 c 0
 594 418 593 407 591 395 c 2
 562 212 l 2
 561 205 559 198 559 192 c 1
 630 180 675 147 706 110 c 1
 709 143 714 178 719 210 c 2
 781 600 l 1
 909 600 l 1
 814 0 l 1
 696 0 l 1
 667 51 631 99 559 116 c 1
 559 109 558 101 557 92 c 0
 547 30 492 -10 429 -10 c 0
 372 -10 334 22 334 74 c 0
 334 80 334 86 335 92 c 0
 344 148 390 186 445 193 c 1
EndSplineSet
PickledDataWithLists: "(dp0
Vcom.fontlab.hintData
p1
(dp2
Vvhints
p3
(lp4
(dp5
Vposition
p6
L84L
sVwidth
p7
L10L
sa(dp8
g6
L93L
sg7
L10L
sa(dp9
g6
L114L
sg7
L10L
sa(dp10
g6
L166L
sg7
L10L
sa(dp11
g6
L196L
sg7
L10L
sa(dp12
g6
L343L
sg7
L10L
sa(dp13
g6
L414L
sg7
L10L
sa(dp14
g6
L502L
sg7
L10L
sa(dp15
g6
L507L
sg7
L10L
sa(dp16
g6
L576L
sg7
L10L
sa(dp17
g6
L780L
sg7
L10L
sa(dp18
g6
L789L
sg7
L10L
sa(dp19
g6
L861L
sg7
L10L
sa(dp20
g6
L871L
sg7
L10L
sasVhhints
p21
(lp22
(dp23
g6
L-26L
sg7
L10L
sa(dp24
g6
L-17L
sg7
L10L
sa(dp25
g6
L41L
sg7
L10L
sa(dp26
g6
L234L
sg7
L10L
sa(dp27
g6
L286L
sg7
L10L
sa(dp28
g6
L546L
sg7
L10L
sa(dp29
g6
L593L
sg7
L10L
sa(dp30
g6
L604L
sg7
L10L
sass."
EndChar

StartChar: uni0E0D
Encoding: 413 3597 139
GlifName: uni0E_0D_
Width: 950
VWidth: 0
GlyphClass: 2
Flags: HMW
LayerCount: 2
Fore
SplineSet
154 132 m 0
 130 132 114 115 110 92 c 0
 109 89 109 86 109 83 c 0
 109 65 120 52 141 52 c 0
 165 52 182 69 186 92 c 0
 187 95 187 97 187 100 c 0
 187 119 175 132 154 132 c 0
353 620 m 0
 503 620 594 541 594 429 c 0
 594 418 593 407 591 395 c 2
 554 164 l 2
 553 156 552 149 552 142 c 0
 552 92 585 75 622 75 c 0
 664 75 706 97 717 164 c 2
 786 600 l 1
 914 600 l 1
 845 164 l 2
 829 65 739 -20 607 -20 c 0
 488 -20 424 49 424 135 c 0
 424 145 424 154 426 164 c 2
 463 395 l 2
 464 405 465 414 465 422 c 0
 465 494 414 525 338 525 c 0
 270 525 221 495 191 440 c 1
 322 411 l 1
 300 358 l 2
 299 358 281 362 267 362 c 0
 229 362 214 337 209 305 c 2
 199 240 l 2
 196 221 189 206 180 193 c 1
 228 188 260 157 260 110 c 0
 260 104 260 98 259 92 c 0
 249 30 194 -10 131 -10 c 0
 74 -10 36 22 36 74 c 0
 36 80 36 86 37 92 c 0
 44 139 59 164 66 210 c 2
 79 292 l 2
 87 340 117 374 162 389 c 1
 48 412 l 1
 79 516 185 620 353 620 c 0
489 -117 m 0
 469 -117 454 -131 451 -150 c 0
 451 -152 451 -154 451 -156 c 0
 451 -172 461 -183 479 -183 c 0
 499 -183 514 -169 517 -150 c 0
 517 -148 517 -146 517 -144 c 0
 517 -128 507 -117 489 -117 c 0
498 -62 m 0
 546 -62 580 -89 580 -134 c 0
 580 -139 580 -144 579 -150 c 0
 576 -171 567 -188 555 -202 c 1
 558 -202 561 -202 564 -202 c 2
 579 -202 l 2
 637 -202 686 -175 701 -78 c 1
 794 -88 l 1
 777 -195 693 -262 587 -262 c 2
 522 -262 l 2
 440 -262 388 -228 388 -168 c 0
 388 -162 388 -156 389 -150 c 0
 398 -96 444 -62 498 -62 c 0
EndSplineSet
PickledDataWithLists: "(dp0
Vcom.fontlab.hintData
p1
(dp2
Vvhints
p3
(lp4
(dp5
Vposition
p6
L81L
sVwidth
p7
L10L
sa(dp8
g6
L101L
sg7
L10L
sa(dp9
g6
L169L
sg7
L10L
sa(dp10
g6
L189L
sg7
L10L
sa(dp11
g6
L315L
sg7
L10L
sa(dp12
g6
L471L
sg7
L10L
sa(dp13
g6
L476L
sg7
L10L
sa(dp14
g6
L513L
sg7
L10L
sa(dp15
g6
L559L
sg7
L10L
sa(dp16
g6
L564L
sg7
L10L
sa(dp17
g6
L591L
sg7
L10L
sa(dp18
g6
L771L
sg7
L10L
sa(dp19
g6
L781L
sg7
L10L
sa(dp20
g6
L859L
sg7
L10L
sa(dp21
g6
L869L
sg7
L10L
sa(dp22
g6
L879L
sg7
L10L
sasVhhints
p23
(lp24
(dp25
g6
L-252L
sg7
L10L
sa(dp26
g6
L-197L
sg7
L10L
sa(dp27
g6
L-98L
sg7
L10L
sa(dp28
g6
L-19L
sg7
L10L
sa(dp29
g6
L43L
sg7
L10L
sa(dp30
g6
L56L
sg7
L10L
sa(dp31
g6
L544L
sg7
L10L
sa(dp32
g6
L595L
sg7
L10L
sa(dp33
g6
L606L
sg7
L10L
sass."
Substitution2: "ThaiRC.rd subtable" uni0E0D.rd
Colour: ff00ff
EndChar

StartChar: uni0E0D.rd
Encoding: 832 63642 140
GlifName: uni0E_0D_.rd
Width: 950
VWidth: 0
GlyphClass: 2
Flags: HMW
LayerCount: 2
Fore
SplineSet
154 132 m 0
 130 132 114 115 110 92 c 0
 109 89 109 86 109 83 c 0
 109 65 120 52 141 52 c 0
 165 52 182 69 186 92 c 0
 187 95 187 97 187 100 c 0
 187 119 175 132 154 132 c 0
353 620 m 0
 503 620 594 541 594 429 c 0
 594 418 593 407 591 395 c 2
 554 164 l 2
 553 156 552 149 552 142 c 0
 552 92 585 75 622 75 c 0
 664 75 706 97 717 164 c 2
 786 600 l 1
 914 600 l 1
 845 164 l 2
 829 65 739 -20 607 -20 c 0
 488 -20 424 49 424 135 c 0
 424 145 424 154 426 164 c 2
 463 395 l 2
 464 405 465 414 465 422 c 0
 465 494 414 525 338 525 c 0
 270 525 221 495 191 440 c 1
 322 411 l 1
 300 358 l 2
 299 358 281 362 267 362 c 0
 229 362 214 337 209 305 c 2
 199 240 l 2
 196 221 189 206 180 193 c 1
 228 188 260 157 260 110 c 0
 260 104 260 98 259 92 c 0
 249 30 194 -10 131 -10 c 0
 74 -10 36 22 36 74 c 0
 36 80 36 86 37 92 c 0
 44 139 59 164 66 210 c 2
 79 292 l 2
 87 340 117 374 162 389 c 1
 48 412 l 1
 79 516 185 620 353 620 c 0
EndSplineSet
PickledDataWithLists: "(dp0
Vcom.fontlab.hintData
p1
(dp2
Vvhints
p3
(lp4
(dp5
Vposition
p6
L81L
sVwidth
p7
L10L
sa(dp8
g6
L101L
sg7
L10L
sa(dp9
g6
L169L
sg7
L10L
sa(dp10
g6
L189L
sg7
L10L
sa(dp11
g6
L315L
sg7
L10L
sa(dp12
g6
L471L
sg7
L10L
sa(dp13
g6
L476L
sg7
L10L
sa(dp14
g6
L559L
sg7
L10L
sa(dp15
g6
L564L
sg7
L10L
sa(dp16
g6
L771L
sg7
L10L
sa(dp17
g6
L781L
sg7
L10L
sa(dp18
g6
L859L
sg7
L10L
sa(dp19
g6
L869L
sg7
L10L
sasVhhints
p20
(lp21
(dp22
g6
L-19L
sg7
L10L
sa(dp23
g6
L43L
sg7
L10L
sa(dp24
g6
L56L
sg7
L10L
sa(dp25
g6
L544L
sg7
L10L
sa(dp26
g6
L595L
sg7
L10L
sa(dp27
g6
L606L
sg7
L10L
sass."
EndChar

StartChar: uni0E0E
Encoding: 414 3598 141
GlifName: uni0E_0E_
Width: 665
VWidth: 0
GlyphClass: 2
Flags: HMW
LayerCount: 2
Fore
SplineSet
109 132 m 0
 85 132 69 115 65 92 c 0
 64 89 64 86 64 83 c 0
 64 65 75 52 96 52 c 0
 120 52 137 69 141 92 c 0
 142 95 142 97 142 100 c 0
 142 119 130 132 109 132 c 0
363 620 m 0
 513 620 604 541 604 429 c 0
 604 418 603 407 601 395 c 2
 527 -70 l 1
 501 -235 l 1
 386 -235 l 1
 343 -200 282 -164 230 -140 c 1
 230 -144 230 -148 229 -152 c 0
 223 -192 182 -248 109 -248 c 0
 50 -248 17 -215 17 -169 c 0
 17 -164 17 -158 18 -152 c 0
 27 -95 75 -57 143 -57 c 0
 211 -57 309 -101 389 -153 c 1
 391 -130 394 -101 399 -70 c 2
 473 395 l 2
 474 405 475 414 475 422 c 0
 475 494 424 525 348 525 c 0
 281 525 231 495 201 441 c 1
 347 411 l 1
 325 358 l 2
 324 358 306 362 292 362 c 0
 254 362 239 337 234 305 c 2
 219 210 l 2
 217 195 216 183 216 171 c 0
 216 158 217 145 217 132 c 0
 217 120 216 107 214 92 c 0
 204 30 149 -10 86 -10 c 0
 29 -10 -9 22 -9 74 c 0
 -9 80 -9 86 -8 92 c 0
 1 148 47 186 102 193 c 1
 98 203 95 214 95 226 c 0
 95 231 95 235 96 240 c 2
 104 292 l 2
 112 340 140 373 185 388 c 1
 58 412 l 1
 89 516 195 620 363 620 c 0
164 -117 m 1
 153 -115 146 -113 138 -113 c 0
 119 -113 96 -122 91 -152 c 0
 91 -155 90 -158 90 -160 c 0
 90 -182 107 -191 122 -191 c 0
 148 -191 167 -174 170 -152 c 0
 173 -136 169 -125 164 -117 c 1
EndSplineSet
PickledDataWithLists: "(dp0
Vcom.fontlab.hintData
p1
(dp2
Vvhints
p3
(lp4
(dp5
Vposition
p6
L26L
sVwidth
p7
L10L
sa(dp8
g6
L81L
sg7
L10L
sa(dp9
g6
L126L
sg7
L10L
sa(dp10
g6
L219L
sg7
L10L
sa(dp11
g6
L470L
sg7
L10L
sa(dp12
g6
L476L
sg7
L10L
sa(dp13
g6
L556L
sg7
L10L
sa(dp14
g6
L564L
sg7
L10L
sasVhhints
p15
(lp16
(dp17
g6
L-242L
sg7
L10L
sa(dp18
g6
L-235L
sg7
L10L
sa(dp19
g6
L-137L
sg7
L10L
sa(dp20
g6
L-87L
sg7
L10L
sa(dp21
g6
L-16L
sg7
L10L
sa(dp22
g6
L66L
sg7
L10L
sa(dp23
g6
L544L
sg7
L10L
sa(dp24
g6
L606L
sg7
L10L
sass."
EndChar

StartChar: uni0E0F
Encoding: 415 3599 142
GlifName: uni0E_0F_
Width: 665
VWidth: 0
GlyphClass: 2
Flags: HMW
LayerCount: 2
Fore
SplineSet
109 132 m 0
 85 132 69 115 65 92 c 0
 64 89 64 86 64 83 c 0
 64 65 75 52 96 52 c 0
 120 52 137 69 141 92 c 0
 142 95 142 97 142 100 c 0
 142 119 130 132 109 132 c 0
363 620 m 0
 513 620 604 541 604 429 c 0
 604 418 603 407 601 395 c 2
 527 -70 l 1
 501 -235 l 1
 386 -235 l 1
 283 -143 l 1
 270 -160 253 -179 231 -196 c 0
 196 -222 149 -248 98 -248 c 0
 37 -248 2 -217 2 -169 c 0
 2 -164 2 -158 3 -152 c 0
 12 -98 58 -56 124 -56 c 0
 189 -56 215 -101 215 -139 c 1
 243 -110 261 -75 264 -70 c 1
 303 -70 l 1
 389 -152 l 1
 391 -129 394 -101 399 -70 c 2
 473 395 l 2
 474 405 475 414 475 422 c 0
 475 494 424 525 348 525 c 0
 281 525 231 495 201 441 c 1
 347 411 l 1
 325 358 l 2
 324 358 306 362 292 362 c 0
 254 362 239 337 234 305 c 2
 219 210 l 2
 217 195 216 183 216 171 c 0
 216 158 217 145 217 132 c 0
 217 120 216 107 214 92 c 0
 204 30 149 -10 86 -10 c 0
 29 -10 -9 22 -9 74 c 0
 -9 80 -9 86 -8 92 c 0
 1 148 47 186 102 193 c 1
 98 203 95 214 95 226 c 0
 95 231 95 235 96 240 c 2
 104 292 l 2
 112 340 140 373 185 388 c 1
 58 412 l 1
 89 516 195 620 363 620 c 0
76 -152 m 0
 75 -155 75 -158 75 -161 c 0
 75 -184 94 -191 111 -191 c 0
 120 -191 129 -190 138 -188 c 1
 145 -179 152 -168 155 -152 c 0
 155 -150 155 -148 155 -146 c 0
 155 -127 143 -113 119 -113 c 0
 102 -113 80 -124 76 -152 c 0
EndSplineSet
PickledDataWithLists: "(dp0
Vcom.fontlab.hintData
p1
(dp2
Vvhints
p3
(lp4
(dp5
Vposition
p6
L26L
sVwidth
p7
L10L
sa(dp8
g6
L81L
sg7
L10L
sa(dp9
g6
L97L
sg7
L10L
sa(dp10
g6
L131L
sg7
L10L
sa(dp11
g6
L166L
sg7
L10L
sa(dp12
g6
L179L
sg7
L10L
sa(dp13
g6
L221L
sg7
L10L
sa(dp14
g6
L470L
sg7
L10L
sa(dp15
g6
L476L
sg7
L10L
sa(dp16
g6
L553L
sg7
L10L
sa(dp17
g6
L564L
sg7
L10L
sasVhhints
p18
(lp19
(dp20
g6
L-240L
sg7
L10L
sa(dp21
g6
L-234L
sg7
L10L
sa(dp22
g6
L-191L
sg7
L10L
sa(dp23
g6
L-88L
sg7
L10L
sa(dp24
g6
L-83L
sg7
L10L
sa(dp25
g6
L-16L
sg7
L10L
sa(dp26
g6
L66L
sg7
L10L
sa(dp27
g6
L544L
sg7
L10L
sa(dp28
g6
L606L
sg7
L10L
sass."
EndChar

StartChar: uni0E10
Encoding: 416 3600 143
GlifName: uni0E_10
Width: 555
VWidth: 0
GlyphClass: 2
Flags: HMW
AnchorPoint: "ThaiTone.mark" 475 0 basechar 0
AnchorPoint: "ThaiAbove.mark" 515 0 basechar 0
LayerCount: 2
Fore
SplineSet
145 330 m 0
 254 330 288 227 294 132 c 1
 306 180 330 234 338 284 c 0
 339 289 339 293 339 297 c 0
 339 365 247 390 44 390 c 1
 49 420 l 2
 68 538 170 620 301 620 c 0
 374 620 419 594 447 566 c 1
 450 571 452 575 455 579 c 2
 479 614 l 1
 571 596 l 1
 570 590 l 1
 463 478 l 1
 424 478 l 1
 410 500 379 534 309 534 c 0
 253 534 197 512 175 448 c 1
 353 440 466 408 466 318 c 0
 466 312 466 306 465 300 c 0
 453 224 389 138 377 60 c 2
 367 0 l 1
 229 0 l 1
 231 19 233 39 233 58 c 0
 233 100 227 141 215 172 c 1
 191 143 154 126 113 126 c 0
 56 126 17 158 17 210 c 0
 17 216 17 222 18 228 c 0
 28 290 82 330 145 330 c 0
135 268 m 0
 111 268 95 251 91 228 c 0
 90 225 90 223 90 220 c 0
 90 201 102 188 123 188 c 0
 147 188 163 205 167 228 c 0
 168 231 168 233 168 236 c 0
 168 255 156 268 135 268 c 0
195 -139 m 1
 223 -110 241 -75 244 -70 c 1
 283 -70 l 1
 340 -140 l 1
 342 -119 345 -96 349 -70 c 1
 444 -70 l 1
 418 -235 l 1
 336 -235 l 1
 261 -147 l 1
 248 -163 232 -180 211 -196 c 0
 176 -222 129 -248 78 -248 c 0
 17 -248 -18 -217 -18 -169 c 0
 -18 -164 -18 -158 -17 -152 c 0
 -8 -98 38 -56 104 -56 c 0
 169 -56 195 -101 195 -139 c 1
56 -152 m 0
 55 -155 55 -158 55 -161 c 0
 55 -184 74 -191 91 -191 c 0
 100 -191 109 -190 118 -188 c 1
 125 -179 132 -168 135 -152 c 0
 135 -150 135 -148 135 -146 c 0
 135 -127 123 -113 99 -113 c 0
 82 -113 60 -124 56 -152 c 0
EndSplineSet
PickledDataWithLists: "(dp0
Vcom.fontlab.hintData
p1
(dp2
Vvhints
p3
(lp4
(dp5
Vposition
p6
L30L
sVwidth
p7
L10L
sa(dp8
g6
L80L
sg7
L10L
sa(dp9
g6
L89L
sg7
L10L
sa(dp10
g6
L110L
sg7
L10L
sa(dp11
g6
L149L
sg7
L10L
sa(dp12
g6
L160L
sg7
L10L
sa(dp13
g6
L434L
sg7
L10L
sa(dp14
g6
L504L
sg7
L10L
sa(dp15
g6
L510L
sg7
L10L
sa(dp16
g6
L516L
sg7
L10L
sa(dp17
g6
L569L
sg7
L10L
sasVhhints
p18
(lp19
(dp20
g6
L-237L
sg7
L10L
sa(dp21
g6
L-229L
sg7
L10L
sa(dp22
g6
L-189L
sg7
L10L
sa(dp23
g6
L-92L
sg7
L10L
sa(dp24
g6
L-87L
sg7
L10L
sa(dp25
g6
L-72L
sg7
L10L
sa(dp26
g6
L-9L
sg7
L10L
sa(dp27
g6
L197L
sg7
L10L
sa(dp28
g6
L215L
sg7
L10L
sa(dp29
g6
L272L
sg7
L10L
sa(dp30
g6
L366L
sg7
L10L
sa(dp31
g6
L420L
sg7
L10L
sa(dp32
g6
L558L
sg7
L10L
sa(dp33
g6
L612L
sg7
L10L
sa(dp34
g6
L652L
sg7
L10L
sass."
Substitution2: "ThaiRC.rd subtable" uni0E10.rd
Colour: ff00ff
EndChar

StartChar: uni0E10.rd
Encoding: 836 63646 144
GlifName: uni0E_10.rd
Width: 555
VWidth: 0
GlyphClass: 2
Flags: HMW
AnchorPoint: "ThaiBelow.mark" 450 0 basechar 0
AnchorPoint: "ThaiTone.mark" 475 0 basechar 0
AnchorPoint: "ThaiAbove.mark" 515 0 basechar 0
LayerCount: 2
Fore
SplineSet
145 330 m 0
 254 330 288 227 294 132 c 1
 306 180 330 234 338 284 c 0
 339 289 339 293 339 297 c 0
 339 365 247 390 44 390 c 1
 49 420 l 2
 68 538 170 620 301 620 c 0
 374 620 419 594 447 566 c 1
 450 571 452 575 455 579 c 2
 479 614 l 1
 571 596 l 1
 570 590 l 1
 463 478 l 1
 424 478 l 1
 410 500 379 534 309 534 c 0
 253 534 197 512 175 448 c 1
 353 440 466 408 466 318 c 0
 466 312 466 306 465 300 c 0
 453 224 389 138 377 60 c 2
 367 0 l 1
 229 0 l 1
 231 19 233 39 233 58 c 0
 233 100 227 141 215 172 c 1
 191 143 154 126 113 126 c 0
 56 126 17 158 17 210 c 0
 17 216 17 222 18 228 c 0
 28 290 82 330 145 330 c 0
135 268 m 0
 111 268 95 251 91 228 c 0
 90 225 90 223 90 220 c 0
 90 201 102 188 123 188 c 0
 147 188 163 205 167 228 c 0
 168 231 168 233 168 236 c 0
 168 255 156 268 135 268 c 0
EndSplineSet
PickledDataWithLists: "(dp0
Vcom.fontlab.hintData
p1
(dp2
Vvhints
p3
(lp4
(dp5
Vposition
p6
L30L
sVwidth
p7
L10L
sa(dp8
g6
L89L
sg7
L10L
sa(dp9
g6
L110L
sg7
L10L
sa(dp10
g6
L430L
sg7
L10L
sa(dp11
g6
L510L
sg7
L10L
sa(dp12
g6
L569L
sg7
L10L
sasVhhints
p13
(lp14
(dp15
g6
L-9L
sg7
L10L
sa(dp16
g6
L197L
sg7
L10L
sa(dp17
g6
L215L
sg7
L10L
sa(dp18
g6
L272L
sg7
L10L
sa(dp19
g6
L366L
sg7
L10L
sa(dp20
g6
L420L
sg7
L10L
sa(dp21
g6
L558L
sg7
L10L
sa(dp22
g6
L612L
sg7
L10L
sa(dp23
g6
L652L
sg7
L10L
sass."
EndChar

StartChar: uni0E11
Encoding: 417 3601 145
GlifName: uni0E_11
Width: 665
VWidth: 0
GlyphClass: 2
Flags: HMW
LayerCount: 2
Fore
SplineSet
146 548 m 0
 122 548 105 531 101 508 c 0
 100 505 100 503 100 500 c 0
 100 481 112 468 133 468 c 0
 157 468 173 485 177 508 c 0
 178 511 178 514 178 517 c 0
 178 535 167 548 146 548 c 0
156 610 m 0
 213 610 251 578 251 526 c 0
 251 520 251 514 250 508 c 0
 249 500 248 491 245 484 c 1
 279 514 306 557 325 599 c 1
 370 605 l 1
 383 590 397 564 401 526 c 1
 443 574 491 610 535 610 c 0
 599 610 613 564 613 522 c 0
 613 508 612 495 610 483 c 2
 533 0 l 1
 404 0 l 1
 477 460 l 2
 478 467 479 475 479 481 c 0
 479 492 476 500 468 502 c 1
 447 493 413 459 385 424 c 1
 343 319 234 264 218 163 c 2
 192 0 l 1
 63 0 l 1
 87 153 l 2
 113 315 275 350 307 475 c 1
 269 428 218 395 139 395 c 0
 67 395 26 432 26 488 c 0
 26 495 27 501 28 508 c 0
 38 570 93 610 156 610 c 0
EndSplineSet
PickledDataWithLists: "(dp0
Vcom.fontlab.hintData
p1
(dp2
Vvhints
p3
(lp4
(dp5
Vposition
p6
L11L
sVwidth
p7
L10L
sa(dp8
g6
L161L
sg7
L10L
sa(dp9
g6
L235L
sg7
L10L
sa(dp10
g6
L283L
sg7
L10L
sa(dp11
g6
L524L
sg7
L10L
sa(dp12
g6
L529L
sg7
L10L
sa(dp13
g6
L606L
sg7
L10L
sa(dp14
g6
L608L
sg7
L10L
sasVhhints
p15
(lp16
(dp17
g6
L-15L
sg7
L10L
sa(dp18
g6
L-8L
sg7
L10L
sa(dp19
g6
L398L
sg7
L10L
sa(dp20
g6
L602L
sg7
L10L
sa(dp21
g6
L611L
sg7
L10L
sass."
EndChar

StartChar: uni0E12
Encoding: 418 3602 146
GlifName: uni0E_12
Width: 960
VWidth: 0
GlyphClass: 2
Flags: HMW
LayerCount: 2
Fore
SplineSet
327 357 m 0
 303 357 286 340 282 317 c 0
 281 314 281 312 281 309 c 0
 281 290 293 277 314 277 c 0
 338 277 354 294 358 317 c 0
 359 320 359 323 359 326 c 0
 359 344 348 357 327 357 c 0
461 132 m 0
 437 132 421 115 417 92 c 0
 416 89 416 86 416 83 c 0
 416 65 427 52 448 52 c 0
 472 52 489 69 493 92 c 0
 494 95 494 97 494 100 c 0
 494 119 482 132 461 132 c 0
277 614 m 1
 355 537 l 1
 457 614 l 1
 578 614 605 527 605 452 c 0
 605 432 603 412 600 395 c 2
 571 212 l 2
 570 205 568 198 568 192 c 1
 639 180 684 146 714 110 c 1
 717 143 722 178 727 210 c 2
 789 600 l 1
 917 600 l 1
 822 0 l 1
 704 0 l 1
 675 51 639 99 568 116 c 1
 568 109 567 101 566 92 c 0
 556 30 501 -10 438 -10 c 0
 381 -10 343 22 343 74 c 0
 343 80 343 86 344 92 c 0
 353 149 400 188 457 193 c 1
 453 202 451 212 451 225 c 0
 451 230 451 235 452 240 c 2
 477 395 l 2
 481 419 483 438 483 455 c 0
 483 499 470 520 449 524 c 1
 357 459 l 1
 343 459 l 1
 329 459 l 1
 256 524 l 1
 224 518 197 481 183 395 c 0
 161 255 174 222 164 158 c 0
 161 139 157 120 152 104 c 1
 200 151 259 180 304 215 c 1
 247 215 208 247 208 299 c 0
 208 305 208 311 209 317 c 0
 219 379 273 419 336 419 c 0
 393 419 432 387 432 335 c 0
 432 329 432 323 431 317 c 0
 406 161 213 119 162 0 c 1
 16 0 l 1
 16 0 38 71 45 117 c 0
 51 156 52 184 52 213 c 0
 52 220 52 228 52 236 c 0
 52 274 53 319 65 395 c 0
 77 473 123 614 277 614 c 1
EndSplineSet
PickledDataWithLists: "(dp0
Vcom.fontlab.hintData
p1
(dp2
Vvhints
p3
(lp4
(dp5
Vposition
p6
L64L
sVwidth
p7
L10L
sa(dp8
g6
L146L
sg7
L10L
sa(dp9
g6
L322L
sg7
L10L
sa(dp10
g6
L328L
sg7
L10L
sa(dp11
g6
L375L
sg7
L10L
sa(dp12
g6
L445L
sg7
L10L
sa(dp13
g6
L535L
sg7
L10L
sa(dp14
g6
L605L
sg7
L10L
sa(dp15
g6
L781L
sg7
L10L
sa(dp16
g6
L789L
sg7
L10L
sa(dp17
g6
L861L
sg7
L10L
sa(dp18
g6
L871L
sg7
L10L
sasVhhints
p19
(lp20
(dp21
g6
L-19L
sg7
L10L
sa(dp22
g6
L-15L
sg7
L10L
sa(dp23
g6
L37L
sg7
L10L
sa(dp24
g6
L241L
sg7
L10L
sa(dp25
g6
L289L
sg7
L10L
sa(dp26
g6
L412L
sg7
L10L
sa(dp27
g6
L546L
sg7
L10L
sa(dp28
g6
L587L
sg7
L10L
sa(dp29
g6
L593L
sg7
L10L
sa(dp30
g6
L603L
sg7
L10L
sass."
EndChar

StartChar: uni0E13
Encoding: 419 3603 147
GlifName: uni0E_13
Width: 960
VWidth: 0
GlyphClass: 2
Flags: HMW
LayerCount: 2
Fore
SplineSet
154 132 m 0
 130 132 114 115 110 92 c 0
 109 89 109 86 109 83 c 0
 109 65 120 52 141 52 c 0
 165 52 182 69 186 92 c 0
 187 95 187 97 187 100 c 0
 187 119 175 132 154 132 c 0
769 132 m 0
 745 132 729 115 725 92 c 0
 724 89 724 86 724 83 c 0
 724 65 735 52 756 52 c 0
 780 52 797 69 801 92 c 0
 802 95 802 97 802 100 c 0
 802 119 790 132 769 132 c 0
191 440 m 1
 322 411 l 1
 300 358 l 2
 299 358 281 362 267 362 c 0
 229 362 214 337 209 305 c 2
 199 240 l 2
 196 221 189 206 180 193 c 1
 228 188 260 157 260 110 c 0
 260 104 260 98 259 92 c 0
 249 30 194 -10 131 -10 c 0
 74 -10 36 22 36 74 c 0
 36 80 36 86 37 92 c 0
 44 139 59 164 66 210 c 2
 79 292 l 2
 87 340 117 374 162 389 c 1
 48 412 l 1
 79 516 185 620 353 620 c 0
 503 620 594 541 594 429 c 0
 594 418 593 407 591 395 c 2
 561 210 l 2
 556 180 549 147 543 116 c 1
 586 154 643 187 718 196 c 1
 720 201 722 206 723 212 c 2
 784 600 l 1
 913 600 l 1
 856 238 l 2
 853 216 839 200 822 187 c 1
 855 175 875 146 875 109 c 0
 875 103 875 98 874 92 c 0
 864 30 809 -10 746 -10 c 0
 689 -10 651 22 651 74 c 0
 651 80 651 86 652 92 c 0
 653 99 655 106 657 112 c 1
 599 90 555 46 518 0 c 1
 400 0 l 1
 463 395 l 2
 464 405 465 414 465 422 c 0
 465 494 414 525 338 525 c 0
 270 525 221 495 191 440 c 1
EndSplineSet
PickledDataWithLists: "(dp0
Vcom.fontlab.hintData
p1
(dp2
Vvhints
p3
(lp4
(dp5
Vposition
p6
L84L
sVwidth
p7
L10L
sa(dp8
g6
L104L
sg7
L10L
sa(dp9
g6
L166L
sg7
L10L
sa(dp10
g6
L186L
sg7
L10L
sa(dp11
g6
L311L
sg7
L10L
sa(dp12
g6
L454L
sg7
L10L
sa(dp13
g6
L469L
sg7
L10L
sa(dp14
g6
L540L
sg7
L10L
sa(dp15
g6
L551L
sg7
L10L
sa(dp16
g6
L709L
sg7
L10L
sa(dp17
g6
L780L
sg7
L10L
sa(dp18
g6
L816L
sg7
L10L
sa(dp19
g6
L865L
sg7
L10L
sa(dp20
g6
L935L
sg7
L10L
sasVhhints
p21
(lp22
(dp23
g6
L-17L
sg7
L10L
sa(dp24
g6
L29L
sg7
L10L
sa(dp25
g6
L41L
sg7
L10L
sa(dp26
g6
L54L
sg7
L10L
sa(dp27
g6
L241L
sg7
L10L
sa(dp28
g6
L289L
sg7
L10L
sa(dp29
g6
L546L
sg7
L10L
sa(dp30
g6
L594L
sg7
L10L
sa(dp31
g6
L604L
sg7
L10L
sass."
EndChar

StartChar: uni0E14
Encoding: 420 3604 148
GlifName: uni0E_14
Width: 665
VWidth: 0
GlyphClass: 2
Flags: HMW
LayerCount: 2
Fore
SplineSet
409 0 m 1
 424 95 l 2
 435 162 452 235 477 395 c 0
 479 405 479 415 479 424 c 0
 479 495 428 525 353 525 c 0
 268 525 198 487 183 395 c 0
 161 255 174 222 164 158 c 0
 161 139 157 120 152 104 c 1
 200 151 259 180 304 215 c 1
 247 215 208 247 208 299 c 0
 208 305 208 311 209 317 c 0
 219 379 273 419 336 419 c 0
 393 419 432 387 432 335 c 0
 432 329 432 323 431 317 c 0
 406 161 213 119 162 0 c 1
 16 0 l 1
 16 0 38 71 45 117 c 0
 51 156 52 184 52 213 c 0
 52 220 52 228 52 236 c 0
 52 274 53 319 65 395 c 0
 85 523 205 620 368 620 c 0
 516 620 603 540 603 430 c 0
 603 419 602 407 600 395 c 2
 537 0 l 1
 409 0 l 1
327 357 m 0
 303 357 286 340 282 317 c 0
 281 314 281 312 281 309 c 0
 281 290 293 277 314 277 c 0
 338 277 354 294 358 317 c 0
 359 320 359 323 359 326 c 0
 359 344 348 357 327 357 c 0
EndSplineSet
PickledDataWithLists: "(dp0
Vcom.fontlab.hintData
p1
(dp2
Vvhints
p3
(lp4
(dp5
Vposition
p6
L60L
sVwidth
p7
L10L
sa(dp8
g6
L149L
sg7
L10L
sa(dp9
g6
L306L
sg7
L10L
sa(dp10
g6
L394L
sg7
L10L
sa(dp11
g6
L495L
sg7
L10L
sa(dp12
g6
L501L
sg7
L10L
sa(dp13
g6
L584L
sg7
L10L
sa(dp14
g6
L589L
sg7
L10L
sasVhhints
p15
(lp16
(dp17
g6
L-23L
sg7
L10L
sa(dp18
g6
L-15L
sg7
L10L
sa(dp19
g6
L40L
sg7
L10L
sa(dp20
g6
L140L
sg7
L10L
sa(dp21
g6
L547L
sg7
L10L
sa(dp22
g6
L609L
sg7
L10L
sass."
EndChar

StartChar: uni0E15
Encoding: 421 3605 149
GlifName: uni0E_15
Width: 665
VWidth: 0
GlyphClass: 2
Flags: HMW
LayerCount: 2
Fore
SplineSet
409 0 m 1
 424 95 l 2
 435 162 452 235 477 395 c 0
 481 419 483 438 483 455 c 0
 483 499 470 520 449 524 c 1
 357 459 l 1
 343 459 l 1
 329 459 l 1
 256 524 l 1
 224 518 197 481 183 395 c 0
 161 255 174 222 164 158 c 0
 161 139 157 120 152 104 c 1
 200 151 259 180 304 215 c 1
 247 215 208 247 208 299 c 0
 208 305 208 311 209 317 c 0
 219 379 273 419 336 419 c 0
 393 419 432 387 432 335 c 0
 432 329 432 323 431 317 c 0
 406 161 213 119 162 0 c 1
 16 0 l 1
 16 0 38 71 45 117 c 0
 51 156 52 184 52 213 c 0
 52 220 52 228 52 236 c 0
 52 274 53 319 65 395 c 0
 77 473 123 614 277 614 c 1
 355 537 l 1
 457 614 l 1
 578 614 605 527 605 452 c 0
 605 432 603 412 600 395 c 2
 537 0 l 1
 409 0 l 1
327 357 m 0
 303 357 286 340 282 317 c 0
 281 314 281 312 281 309 c 0
 281 290 293 277 314 277 c 0
 338 277 354 294 358 317 c 0
 359 320 359 323 359 326 c 0
 359 344 348 357 327 357 c 0
EndSplineSet
PickledDataWithLists: "(dp0
Vcom.fontlab.hintData
p1
(dp2
Vvhints
p3
(lp4
(dp5
Vposition
p6
L64L
sVwidth
p7
L10L
sa(dp8
g6
L146L
sg7
L10L
sa(dp9
g6
L309L
sg7
L10L
sa(dp10
g6
L332L
sg7
L10L
sa(dp11
g6
L337L
sg7
L10L
sa(dp12
g6
L391L
sg7
L10L
sa(dp13
g6
L405L
sg7
L10L
sa(dp14
g6
L513L
sg7
L10L
sa(dp15
g6
L597L
sg7
L10L
sa(dp16
g6
L602L
sg7
L10L
sasVhhints
p17
(lp18
(dp19
g6
L-21L
sg7
L10L
sa(dp20
g6
L-13L
sg7
L10L
sa(dp21
g6
L36L
sg7
L10L
sa(dp22
g6
L133L
sg7
L10L
sa(dp23
g6
L412L
sg7
L10L
sa(dp24
g6
L546L
sg7
L10L
sa(dp25
g6
L590L
sg7
L10L
sa(dp26
g6
L603L
sg7
L10L
sass."
EndChar

StartChar: uni0E16
Encoding: 422 3606 150
GlifName: uni0E_16
Width: 655
VWidth: 0
GlyphClass: 2
Flags: HMW
LayerCount: 2
Fore
SplineSet
353 620 m 0
 503 620 594 541 594 429 c 0
 594 418 593 407 591 395 c 2
 528 0 l 1
 400 0 l 1
 463 395 l 2
 464 405 465 414 465 422 c 0
 465 494 414 525 338 525 c 0
 270 525 221 494 191 440 c 1
 322 411 l 1
 300 358 l 2
 299 358 281 362 267 362 c 0
 229 362 214 337 209 305 c 2
 199 240 l 2
 196 221 189 206 180 193 c 1
 228 188 260 157 260 110 c 0
 260 104 260 98 259 92 c 0
 249 30 194 -10 131 -10 c 0
 74 -10 36 22 36 74 c 0
 36 80 36 86 37 92 c 0
 44 139 59 164 66 210 c 2
 79 292 l 2
 87 340 117 374 162 389 c 1
 48 412 l 1
 79 516 185 620 353 620 c 0
154 132 m 0
 130 132 114 115 110 92 c 0
 109 89 109 86 109 83 c 0
 109 65 120 52 141 52 c 0
 165 52 182 69 186 92 c 0
 187 95 187 97 187 100 c 0
 187 119 175 132 154 132 c 0
EndSplineSet
PickledDataWithLists: "(dp0
Vcom.fontlab.hintData
p1
(dp2
Vvhints
p3
(lp4
(dp5
Vposition
p6
L81L
sVwidth
p7
L10L
sa(dp8
g6
L86L
sg7
L10L
sa(dp9
g6
L111L
sg7
L10L
sa(dp10
g6
L169L
sg7
L10L
sa(dp11
g6
L199L
sg7
L10L
sa(dp12
g6
L315L
sg7
L10L
sa(dp13
g6
L465L
sg7
L10L
sa(dp14
g6
L476L
sg7
L10L
sa(dp15
g6
L556L
sg7
L10L
sa(dp16
g6
L564L
sg7
L10L
sasVhhints
p17
(lp18
(dp19
g6
L-19L
sg7
L10L
sa(dp20
g6
L43L
sg7
L10L
sa(dp21
g6
L56L
sg7
L10L
sa(dp22
g6
L544L
sg7
L10L
sa(dp23
g6
L606L
sg7
L10L
sass."
EndChar

StartChar: uni0E17
Encoding: 423 3607 151
GlifName: uni0E_17
Width: 660
VWidth: 0
GlyphClass: 2
Flags: HMW
LayerCount: 2
Fore
SplineSet
158 468 m 0
 182 468 198 485 202 508 c 0
 203 511 203 514 203 517 c 0
 203 535 192 548 171 548 c 0
 147 548 130 531 126 508 c 0
 125 505 125 503 125 500 c 0
 125 481 137 468 158 468 c 0
231 317 m 1
 295 457 391 610 502 610 c 0
 585 610 606 552 606 506 c 0
 606 498 605 490 604 483 c 2
 528 0 l 1
 400 0 l 1
 473 459 l 2
 474 464 474 469 474 474 c 0
 474 487 471 500 460 502 c 1
 366 463 232 193 195 87 c 1
 181 0 l 1
 53 0 l 1
 110 360 l 2
 113 379 120 394 130 407 c 1
 83 413 52 444 52 490 c 0
 52 496 52 502 53 508 c 0
 63 570 118 610 181 610 c 0
 238 610 276 578 276 526 c 0
 276 520 276 514 275 508 c 0
 268 461 250 436 243 390 c 2
 231 317 l 1
EndSplineSet
PickledDataWithLists: "(dp0
Vcom.fontlab.hintData
p1
(dp2
Vvhints
p3
(lp4
(dp5
Vposition
p6
L58L
sVwidth
p7
L10L
sa(dp8
g6
L104L
sg7
L10L
sa(dp9
g6
L479L
sg7
L10L
sa(dp10
g6
L484L
sg7
L10L
sa(dp11
g6
L561L
sg7
L10L
sa(dp12
g6
L566L
sg7
L10L
sasVhhints
p13
(lp14
(dp15
g6
L-13L
sg7
L10L
sa(dp16
g6
L-8L
sg7
L10L
sa(dp17
g6
L546L
sg7
L10L
sa(dp18
g6
L604L
sg7
L10L
sass."
EndChar

StartChar: uni0E18
Encoding: 424 3608 152
GlifName: uni0E_18
Width: 585
VWidth: 0
GlyphClass: 2
Flags: HMW
AnchorPoint: "ThaiTone.mark" 505 0 basechar 0
LayerCount: 2
Fore
SplineSet
37 181 m 2
 56 300 l 1
 184 300 l 1
 165 181 l 2
 164 172 163 163 163 155 c 0
 163 96 200 75 247 75 c 0
 300 75 351 103 363 181 c 2
 378 280 l 2
 379 284 379 288 379 292 c 0
 379 362 265 381 58 381 c 1
 65 420 l 2
 84 538 186 620 317 620 c 0
 390 620 435 594 463 566 c 1
 466 571 468 575 471 579 c 2
 495 614 l 1
 587 596 l 1
 586 590 l 1
 479 478 l 1
 440 478 l 1
 426 500 395 534 325 534 c 0
 268 534 211 511 190 444 c 1
 378 436 511 405 511 313 c 0
 511 308 511 302 510 296 c 2
 492 181 l 2
 475 71 375 -20 232 -20 c 0
 103 -20 34 54 34 149 c 0
 34 160 35 170 37 181 c 2
EndSplineSet
PickledDataWithLists: "(dp0
Vcom.fontlab.hintData
p1
(dp2
Vvhints
p3
(lp4
(dp5
Vposition
p6
L64L
sVwidth
p7
L10L
sa(dp8
g6
L109L
sg7
L10L
sa(dp9
g6
L146L
sg7
L10L
sa(dp10
g6
L195L
sg7
L10L
sa(dp11
g6
L430L
sg7
L10L
sa(dp12
g6
L513L
sg7
L10L
sasVhhints
p13
(lp14
(dp15
g6
L-14L
sg7
L10L
sa(dp16
g6
L44L
sg7
L10L
sa(dp17
g6
L294L
sg7
L10L
sa(dp18
g6
L496L
sg7
L10L
sa(dp19
g6
L555L
sg7
L10L
sa(dp20
g6
L612L
sg7
L10L
sass."
EndChar

StartChar: uni0E19
Encoding: 425 3609 153
GlifName: uni0E_19
Width: 650
VWidth: 0
GlyphClass: 2
Flags: HMW
LayerCount: 2
Fore
SplineSet
53 0 m 1
 110 360 l 2
 113 379 121 395 131 407 c 1
 84 413 52 445 52 491 c 0
 52 497 52 502 53 508 c 0
 63 570 118 610 181 610 c 0
 238 610 276 578 276 526 c 0
 276 520 276 514 275 508 c 0
 267 458 250 437 242 388 c 2
 214 210 l 2
 209 179 203 144 196 112 c 1
 247 152 316 188 408 197 c 1
 410 202 412 207 413 212 c 2
 474 600 l 1
 603 600 l 1
 546 238 l 2
 543 216 529 200 512 187 c 1
 545 175 565 146 565 109 c 0
 565 103 565 98 564 92 c 0
 554 30 499 -10 436 -10 c 0
 379 -10 341 22 341 74 c 0
 341 80 341 86 342 92 c 0
 343 100 345 109 348 116 c 1
 271 96 216 48 171 0 c 1
 53 0 l 1
459 132 m 0
 435 132 419 115 415 92 c 0
 414 89 414 86 414 83 c 0
 414 65 425 52 446 52 c 0
 470 52 487 69 491 92 c 0
 492 95 492 97 492 100 c 0
 492 119 480 132 459 132 c 0
158 468 m 0
 182 468 198 485 202 508 c 0
 203 511 203 514 203 517 c 0
 203 535 192 548 171 548 c 0
 147 548 130 531 126 508 c 0
 125 505 125 503 125 500 c 0
 125 481 137 468 158 468 c 0
EndSplineSet
PickledDataWithLists: "(dp0
Vcom.fontlab.hintData
p1
(dp2
Vvhints
p3
(lp4
(dp5
Vposition
p6
L64L
sVwidth
p7
L10L
sa(dp8
g6
L84L
sg7
L10L
sa(dp9
g6
L168L
sg7
L10L
sa(dp10
g6
L387L
sg7
L10L
sa(dp11
g6
L457L
sg7
L10L
sa(dp12
g6
L491L
sg7
L10L
sa(dp13
g6
L550L
sg7
L10L
sa(dp14
g6
L625L
sg7
L10L
sasVhhints
p15
(lp16
(dp17
g6
L-27L
sg7
L10L
sa(dp18
g6
L-20L
sg7
L10L
sa(dp19
g6
L22L
sg7
L10L
sa(dp20
g6
L248L
sg7
L10L
sa(dp21
g6
L307L
sg7
L10L
sa(dp22
g6
L589L
sg7
L10L
sa(dp23
g6
L598L
sg7
L10L
sass."
EndChar

StartChar: uni0E1A
Encoding: 426 3610 154
GlifName: uni0E_1A_
Width: 700
VWidth: 0
GlyphClass: 2
Flags: HMW
LayerCount: 2
Fore
SplineSet
152 468 m 0
 176 468 192 485 196 508 c 0
 197 511 197 514 197 517 c 0
 197 535 186 548 165 548 c 0
 141 548 124 531 120 508 c 0
 119 505 119 503 119 500 c 0
 119 481 131 468 152 468 c 0
269 508 m 0
 262 461 244 436 237 390 c 2
 205 192 l 2
 204 183 203 175 203 167 c 0
 203 102 249 74 317 74 c 0
 393 74 451 109 464 192 c 2
 529 600 l 1
 657 600 l 1
 592 192 l 2
 573 71 458 -20 302 -20 c 0
 160 -20 74 55 74 160 c 0
 74 170 75 181 77 192 c 2
 104 360 l 2
 107 379 114 394 124 407 c 1
 77 413 46 444 46 490 c 0
 46 496 46 502 47 508 c 0
 57 570 112 610 175 610 c 0
 232 610 270 578 270 526 c 0
 270 520 270 514 269 508 c 0
EndSplineSet
PickledDataWithLists: "(dp0
Vcom.fontlab.hintData
p1
(dp2
Vvhints
p3
(lp4
(dp5
Vposition
p6
L81L
sVwidth
p7
L10L
sa(dp8
g6
L106L
sg7
L10L
sa(dp9
g6
L194L
sg7
L10L
sa(dp10
g6
L511L
sg7
L10L
sa(dp11
g6
L516L
sg7
L10L
sa(dp12
g6
L599L
sg7
L10L
sa(dp13
g6
L604L
sg7
L10L
sasVhhints
p14
(lp15
(dp16
g6
L-26L
sg7
L10L
sa(dp17
g6
L36L
sg7
L10L
sa(dp18
g6
L596L
sg7
L10L
sass."
EndChar

StartChar: uni0E1B
Encoding: 427 3611 155
GlifName: uni0E_1B_
Width: 700
VWidth: 0
GlyphClass: 2
Flags: HMW
LayerCount: 2
Fore
SplineSet
152 468 m 0
 176 468 192 485 196 508 c 0
 197 511 197 514 197 517 c 0
 197 535 186 548 165 548 c 0
 141 548 124 531 120 508 c 0
 119 505 119 503 119 500 c 0
 119 481 131 468 152 468 c 0
269 508 m 0
 262 461 244 436 237 390 c 2
 205 192 l 2
 204 183 203 175 203 167 c 0
 203 102 249 74 317 74 c 0
 393 74 451 109 464 192 c 2
 562 810 l 1
 690 810 l 1
 592 192 l 2
 573 71 458 -20 302 -20 c 0
 160 -20 74 55 74 160 c 0
 74 170 75 181 77 192 c 2
 104 360 l 2
 107 379 114 394 124 407 c 1
 77 413 46 444 46 490 c 0
 46 496 46 502 47 508 c 0
 57 570 112 610 175 610 c 0
 232 610 270 578 270 526 c 0
 270 520 270 514 269 508 c 0
EndSplineSet
PickledDataWithLists: "(dp0
Vcom.fontlab.hintData
p1
(dp2
Vvhints
p3
(lp4
(dp5
Vposition
p6
L81L
sVwidth
p7
L10L
sa(dp8
g6
L106L
sg7
L10L
sa(dp9
g6
L194L
sg7
L10L
sa(dp10
g6
L521L
sg7
L10L
sa(dp11
g6
L526L
sg7
L10L
sa(dp12
g6
L609L
sg7
L10L
sa(dp13
g6
L614L
sg7
L10L
sasVhhints
p14
(lp15
(dp16
g6
L-26L
sg7
L10L
sa(dp17
g6
L36L
sg7
L10L
sa(dp18
g6
L600L
sg7
L10L
sa(dp19
g6
L836L
sg7
L10L
sass."
EndChar

StartChar: uni0E1C
Encoding: 428 3612 156
GlifName: uni0E_1C_
Width: 715
VWidth: 0
GlyphClass: 2
Flags: HMW
LayerCount: 2
Fore
SplineSet
486 211 m 2
 548 600 l 1
 672 600 l 1
 577 0 l 1
 457 0 l 1
 341 269 l 1
 140 0 l 1
 20 0 l 1
 64 280 l 2
 76 354 66 408 75 463 c 0
 89 551 158 610 259 610 c 0
 316 610 354 578 354 526 c 0
 354 520 354 514 353 508 c 0
 343 446 289 406 226 406 c 0
 209 406 194 408 181 414 c 1
 184 384 193 364 193 330 c 0
 193 319 192 307 190 292 c 2
 177 211 l 2
 174 191 168 171 162 152 c 1
 317 360 l 1
 355 360 l 1
 394 360 l 1
 483 152 l 1
 483 171 483 191 486 211 c 2
236 468 m 0
 260 468 276 485 280 508 c 0
 281 511 281 514 281 517 c 0
 281 535 270 548 249 548 c 0
 225 548 208 531 204 508 c 0
 203 505 203 503 203 500 c 0
 203 481 215 468 236 468 c 0
EndSplineSet
PickledDataWithLists: "(dp0
Vcom.fontlab.hintData
p1
(dp2
Vvhints
p3
(lp4
(dp5
Vposition
p6
L64L
sVwidth
p7
L10L
sa(dp8
g6
L148L
sg7
L10L
sa(dp9
g6
L372L
sg7
L10L
sa(dp10
g6
L559L
sg7
L10L
sa(dp11
g6
L643L
sg7
L10L
sa(dp12
g6
L653L
sg7
L10L
sasVhhints
p13
(lp14
(dp15
g6
L-14L
sg7
L10L
sa(dp16
g6
L-8L
sg7
L10L
sa(dp17
g6
L318L
sg7
L10L
sa(dp18
g6
L514L
sg7
L10L
sa(dp19
g6
L544L
sg7
L10L
sa(dp20
g6
L599L
sg7
L10L
sa(dp21
g6
L604L
sg7
L10L
sass."
EndChar

StartChar: uni0E1D
Encoding: 429 3613 157
GlifName: uni0E_1D_
Width: 715
VWidth: 0
GlyphClass: 2
Flags: HMW
LayerCount: 2
Fore
SplineSet
486 211 m 2
 581 810 l 1
 705 810 l 1
 577 0 l 1
 457 0 l 1
 341 269 l 1
 140 0 l 1
 20 0 l 1
 64 280 l 2
 76 354 66 408 75 463 c 0
 89 551 158 610 259 610 c 0
 316 610 354 578 354 526 c 0
 354 520 354 514 353 508 c 0
 343 446 289 406 226 406 c 0
 209 406 194 408 181 414 c 1
 184 384 193 364 193 330 c 0
 193 319 192 307 190 292 c 2
 177 211 l 2
 174 191 168 171 162 152 c 1
 317 360 l 1
 355 360 l 1
 394 360 l 1
 483 152 l 1
 483 171 483 191 486 211 c 2
236 468 m 0
 260 468 276 485 280 508 c 0
 281 511 281 514 281 517 c 0
 281 535 270 548 249 548 c 0
 225 548 208 531 204 508 c 0
 203 505 203 503 203 500 c 0
 203 481 215 468 236 468 c 0
EndSplineSet
PickledDataWithLists: "(dp0
Vcom.fontlab.hintData
p1
(dp2
Vvhints
p3
(lp4
(dp5
Vposition
p6
L64L
sVwidth
p7
L10L
sa(dp8
g6
L148L
sg7
L10L
sa(dp9
g6
L372L
sg7
L10L
sa(dp10
g6
L559L
sg7
L10L
sa(dp11
g6
L643L
sg7
L10L
sa(dp12
g6
L653L
sg7
L10L
sasVhhints
p13
(lp14
(dp15
g6
L-14L
sg7
L10L
sa(dp16
g6
L-8L
sg7
L10L
sa(dp17
g6
L318L
sg7
L10L
sa(dp18
g6
L514L
sg7
L10L
sa(dp19
g6
L544L
sg7
L10L
sa(dp20
g6
L604L
sg7
L10L
sa(dp21
g6
L834L
sg7
L10L
sass."
EndChar

StartChar: uni0E1E
Encoding: 430 3614 158
GlifName: uni0E_1E_
Width: 735
VWidth: 0
GlyphClass: 2
Flags: HMW
LayerCount: 2
Fore
SplineSet
692 600 m 1
 597 0 l 1
 486 0 l 1
 382 367 l 1
 163 0 l 1
 52 0 l 1
 109 360 l 2
 112 379 119 395 129 407 c 1
 82 413 51 444 51 490 c 0
 51 496 51 502 52 508 c 0
 62 570 117 610 180 610 c 0
 237 610 275 578 275 526 c 0
 275 520 275 514 274 508 c 0
 266 460 245 436 237 388 c 2
 218 268 l 2
 215 252 211 232 206 214 c 1
 372 495 l 1
 402 495 l 1
 433 495 l 1
 511 212 l 1
 512 231 512 251 515 268 c 2
 568 600 l 1
 692 600 l 1
157 468 m 0
 181 468 197 485 201 508 c 0
 202 511 202 514 202 517 c 0
 202 535 191 548 170 548 c 0
 146 548 129 531 125 508 c 0
 124 505 124 503 124 500 c 0
 124 481 136 468 157 468 c 0
EndSplineSet
PickledDataWithLists: "(dp0
Vcom.fontlab.hintData
p1
(dp2
Vvhints
p3
(lp4
(dp5
Vposition
p6
L58L
sVwidth
p7
L10L
sa(dp8
g6
L104L
sg7
L10L
sa(dp9
g6
L182L
sg7
L10L
sa(dp10
g6
L556L
sg7
L10L
sa(dp11
g6
L656L
sg7
L10L
sasVhhints
p12
(lp13
(dp14
g6
L-12L
sg7
L10L
sa(dp15
g6
L540L
sg7
L10L
sa(dp16
g6
L604L
sg7
L10L
sass."
EndChar

StartChar: uni0E1F
Encoding: 431 3615 159
GlifName: uni0E_1F_
Width: 735
VWidth: 0
GlyphClass: 2
Flags: HMW
LayerCount: 2
Fore
SplineSet
725 810 m 1
 597 0 l 1
 486 0 l 1
 382 367 l 1
 163 0 l 1
 52 0 l 1
 109 360 l 2
 112 379 119 395 129 407 c 1
 82 413 51 444 51 490 c 0
 51 496 51 502 52 508 c 0
 62 570 117 610 180 610 c 0
 237 610 275 578 275 526 c 0
 275 520 275 514 274 508 c 0
 266 460 245 436 237 388 c 2
 218 268 l 2
 215 252 211 232 206 214 c 1
 372 495 l 1
 402 495 l 1
 433 495 l 1
 511 212 l 1
 512 231 512 251 515 268 c 2
 601 810 l 1
 725 810 l 1
157 468 m 0
 181 468 197 485 201 508 c 0
 202 511 202 514 202 517 c 0
 202 535 191 548 170 548 c 0
 146 548 129 531 125 508 c 0
 124 505 124 503 124 500 c 0
 124 481 136 468 157 468 c 0
EndSplineSet
PickledDataWithLists: "(dp0
Vcom.fontlab.hintData
p1
(dp2
Vvhints
p3
(lp4
(dp5
Vposition
p6
L58L
sVwidth
p7
L10L
sa(dp8
g6
L104L
sg7
L10L
sa(dp9
g6
L182L
sg7
L10L
sa(dp10
g6
L565L
sg7
L10L
sa(dp11
g6
L641L
sg7
L9L
sa(dp12
g6
L686L
sg7
L11L
sasVhhints
p13
(lp14
(dp15
g6
L-12L
sg7
L10L
sa(dp16
g6
L540L
sg7
L10L
sa(dp17
g6
L604L
sg7
L10L
sa(dp18
g6
L834L
sg7
L10L
sass."
EndChar

StartChar: uni0E20
Encoding: 432 3616 160
GlifName: uni0E_20
Width: 665
VWidth: 0
GlyphClass: 2
Flags: HMW
LayerCount: 2
Fore
SplineSet
109 133 m 0
 85 133 69 116 65 93 c 0
 64 90 64 87 64 84 c 0
 64 66 75 53 96 53 c 0
 120 53 137 70 141 93 c 0
 142 96 142 98 142 101 c 0
 142 120 130 133 109 133 c 0
363 621 m 0
 513 621 604 542 604 430 c 0
 604 419 603 408 601 396 c 2
 538 1 l 1
 410 1 l 1
 473 396 l 2
 474 406 475 415 475 423 c 0
 475 495 424 526 348 526 c 0
 281 526 231 496 201 442 c 1
 347 412 l 1
 325 359 l 2
 324 359 306 363 292 363 c 0
 254 363 239 338 234 306 c 2
 219 211 l 2
 217 196 216 184 216 172 c 0
 216 159 217 146 217 133 c 0
 217 121 216 108 214 93 c 0
 204 31 150 -9 87 -9 c 0
 30 -9 -9 23 -9 75 c 0
 -9 81 -9 87 -8 93 c 0
 1 149 47 187 102 194 c 1
 98 204 95 215 95 227 c 0
 95 232 95 236 96 241 c 2
 104 293 l 2
 112 341 141 374 186 389 c 1
 58 413 l 1
 89 517 195 621 363 621 c 0
EndSplineSet
PickledDataWithLists: "(dp0
Vcom.fontlab.hintData
p1
(dp2
Vvhints
p3
(lp4
(dp5
Vposition
p6
L26L
sVwidth
p7
L10L
sa(dp8
g6
L81L
sg7
L10L
sa(dp9
g6
L131L
sg7
L10L
sa(dp10
g6
L219L
sg7
L10L
sa(dp11
g6
L465L
sg7
L10L
sa(dp12
g6
L476L
sg7
L10L
sa(dp13
g6
L556L
sg7
L10L
sa(dp14
g6
L564L
sg7
L10L
sasVhhints
p15
(lp16
(dp17
g6
L-16L
sg7
L10L
sa(dp18
g6
L66L
sg7
L10L
sa(dp19
g6
L544L
sg7
L10L
sa(dp20
g6
L606L
sg7
L10L
sass."
EndChar

StartChar: uni0E21
Encoding: 433 3617 161
GlifName: uni0E_21
Width: 645
VWidth: 0
GlyphClass: 2
Flags: HMW
LayerCount: 2
Fore
SplineSet
125 132 m 0
 101 132 85 115 81 92 c 0
 80 89 80 86 80 83 c 0
 80 65 91 52 112 52 c 0
 136 52 153 69 157 92 c 0
 158 95 158 97 158 100 c 0
 158 119 146 132 125 132 c 0
168 468 m 0
 192 468 208 485 212 508 c 0
 213 511 213 514 213 517 c 0
 213 535 202 548 181 548 c 0
 157 548 140 531 136 508 c 0
 135 505 135 503 135 500 c 0
 135 481 147 468 168 468 c 0
109 192 m 1
 103 202 100 213 100 226 c 0
 100 231 100 235 101 240 c 2
 120 360 l 2
 123 379 131 395 141 407 c 1
 94 413 62 445 62 491 c 0
 62 497 62 502 63 508 c 0
 73 570 128 610 191 610 c 0
 248 610 286 578 286 526 c 0
 286 520 286 514 285 508 c 0
 277 458 260 437 252 388 c 2
 225 212 l 2
 224 205 223 200 223 194 c 1
 306 182 362 148 400 110 c 1
 403 143 408 178 413 210 c 2
 475 600 l 1
 603 600 l 1
 508 0 l 1
 390 0 l 1
 360 50 312 98 232 117 c 1
 232 109 231 101 230 92 c 0
 220 30 165 -10 102 -10 c 0
 45 -10 7 22 7 74 c 0
 7 80 7 86 8 92 c 0
 17 146 58 183 109 192 c 1
EndSplineSet
PickledDataWithLists: "(dp0
Vcom.fontlab.hintData
p1
(dp2
Vvhints
p3
(lp4
(dp5
Vposition
p6
L25L
sVwidth
p7
L10L
sa(dp8
g6
L56L
sg7
L10L
sa(dp9
g6
L100L
sg7
L10L
sa(dp10
g6
L200L
sg7
L10L
sa(dp11
g6
L280L
sg7
L10L
sa(dp12
g6
L476L
sg7
L10L
sa(dp13
g6
L484L
sg7
L10L
sa(dp14
g6
L556L
sg7
L10L
sa(dp15
g6
L566L
sg7
L10L
sasVhhints
p16
(lp17
(dp18
g6
L-27L
sg7
L10L
sa(dp19
g6
L243L
sg7
L10L
sa(dp20
g6
L297L
sg7
L10L
sa(dp21
g6
L528L
sg7
L10L
sa(dp22
g6
L548L
sg7
L10L
sa(dp23
g6
L588L
sg7
L10L
sa(dp24
g6
L602L
sg7
L10L
sass."
EndChar

StartChar: uni0E22
Encoding: 434 3618 162
GlifName: uni0E_22
Width: 645
VWidth: 0
GlyphClass: 2
Flags: HMW
LayerCount: 2
Fore
SplineSet
236 468 m 0
 260 468 276 485 280 508 c 0
 281 511 281 514 281 517 c 0
 281 535 270 548 249 548 c 0
 225 548 208 531 204 508 c 0
 203 505 203 503 203 500 c 0
 203 481 215 468 236 468 c 0
479 600 m 1
 607 600 l 1
 542 192 l 2
 523 71 408 -20 252 -20 c 0
 109 -20 24 52 24 152 c 0
 24 161 24 171 26 181 c 0
 37 251 82 291 138 311 c 1
 96 335 68 378 68 434 c 0
 68 443 68 452 70 462 c 0
 84 549 155 610 259 610 c 0
 316 610 354 578 354 526 c 0
 354 520 354 514 353 508 c 0
 343 446 289 406 226 406 c 0
 197 406 173 414 156 429 c 1
 165 372 225 353 327 353 c 1
 315 277 l 1
 221 277 164 248 154 186 c 0
 153 178 152 171 152 164 c 0
 152 102 199 74 267 74 c 0
 343 74 401 109 414 192 c 2
 479 600 l 1
EndSplineSet
PickledDataWithLists: "(dp0
Vcom.fontlab.hintData
p1
(dp2
Vvhints
p3
(lp4
(dp5
Vposition
p6
L44L
sVwidth
p7
L10L
sa(dp8
g6
L114L
sg7
L10L
sa(dp9
g6
L126L
sg7
L10L
sa(dp10
g6
L196L
sg7
L10L
sa(dp11
g6
L335L
sg7
L10L
sa(dp12
g6
L352L
sg7
L10L
sa(dp13
g6
L474L
sg7
L10L
sa(dp14
g6
L562L
sg7
L10L
sasVhhints
p15
(lp16
(dp17
g6
L-26L
sg7
L10L
sa(dp18
g6
L36L
sg7
L10L
sa(dp19
g6
L517L
sg7
L10L
sa(dp20
g6
L546L
sg7
L10L
sa(dp21
g6
L596L
sg7
L10L
sa(dp22
g6
L604L
sg7
L10L
sass."
EndChar

StartChar: uni0E23
Encoding: 435 3619 163
GlifName: uni0E_23
Width: 530
VWidth: 0
GlyphClass: 2
Flags: HMW
AnchorPoint: "ThaiBelow.mark" 440 0 basechar 0
AnchorPoint: "ThaiTone.mark" 450 0 basechar 0
AnchorPoint: "ThaiAbove.mark" 500 0 basechar 0
LayerCount: 2
Fore
SplineSet
414 567 m 1
 417 571 418 575 421 579 c 2
 445 614 l 1
 537 595 l 1
 536 590 l 1
 429 477 l 1
 390 477 l 1
 376 499 350 534 281 534 c 0
 225 534 170 512 150 444 c 1
 302 436 412 405 412 318 c 0
 412 312 412 306 411 300 c 2
 393 190 l 1
 382 117 l 2
 370 41 308 -10 224 -10 c 0
 167 -10 129 22 129 74 c 0
 129 80 129 86 130 92 c 0
 140 154 194 194 257 194 c 0
 261 194 265 193 269 193 c 1
 268 201 269 210 270 218 c 2
 280 284 l 2
 281 288 281 293 281 297 c 0
 281 365 186 381 18 381 c 1
 25 420 l 2
 44 538 143 620 273 620 c 0
 344 620 388 594 414 567 c 1
247 132 m 0
 223 132 207 115 203 92 c 0
 202 89 202 86 202 83 c 0
 202 65 213 52 234 52 c 0
 258 52 275 69 279 92 c 0
 280 95 280 97 280 100 c 0
 280 119 268 132 247 132 c 0
EndSplineSet
PickledDataWithLists: "(dp0
Vcom.fontlab.hintData
p1
(dp2
Vvhints
p3
(lp4
(dp5
Vposition
p6
L31L
sVwidth
p7
L10L
sa(dp8
g6
L111L
sg7
L10L
sa(dp9
g6
L116L
sg7
L10L
sa(dp10
g6
L362L
sg7
L10L
sa(dp11
g6
L446L
sg7
L10L
sa(dp12
g6
L479L
sg7
L10L
sasVhhints
p13
(lp14
(dp15
g6
L-16L
sg7
L10L
sa(dp16
g6
L46L
sg7
L10L
sa(dp17
g6
L91L
sg7
L10L
sa(dp18
g6
L494L
sg7
L10L
sa(dp19
g6
L548L
sg7
L10L
sa(dp20
g6
L610L
sg7
L10L
sass."
EndChar

StartChar: uni0E24
Encoding: 436 3620 164
GlifName: uni0E_24
Width: 655
VWidth: 0
GlyphClass: 2
Flags: HMW
LayerCount: 2
Fore
SplineSet
353 620 m 0
 503 620 594 541 594 429 c 0
 594 418 593 407 591 395 c 2
 495 -210 l 1
 367 -210 l 1
 463 395 l 2
 464 405 465 414 465 422 c 0
 465 494 414 525 338 525 c 0
 270 525 221 494 191 440 c 1
 322 411 l 1
 300 358 l 2
 299 358 281 362 267 362 c 0
 229 362 214 337 209 305 c 2
 199 240 l 2
 196 221 189 206 180 193 c 1
 228 188 260 157 260 110 c 0
 260 104 260 98 259 92 c 0
 249 30 194 -10 131 -10 c 0
 74 -10 36 22 36 74 c 0
 36 80 36 86 37 92 c 0
 44 139 59 164 66 210 c 2
 79 292 l 2
 87 340 117 374 162 389 c 1
 48 412 l 1
 79 516 185 620 353 620 c 0
154 132 m 0
 130 132 114 115 110 92 c 0
 109 89 109 86 109 83 c 0
 109 65 120 52 141 52 c 0
 165 52 182 69 186 92 c 0
 187 95 187 97 187 100 c 0
 187 119 175 132 154 132 c 0
EndSplineSet
PickledDataWithLists: "(dp0
Vcom.fontlab.hintData
p1
(dp2
Vvhints
p3
(lp4
(dp5
Vposition
p6
L81L
sVwidth
p7
L10L
sa(dp8
g6
L86L
sg7
L10L
sa(dp9
g6
L111L
sg7
L10L
sa(dp10
g6
L169L
sg7
L10L
sa(dp11
g6
L199L
sg7
L10L
sa(dp12
g6
L315L
sg7
L10L
sa(dp13
g6
L465L
sg7
L10L
sa(dp14
g6
L476L
sg7
L10L
sa(dp15
g6
L556L
sg7
L10L
sa(dp16
g6
L564L
sg7
L10L
sasVhhints
p17
(lp18
(dp19
g6
L-246L
sg7
L10L
sa(dp20
g6
L-19L
sg7
L10L
sa(dp21
g6
L43L
sg7
L10L
sa(dp22
g6
L56L
sg7
L10L
sa(dp23
g6
L544L
sg7
L10L
sa(dp24
g6
L606L
sg7
L10L
sass."
EndChar

StartChar: uni0E240E45.liga
Encoding: 808 63617 165
GlifName: uni0E_240E_45.liga
Width: 950
VWidth: 0
GlyphClass: 3
Flags: HMW
LayerCount: 2
Fore
SplineSet
154 132 m 0
 130 132 114 115 110 92 c 0
 109 89 109 86 109 83 c 0
 109 65 120 52 141 52 c 0
 165 52 182 69 186 92 c 0
 187 95 187 97 187 100 c 0
 187 119 175 132 154 132 c 0
553 543 m 1
 590 583 644 614 717 614 c 0
 832 614 889 547 889 464 c 0
 889 454 889 444 887 434 c 2
 785 -210 l 1
 657 -210 l 1
 759 434 l 2
 760 442 761 450 761 457 c 0
 761 506 730 519 698 519 c 0
 644 519 612 474 593 424 c 0
 593 415 593 405 591 395 c 2
 495 -210 l 1
 367 -210 l 1
 463 395 l 2
 464 405 465 414 465 422 c 0
 465 494 414 525 338 525 c 0
 270 525 221 494 191 440 c 1
 322 411 l 1
 300 358 l 2
 299 358 281 362 267 362 c 0
 229 362 214 337 209 305 c 2
 199 240 l 2
 196 221 189 206 180 193 c 1
 228 188 260 157 260 110 c 0
 260 104 260 98 259 92 c 0
 249 30 194 -10 131 -10 c 0
 74 -10 36 22 36 74 c 0
 36 80 36 86 37 92 c 0
 44 139 59 164 66 210 c 2
 79 292 l 2
 87 340 117 374 162 389 c 1
 48 412 l 1
 79 516 185 620 353 620 c 0
 444 620 513 591 553 543 c 1
EndSplineSet
PickledDataWithLists: "(dp0
Vcom.fontlab.hintData
p1
(dp2
Vvhints
p3
(lp4
(dp5
Vposition
p6
L81L
sVwidth
p7
L10L
sa(dp8
g6
L86L
sg7
L10L
sa(dp9
g6
L111L
sg7
L10L
sa(dp10
g6
L169L
sg7
L10L
sa(dp11
g6
L199L
sg7
L10L
sa(dp12
g6
L315L
sg7
L10L
sa(dp13
g6
L465L
sg7
L10L
sa(dp14
g6
L476L
sg7
L10L
sa(dp15
g6
L556L
sg7
L10L
sa(dp16
g6
L563L
sg7
L10L
sa(dp17
g6
L756L
sg7
L10L
sa(dp18
g6
L782L
sg7
L10L
sa(dp19
g6
L844L
sg7
L10L
sa(dp20
g6
L870L
sg7
L10L
sasVhhints
p21
(lp22
(dp23
g6
L-245L
sg7
L10L
sa(dp24
g6
L-19L
sg7
L10L
sa(dp25
g6
L43L
sg7
L10L
sa(dp26
g6
L56L
sg7
L10L
sa(dp27
g6
L544L
sg7
L10L
sa(dp28
g6
L606L
sg7
L10L
sass."
Ligature2: "Thai.liga subtable" uni0E24 uni200D uni0E45
Ligature2: "Thai.liga subtable" uni0E24 uni0E45
Colour: ff00ff
EndChar

StartChar: uni0E25
Encoding: 437 3621 166
GlifName: uni0E_25
Width: 635
VWidth: 0
GlyphClass: 2
Flags: HMW
LayerCount: 2
Fore
SplineSet
153 132 m 0
 129 132 113 115 109 92 c 0
 108 89 108 86 108 83 c 0
 108 65 119 52 140 52 c 0
 164 52 181 69 185 92 c 0
 186 95 186 97 186 100 c 0
 186 119 174 132 153 132 c 0
20 109 m 2
 34 198 l 2
 45 268 90 358 224 358 c 0
 319 358 381 304 418 243 c 1
 444 405 l 2
 446 415 446 424 446 432 c 0
 446 498 399 525 328 525 c 0
 252 525 198 484 176 410 c 1
 50 420 l 1
 80 520 181 620 343 620 c 0
 487 620 575 545 575 438 c 0
 575 427 574 416 572 405 c 2
 508 0 l 1
 380 0 l 1
 395 96 l 1
 389 164 325 272 218 272 c 0
 184 272 163 251 158 219 c 0
 156 209 153 200 149 193 c 1
 154 193 158 194 163 194 c 0
 220 194 259 162 259 110 c 0
 259 104 259 98 258 92 c 0
 248 30 193 -10 130 -10 c 0
 63 -10 18 32 18 90 c 0
 18 96 19 102 20 109 c 2
EndSplineSet
PickledDataWithLists: "(dp0
Vcom.fontlab.hintData
p1
(dp2
Vvhints
p3
(lp4
(dp5
Vposition
p6
L41L
sVwidth
p7
L10L
sa(dp8
g6
L91L
sg7
L10L
sa(dp9
g6
L179L
sg7
L10L
sa(dp10
g6
L504L
sg7
L10L
sa(dp11
g6
L589L
sg7
L10L
sasVhhints
p12
(lp13
(dp14
g6
L-16L
sg7
L10L
sa(dp15
g6
L-6L
sg7
L10L
sa(dp16
g6
L296L
sg7
L10L
sa(dp17
g6
L414L
sg7
L10L
sa(dp18
g6
L549L
sg7
L10L
sa(dp19
g6
L610L
sg7
L10L
sass."
EndChar

StartChar: uni0E26
Encoding: 438 3622 167
GlifName: uni0E_26
Width: 670
VWidth: 0
GlyphClass: 2
Flags: HMW
LayerCount: 2
Fore
SplineSet
109 133 m 0
 85 133 69 116 65 93 c 0
 64 90 64 87 64 84 c 0
 64 66 75 53 96 53 c 0
 120 53 137 70 141 93 c 0
 142 96 142 98 142 101 c 0
 142 120 130 133 109 133 c 0
363 621 m 0
 513 621 604 542 604 430 c 0
 604 419 603 408 601 396 c 2
 505 -209 l 1
 377 -209 l 1
 473 396 l 2
 474 406 475 415 475 423 c 0
 475 495 424 526 348 526 c 0
 281 526 231 496 201 442 c 1
 347 412 l 1
 325 359 l 2
 324 359 306 363 292 363 c 0
 254 363 239 338 234 306 c 2
 219 211 l 2
 217 196 216 184 216 172 c 0
 216 159 217 146 217 133 c 0
 217 121 216 108 214 93 c 0
 204 31 150 -9 87 -9 c 0
 30 -9 -9 23 -9 75 c 0
 -9 81 -9 87 -8 93 c 0
 1 149 47 187 102 194 c 1
 98 204 95 215 95 227 c 0
 95 232 95 236 96 241 c 2
 104 293 l 2
 112 341 141 374 186 389 c 1
 58 413 l 1
 89 517 195 621 363 621 c 0
EndSplineSet
PickledDataWithLists: "(dp0
Vcom.fontlab.hintData
p1
(dp2
Vvhints
p3
(lp4
(dp5
Vposition
p6
L26L
sVwidth
p7
L10L
sa(dp8
g6
L81L
sg7
L10L
sa(dp9
g6
L131L
sg7
L10L
sa(dp10
g6
L219L
sg7
L10L
sa(dp11
g6
L465L
sg7
L10L
sa(dp12
g6
L476L
sg7
L10L
sa(dp13
g6
L556L
sg7
L10L
sa(dp14
g6
L564L
sg7
L10L
sasVhhints
p15
(lp16
(dp17
g6
L-246L
sg7
L10L
sa(dp18
g6
L-16L
sg7
L10L
sa(dp19
g6
L66L
sg7
L10L
sa(dp20
g6
L544L
sg7
L10L
sa(dp21
g6
L606L
sg7
L10L
sass."
EndChar

StartChar: uni0E260E45.liga
Encoding: 809 63618 168
GlifName: uni0E_260E_45.liga
Width: 960
VWidth: 0
GlyphClass: 3
Flags: HMW
LayerCount: 2
Fore
SplineSet
109 132 m 0
 85 132 69 115 65 92 c 0
 64 89 64 86 64 83 c 0
 64 65 75 52 96 52 c 0
 120 52 137 69 141 92 c 0
 142 95 142 97 142 100 c 0
 142 119 130 132 109 132 c 0
563 543 m 1
 600 583 654 614 727 614 c 0
 842 614 899 547 899 464 c 0
 899 454 899 444 897 434 c 2
 795 -210 l 1
 667 -210 l 1
 769 434 l 2
 770 442 771 450 771 457 c 0
 771 506 740 519 708 519 c 0
 654 519 622 474 603 424 c 0
 603 415 603 405 601 395 c 2
 505 -210 l 1
 377 -210 l 1
 473 395 l 2
 474 405 475 414 475 422 c 0
 475 494 424 525 348 525 c 0
 281 525 231 495 201 441 c 1
 347 411 l 1
 325 358 l 2
 324 358 306 362 292 362 c 0
 254 362 239 337 234 305 c 2
 219 210 l 2
 217 195 216 183 216 171 c 0
 216 158 217 145 217 132 c 0
 217 120 216 107 214 92 c 0
 204 30 149 -10 86 -10 c 0
 29 -10 -9 22 -9 74 c 0
 -9 80 -9 86 -8 92 c 0
 1 148 47 186 102 193 c 1
 98 203 95 214 95 226 c 0
 95 231 95 235 96 240 c 2
 104 292 l 2
 112 340 140 373 185 388 c 1
 58 412 l 1
 89 516 195 620 363 620 c 0
 454 620 523 591 563 543 c 1
EndSplineSet
PickledDataWithLists: "(dp0
Vcom.fontlab.hintData
p1
(dp2
Vvhints
p3
(lp4
(dp5
Vposition
p6
L26L
sVwidth
p7
L10L
sa(dp8
g6
L81L
sg7
L10L
sa(dp9
g6
L131L
sg7
L10L
sa(dp10
g6
L219L
sg7
L10L
sa(dp11
g6
L465L
sg7
L10L
sa(dp12
g6
L476L
sg7
L10L
sa(dp13
g6
L556L
sg7
L10L
sa(dp14
g6
L563L
sg7
L10L
sa(dp15
g6
L756L
sg7
L10L
sa(dp16
g6
L782L
sg7
L10L
sa(dp17
g6
L844L
sg7
L10L
sa(dp18
g6
L870L
sg7
L10L
sasVhhints
p19
(lp20
(dp21
g6
L-245L
sg7
L10L
sa(dp22
g6
L-16L
sg7
L10L
sa(dp23
g6
L66L
sg7
L10L
sa(dp24
g6
L544L
sg7
L10L
sa(dp25
g6
L606L
sg7
L10L
sass."
Ligature2: "Thai.liga subtable" uni0E26 uni200D uni0E45
Ligature2: "Thai.liga subtable" uni0E26 uni0E45
Colour: ff00ff
EndChar

StartChar: uni0E27
Encoding: 439 3623 169
GlifName: uni0E_27
Width: 535
VWidth: 0
GlyphClass: 2
Flags: HMW
AnchorPoint: "ThaiAbove.mark" 485 0 basechar 0
LayerCount: 2
Fore
SplineSet
19 448 m 1
 45 530 132 620 274 620 c 0
 403 620 473 547 473 452 c 0
 473 442 472 431 470 420 c 2
 433 190 l 1
 422 117 l 2
 410 41 348 -10 264 -10 c 0
 207 -10 169 22 169 74 c 0
 169 80 169 86 170 92 c 0
 180 154 234 194 297 194 c 0
 301 194 305 193 309 193 c 1
 308 201 309 210 310 218 c 2
 342 420 l 2
 343 429 344 437 344 445 c 0
 344 504 306 525 259 525 c 0
 205 525 164 496 145 438 c 1
 19 448 l 1
287 132 m 0
 263 132 247 115 243 92 c 0
 242 89 242 86 242 83 c 0
 242 65 253 52 274 52 c 0
 298 52 315 69 319 92 c 0
 320 95 320 97 320 100 c 0
 320 119 308 132 287 132 c 0
EndSplineSet
PickledDataWithLists: "(dp0
Vcom.fontlab.hintData
p1
(dp2
Vvhints
p3
(lp4
(dp5
Vposition
p6
L21L
sVwidth
p7
L10L
sa(dp8
g6
L168L
sg7
L10L
sa(dp9
g6
L255L
sg7
L10L
sa(dp10
g6
L411L
sg7
L10L
sa(dp11
g6
L499L
sg7
L10L
sasVhhints
p12
(lp13
(dp14
g6
L-15L
sg7
L10L
sa(dp15
g6
L46L
sg7
L10L
sa(dp16
g6
L136L
sg7
L10L
sa(dp17
g6
L394L
sg7
L10L
sa(dp18
g6
L552L
sg7
L9L
sa(dp19
g6
L614L
sg7
L10L
sass."
EndChar

StartChar: uni0E28
Encoding: 440 3624 170
GlifName: uni0E_28
Width: 680
VWidth: 0
GlyphClass: 2
Flags: HMW
LayerCount: 2
Fore
SplineSet
327 357 m 0
 303 357 286 340 282 317 c 0
 281 314 281 312 281 309 c 0
 281 290 293 277 314 277 c 0
 338 277 354 294 358 317 c 0
 359 320 359 323 359 326 c 0
 359 344 348 357 327 357 c 0
409 0 m 1
 424 95 l 2
 435 162 452 235 477 395 c 0
 478 404 479 413 479 421 c 0
 479 435 477 446 474 457 c 1
 446 440 420 422 394 405 c 1
 418 391 431 366 431 335 c 0
 431 329 431 323 430 317 c 0
 420 255 367 215 304 215 c 0
 269 215 241 227 224 248 c 1
 203 214 185 167 171 95 c 2
 154 0 l 1
 16 0 l 1
 16 0 38 71 45 117 c 0
 51 156 52 184 52 213 c 0
 52 220 52 228 52 236 c 0
 52 274 53 319 65 395 c 0
 85 523 205 620 368 620 c 0
 434 620 487 604 527 577 c 1
 562 608 607 639 668 644 c 1
 671 533 l 1
 636 532 608 526 582 514 c 1
 595 489 603 459 603 428 c 0
 603 417 602 406 600 395 c 2
 537 0 l 1
 409 0 l 1
442 503 m 1
 420 518 389 525 353 525 c 0
 268 525 203 487 188 395 c 0
 180 343 174 304 170 272 c 1
 189 319 216 361 254 390 c 0
 273 405 298 415 323 418 c 1
 360 446 402 475 442 503 c 1
EndSplineSet
PickledDataWithLists: "(dp0
Vcom.fontlab.hintData
p1
(dp2
Vvhints
p3
(lp4
(dp5
Vposition
p6
L59L
sVwidth
p7
L10L
sa(dp8
g6
L142L
sg7
L10L
sa(dp9
g6
L439L
sg7
L10L
sa(dp10
g6
L508L
sg7
L10L
sa(dp11
g6
L590L
sg7
L10L
sa(dp12
g6
L637L
sg7
L10L
sasVhhints
p13
(lp14
(dp15
g6
L-18L
sg7
L10L
sa(dp16
g6
L-4L
sg7
L10L
sa(dp17
g6
L551L
sg7
L10L
sa(dp18
g6
L608L
sg7
L10L
sa(dp19
g6
L654L
sg7
L10L
sass."
EndChar

StartChar: uni0E29
Encoding: 441 3625 171
GlifName: uni0E_29
Width: 710
VWidth: 0
GlyphClass: 2
Flags: HMW
LayerCount: 2
Fore
SplineSet
152 468 m 0
 176 468 192 485 196 508 c 0
 197 511 197 514 197 517 c 0
 197 535 186 548 165 548 c 0
 141 548 124 531 120 508 c 0
 119 505 119 503 119 500 c 0
 119 481 131 468 152 468 c 0
369 375 m 0
 351 375 338 363 335 345 c 0
 335 343 334 341 334 339 c 0
 334 324 344 315 360 315 c 0
 378 315 392 327 395 345 c 0
 395 347 395 349 395 351 c 0
 395 366 385 375 369 375 c 0
377 425 m 0
 422 425 453 400 453 359 c 0
 453 354 453 350 452 345 c 0
 449 327 441 311 430 299 c 1
 436 300 443 301 448 301 c 0
 459 301 470 302 482 303 c 1
 529 600 l 1
 657 600 l 1
 615 337 l 1
 642 347 666 356 683 365 c 1
 693 299 l 1
 668 289 639 279 605 270 c 1
 592 192 l 2
 573 71 458 -20 302 -20 c 0
 160 -20 74 55 74 160 c 0
 74 170 75 181 77 192 c 2
 104 360 l 2
 107 379 114 394 124 407 c 1
 77 413 46 444 46 490 c 0
 46 496 46 502 47 508 c 0
 57 570 112 610 175 610 c 0
 232 610 270 578 270 526 c 0
 270 520 270 514 269 508 c 0
 262 461 244 436 237 390 c 2
 205 192 l 2
 204 183 203 175 203 167 c 0
 203 102 249 74 317 74 c 0
 393 74 451 109 464 192 c 2
 473 247 l 1
 450 245 426 244 402 244 c 0
 323 244 277 273 277 328 c 0
 277 333 277 339 278 345 c 0
 286 394 327 425 377 425 c 0
EndSplineSet
PickledDataWithLists: "(dp0
Vcom.fontlab.hintData
p1
(dp2
Vvhints
p3
(lp4
(dp5
Vposition
p6
L84L
sVwidth
p7
L10L
sa(dp8
g6
L109L
sg7
L10L
sa(dp9
g6
L191L
sg7
L10L
sa(dp10
g6
L312L
sg7
L10L
sa(dp11
g6
L375L
sg7
L10L
sa(dp12
g6
L524L
sg7
L10L
sa(dp13
g6
L529L
sg7
L10L
sa(dp14
g6
L606L
sg7
L10L
sa(dp15
g6
L708L
sg7
L10L
sasVhhints
p16
(lp17
(dp18
g6
L-24L
sg7
L10L
sa(dp19
g6
L34L
sg7
L10L
sa(dp20
g6
L391L
sg7
L10L
sa(dp21
g6
L439L
sg7
L10L
sa(dp22
g6
L561L
sg7
L10L
sa(dp23
g6
L599L
sg7
L10L
sa(dp24
g6
L609L
sg7
L10L
sa(dp25
g6
L629L
sg7
L10L
sass."
EndChar

StartChar: uni0E2A
Encoding: 442 3626 172
GlifName: uni0E_2A_
Width: 650
VWidth: 0
GlyphClass: 2
Flags: HMW
LayerCount: 2
Fore
SplineSet
20 109 m 2
 34 198 l 2
 45 268 90 358 224 358 c 0
 225 358 225 358 226 358 c 0
 273 398 347 451 418 500 c 1
 398 517 366 525 328 525 c 0
 252 525 198 484 176 410 c 1
 50 420 l 1
 80 520 181 620 343 620 c 0
 411 620 467 603 506 574 c 1
 541 606 587 639 649 644 c 1
 652 533 l 1
 614 532 586 525 559 512 c 1
 570 490 575 465 575 439 c 0
 575 428 574 417 572 405 c 2
 508 0 l 1
 380 0 l 1
 395 96 l 1
 389 164 325 272 218 272 c 0
 184 272 163 251 158 219 c 0
 156 209 153 200 149 193 c 1
 154 193 158 194 163 194 c 0
 220 194 259 162 259 110 c 0
 259 104 259 98 258 92 c 0
 248 30 193 -10 130 -10 c 0
 63 -10 18 32 18 90 c 0
 18 96 19 102 20 109 c 2
153 132 m 0
 129 132 113 115 109 92 c 0
 108 89 108 86 108 83 c 0
 108 65 119 52 140 52 c 0
 164 52 181 69 185 92 c 0
 186 95 186 97 186 100 c 0
 186 119 174 132 153 132 c 0
295 347 m 1
 352 328 391 288 418 243 c 1
 444 405 l 2
 446 414 446 424 446 432 c 0
 446 439 446 445 445 451 c 1
 389 415 335 378 295 347 c 1
EndSplineSet
PickledDataWithLists: "(dp0
Vcom.fontlab.hintData
p1
(dp2
Vvhints
p3
(lp4
(dp5
Vposition
p6
L54L
sVwidth
p7
L10L
sa(dp8
g6
L94L
sg7
L10L
sa(dp9
g6
L136L
sg7
L10L
sa(dp10
g6
L176L
sg7
L10L
sa(dp11
g6
L504L
sg7
L10L
sa(dp12
g6
L586L
sg7
L10L
sa(dp13
g6
L616L
sg7
L10L
sasVhhints
p14
(lp15
(dp16
g6
L-14L
sg7
L10L
sa(dp17
g6
L-4L
sg7
L10L
sa(dp18
g6
L294L
sg7
L10L
sa(dp19
g6
L370L
sg7
L10L
sa(dp20
g6
L429L
sg7
L10L
sa(dp21
g6
L548L
sg7
L10L
sa(dp22
g6
L606L
sg7
L10L
sa(dp23
g6
L654L
sg7
L10L
sass."
EndChar

StartChar: uni0E2B
Encoding: 443 3627 173
GlifName: uni0E_2B_
Width: 660
VWidth: 0
GlyphClass: 2
Flags: HMW
LayerCount: 2
Fore
SplineSet
512 468 m 0
 536 468 552 485 556 508 c 0
 557 511 557 514 557 517 c 0
 557 535 546 548 525 548 c 0
 501 548 484 531 480 508 c 0
 479 505 479 503 479 500 c 0
 479 481 491 468 512 468 c 0
158 468 m 0
 182 468 198 485 202 508 c 0
 203 511 203 514 203 517 c 0
 203 535 192 548 171 548 c 0
 147 548 130 531 126 508 c 0
 125 505 125 503 125 500 c 0
 125 481 137 468 158 468 c 0
424 437 m 1
 412 451 405 469 405 490 c 0
 405 496 406 502 407 508 c 0
 417 570 472 610 535 610 c 0
 592 610 630 578 630 526 c 0
 630 520 630 514 629 508 c 0
 622 466 595 433 558 417 c 1
 574 405 586 389 586 369 c 0
 586 366 585 363 585 360 c 2
 528 0 l 1
 400 0 l 1
 458 368 l 1
 346 335 228 207 194 81 c 1
 181 0 l 1
 53 0 l 1
 110 360 l 2
 113 379 120 394 130 407 c 1
 83 413 52 444 52 490 c 0
 52 496 52 502 53 508 c 0
 63 570 118 610 181 610 c 0
 238 610 276 578 276 526 c 0
 276 520 276 514 275 508 c 0
 268 461 250 436 243 390 c 2
 226 285 l 1
 279 351 347 408 424 437 c 1
EndSplineSet
PickledDataWithLists: "(dp0
Vcom.fontlab.hintData
p1
(dp2
Vvhints
p3
(lp4
(dp5
Vposition
p6
L84L
sVwidth
p7
L10L
sa(dp8
g6
L166L
sg7
L10L
sa(dp9
g6
L191L
sg7
L11L
sa(dp10
g6
L320L
sg7
L10L
sa(dp11
g6
L395L
sg7
L10L
sa(dp12
g6
L493L
sg7
L10L
sa(dp13
g6
L525L
sg7
L10L
sa(dp14
g6
L600L
sg7
L10L
sa(dp15
g6
L638L
sg7
L10L
sasVhhints
p16
(lp17
(dp18
g6
L-24L
sg7
L10L
sa(dp19
g6
L-12L
sg7
L10L
sa(dp20
g6
L553L
sg7
L10L
sa(dp21
g6
L589L
sg7
L10L
sa(dp22
g6
L602L
sg7
L10L
sass."
EndChar

StartChar: uni0E2C
Encoding: 444 3628 174
GlifName: uni0E_2C_
Width: 760
VWidth: 0
GlyphClass: 2
Flags: HMW
AnchorPoint: "ThaiBelow.mark" 660 0 basechar 0
AnchorPoint: "ThaiTone.mark" 660 0 basechar 0
AnchorPoint: "ThaiAbove.mark" 660 0 basechar 0
LayerCount: 2
Fore
SplineSet
515 268 m 2
 536 400 l 2
 538 414 544 426 551 436 c 1
 498 439 463 472 463 521 c 0
 463 527 463 532 464 538 c 0
 474 600 528 640 591 640 c 0
 647 640 688 608 688 556 c 0
 688 551 688 545 687 540 c 1
 700 561 710 589 719 629 c 1
 790 620 l 1
 767 536 724 491 671 463 c 1
 668 452 666 440 664 425 c 2
 597 0 l 1
 486 0 l 1
 377 337 l 1
 163 0 l 1
 52 0 l 1
 109 360 l 2
 112 379 119 395 129 407 c 1
 82 413 51 444 51 490 c 0
 51 496 51 502 52 508 c 0
 62 570 117 610 180 610 c 0
 237 610 275 578 275 526 c 0
 275 520 275 514 274 508 c 0
 266 460 245 436 237 388 c 2
 218 268 l 2
 215 247 208 221 202 199 c 1
 368 465 l 1
 398 465 l 1
 429 465 l 1
 510 197 l 1
 510 219 512 246 515 268 c 2
569 498 m 0
 593 498 609 515 613 538 c 0
 614 541 614 544 614 547 c 0
 614 565 603 578 582 578 c 0
 558 578 541 561 537 538 c 0
 536 535 536 533 536 530 c 0
 536 511 548 498 569 498 c 0
157 468 m 0
 181 468 197 485 201 508 c 0
 202 511 202 514 202 517 c 0
 202 535 191 548 170 548 c 0
 146 548 129 531 125 508 c 0
 124 505 124 503 124 500 c 0
 124 481 136 468 157 468 c 0
EndSplineSet
PickledDataWithLists: "(dp0
Vcom.fontlab.hintData
p1
(dp2
Vvhints
p3
(lp4
(dp5
Vposition
p6
L58L
sVwidth
p7
L10L
sa(dp8
g6
L104L
sg7
L10L
sa(dp9
g6
L185L
sg7
L10L
sa(dp10
g6
L367L
sg7
L10L
sa(dp11
g6
L430L
sg7
L10L
sa(dp12
g6
L587L
sg7
L10L
sa(dp13
g6
L661L
sg7
L10L
sa(dp14
g6
L760L
sg7
L10L
sasVhhints
p15
(lp16
(dp17
g6
L-18L
sg7
L10L
sa(dp18
g6
L-13L
sg7
L10L
sa(dp19
g6
L329L
sg7
L10L
sa(dp20
g6
L391L
sg7
L10L
sa(dp21
g6
L439L
sg7
L10L
sa(dp22
g6
L561L
sg7
L10L
sa(dp23
g6
L604L
sg7
L10L
sa(dp24
g6
L609L
sg7
L10L
sa(dp25
g6
L629L
sg7
L10L
sass."
EndChar

StartChar: uni0E2D
Encoding: 445 3629 175
GlifName: uni0E_2D_
Width: 635
VWidth: 0
GlyphClass: 2
Flags: HMW
LayerCount: 2
Fore
SplineSet
50 420 m 1
 80 520 181 620 343 620 c 0
 487 620 575 545 575 438 c 0
 575 427 574 416 572 405 c 2
 538 188 l 2
 519 71 410 -20 258 -20 c 0
 121 -20 40 54 40 155 c 0
 40 166 41 177 43 188 c 2
 54 258 l 2
 64 320 118 360 181 360 c 0
 238 360 277 328 277 276 c 0
 277 270 277 264 276 258 c 0
 267 200 220 162 162 157 c 1
 167 100 215 75 273 75 c 0
 341 75 397 108 410 188 c 2
 444 405 l 2
 446 415 446 424 446 432 c 0
 446 498 399 525 328 525 c 0
 252 525 198 484 176 410 c 1
 50 420 l 1
171 298 m 0
 147 298 131 281 127 258 c 0
 126 255 126 253 126 250 c 0
 126 231 138 218 159 218 c 0
 183 218 199 235 203 258 c 0
 204 261 204 263 204 266 c 0
 204 285 192 298 171 298 c 0
EndSplineSet
PickledDataWithLists: "(dp0
Vcom.fontlab.hintData
p1
(dp2
Vvhints
p3
(lp4
(dp5
Vposition
p6
L50L
sVwidth
p7
L10L
sa(dp8
g6
L61L
sg7
L10L
sa(dp9
g6
L149L
sg7
L10L
sa(dp10
g6
L289L
sg7
L10L
sa(dp11
g6
L481L
sg7
L10L
sa(dp12
g6
L569L
sg7
L10L
sasVhhints
p13
(lp14
(dp15
g6
L-19L
sg7
L10L
sa(dp16
g6
L43L
sg7
L10L
sa(dp17
g6
L215L
sg7
L10L
sa(dp18
g6
L230L
sg7
L10L
sa(dp19
g6
L292L
sg7
L10L
sa(dp20
g6
L414L
sg7
L10L
sa(dp21
g6
L549L
sg7
L9L
sa(dp22
g6
L611L
sg7
L10L
sass."
EndChar

StartChar: uni0E2E
Encoding: 446 3630 176
GlifName: uni0E_2E_
Width: 640
VWidth: 0
GlyphClass: 2
Flags: HMW
LayerCount: 2
Fore
SplineSet
165 298 m 0
 141 298 125 281 121 258 c 0
 120 255 120 253 120 250 c 0
 120 231 132 218 153 218 c 0
 177 218 193 235 197 258 c 0
 198 261 198 263 198 266 c 0
 198 285 186 298 165 298 c 0
175 360 m 0
 232 360 271 328 271 276 c 0
 271 270 271 264 270 258 c 0
 261 200 214 162 156 157 c 1
 161 100 209 75 267 75 c 0
 335 75 391 108 404 188 c 2
 422 300 l 2
 432 362 442 377 448 413 c 1
 409 395 359 382 290 382 c 0
 155 382 63 420 63 478 c 0
 63 481 64 484 64 487 c 0
 73 543 156 620 323 620 c 0
 424 620 481 582 510 549 c 1
 525 575 535 608 541 640 c 1
 652 630 l 1
 642 576 611 522 561 487 c 1
 566 473 570 455 570 436 c 0
 570 429 569 421 568 414 c 2
 532 188 l 2
 513 71 404 -20 252 -20 c 0
 115 -20 34 54 34 155 c 0
 34 166 35 177 37 188 c 2
 48 258 l 2
 58 320 112 360 175 360 c 0
184 484 m 0
 184 471 200 455 301 455 c 0
 363 455 408 466 440 483 c 1
 422 520 381 541 315 541 c 0
 231 541 184 515 184 484 c 0
EndSplineSet
PickledDataWithLists: "(dp0
Vcom.fontlab.hintData
p1
(dp2
Vvhints
p3
(lp4
(dp5
Vposition
p6
L54L
sVwidth
p7
L10L
sa(dp8
g6
L64L
sg7
L10L
sa(dp9
g6
L136L
sg7
L10L
sa(dp10
g6
L146L
sg7
L10L
sa(dp11
g6
L286L
sg7
L10L
sa(dp12
g6
L484L
sg7
L10L
sa(dp13
g6
L566L
sg7
L10L
sa(dp14
g6
L616L
sg7
L10L
sasVhhints
p15
(lp16
(dp17
g6
L-18L
sg7
L10L
sa(dp18
g6
L40L
sg7
L10L
sa(dp19
g6
L216L
sg7
L10L
sa(dp20
g6
L233L
sg7
L10L
sa(dp21
g6
L289L
sg7
L10L
sa(dp22
g6
L363L
sg7
L10L
sa(dp23
g6
L420L
sg7
L10L
sa(dp24
g6
L552L
sg7
L10L
sa(dp25
g6
L610L
sg7
L10L
sa(dp26
g6
L654L
sg7
L10L
sass."
EndChar

StartChar: uni0E2F
Encoding: 447 3631 177
GlifName: uni0E_2F_
Width: 495
VWidth: 0
GlyphClass: 2
Flags: HMW
LayerCount: 2
Fore
SplineSet
171 548 m 0
 147 548 130 531 126 508 c 0
 125 505 125 503 125 500 c 0
 125 481 137 468 158 468 c 0
 182 468 198 485 202 508 c 0
 203 511 203 514 203 517 c 0
 203 535 192 548 171 548 c 0
181 610 m 0
 238 610 276 578 276 526 c 0
 276 520 276 514 275 508 c 0
 273 493 269 480 262 468 c 1
 320 492 357 540 381 594 c 1
 439 600 l 1
 448 590 452 575 452 554 c 0
 452 533 448 506 443 473 c 2
 393 158 l 2
 374 35 227 -6 93 -20 c 1
 89 72 l 1
 215 86 257 106 265 158 c 2
 296 356 l 2
 302 396 320 415 333 444 c 1
 290 415 237 395 170 395 c 0
 97 395 51 432 51 489 c 0
 51 495 52 502 53 508 c 0
 63 570 118 610 181 610 c 0
EndSplineSet
PickledDataWithLists: "(dp0
Vcom.fontlab.hintData
p1
(dp2
Vvhints
p3
(lp4
(dp5
Vposition
p6
L31L
sVwidth
p7
L10L
sa(dp8
g6
L119L
sg7
L10L
sa(dp9
g6
L153L
sg7
L10L
sa(dp10
g6
L356L
sg7
L10L
sa(dp11
g6
L356L
sg7
L10L
sa(dp12
g6
L434L
sg7
L10L
sa(dp13
g6
L439L
sg7
L10L
sasVhhints
p14
(lp15
(dp16
g6
L-16L
sg7
L10L
sa(dp17
g6
L394L
sg7
L10L
sa(dp18
g6
L456L
sg7
L10L
sa(dp19
g6
L589L
sg7
L10L
sa(dp20
g6
L596L
sg7
L10L
sass."
EndChar

StartChar: uni0E30
Encoding: 448 3632 178
GlifName: uni0E_30
Width: 540
VWidth: 0
GlyphClass: 2
Flags: HMW
LayerCount: 2
Fore
SplineSet
182 500 m 0
 158 500 142 483 138 460 c 0
 137 457 137 455 137 452 c 0
 137 433 149 420 170 420 c 0
 194 420 210 437 214 460 c 0
 215 463 215 465 215 468 c 0
 215 487 203 500 182 500 c 0
192 562 m 0
 249 562 288 530 288 478 c 0
 288 472 288 466 287 460 c 0
 284 438 275 420 262 404 c 1
 265 404 267 404 269 404 c 2
 289 404 l 2
 350 404 391 461 405 542 c 1
 511 529 l 1
 494 425 415 339 283 339 c 2
 208 339 l 2
 112 339 63 382 63 441 c 0
 63 447 64 454 65 460 c 0
 75 522 129 562 192 562 c 0
135 200 m 0
 111 200 94 183 90 160 c 0
 89 157 89 155 89 152 c 0
 89 133 101 120 122 120 c 0
 146 120 162 137 166 160 c 0
 167 163 167 166 167 169 c 0
 167 187 156 200 135 200 c 0
144 262 m 0
 201 262 240 230 240 178 c 0
 240 172 240 166 239 160 c 0
 236 138 227 120 214 104 c 1
 217 104 219 104 221 104 c 2
 241 104 l 2
 302 104 343 161 357 242 c 1
 463 229 l 1
 446 125 367 39 235 39 c 2
 160 39 l 2
 64 39 15 82 15 141 c 0
 15 147 16 154 17 160 c 0
 27 222 81 262 144 262 c 0
EndSplineSet
PickledDataWithLists: "(dp0
Vcom.fontlab.hintData
p1
(dp2
Vvhints
p3
(lp4
(dp5
Vposition
p6
L51L
sVwidth
p7
L10L
sa(dp8
g6
L60L
sg7
L10L
sa(dp9
g6
L139L
sg7
L10L
sa(dp10
g6
L144L
sg7
L10L
sa(dp11
g6
L154L
sg7
L10L
sa(dp12
g6
L450L
sg7
L10L
sasVhhints
p13
(lp14
(dp15
g6
L60L
sg7
L10L
sa(dp16
g6
L122L
sg7
L10L
sa(dp17
g6
L228L
sg7
L10L
sa(dp18
g6
L360L
sg7
L10L
sa(dp19
g6
L421L
sg7
L10L
sa(dp20
g6
L536L
sg7
L10L
sass."
EndChar

StartChar: uni0E31
Encoding: 449 3633 179
GlifName: uni0E_31
Width: 0
VWidth: 0
GlyphClass: 4
Flags: HMW
AnchorPoint: "ThaiExtendedAbove.mkmk" -60 0 basemark 0
AnchorPoint: "ThaiAbove.mark" -60 0 mark 0
LayerCount: 2
Fore
SplineSet
-196 843 m 0
 -216 843 -232 829 -235 810 c 0
 -235 808 -235 806 -235 804 c 0
 -235 788 -225 777 -207 777 c 0
 -187 777 -172 791 -169 810 c 0
 -169 812 -168 814 -168 816 c 0
 -168 832 -178 843 -196 843 c 0
-188 898 m 0
 -140 898 -106 871 -106 826 c 0
 -106 821 -106 816 -107 810 c 0
 -110 789 -119 772 -131 758 c 1
 -128 758 -125 758 -122 758 c 2
 -107 758 l 2
 -49 758 0 785 15 882 c 1
 108 872 l 1
 91 765 7 698 -99 698 c 2
 -164 698 l 2
 -246 698 -298 732 -298 792 c 0
 -298 798 -298 804 -297 810 c 0
 -288 864 -242 898 -188 898 c 0
EndSplineSet
PickledDataWithLists: "(dp0
Vcom.fontlab.hintData
p1
(dp2
Vvhints
p3
(lp4
(dp5
Vposition
p6
L-391L
sVwidth
p7
L10L
sa(dp8
g6
L-313L
sg7
L10L
sa(dp9
g6
L-306L
sg7
L10L
sa(dp10
g6
L55L
sg7
L10L
sasVhhints
p11
(lp12
(dp13
g6
L717L
sg7
L10L
sa(dp14
g6
L772L
sg7
L10L
sa(dp15
g6
L882L
sg7
L10L
sa(dp16
g6
L952L
sg7
L10L
sass."
Substitution2: "Thai.sl subtable" uni0E31.sl
EndChar

StartChar: uni0E32
Encoding: 450 3634 180
GlifName: uni0E_32
Width: 485
VWidth: 0
GlyphClass: 2
Flags: HMW
LayerCount: 2
Fore
SplineSet
22 465 m 1
 45 538 120 620 248 620 c 0
 364 620 425 552 425 468 c 0
 425 459 424 450 423 440 c 2
 353 0 l 1
 225 0 l 1
 295 440 l 2
 296 448 297 456 297 463 c 0
 297 512 265 525 233 525 c 0
 195 525 164 505 148 455 c 1
 22 465 l 1
EndSplineSet
PickledDataWithLists: "(dp0
Vcom.fontlab.hintData
p1
(dp2
Vvhints
p3
(lp4
(dp5
Vposition
p6
L15L
sVwidth
p7
L10L
sa(dp8
g6
L291L
sg7
L10L
sa(dp9
g6
L312L
sg7
L10L
sa(dp10
g6
L379L
sg7
L10L
sa(dp11
g6
L400L
sg7
L10L
sasVhhints
p12
(lp13
(dp14
g6
L-25L
sg7
L10L
sa(dp15
g6
L399L
sg7
L10L
sa(dp16
g6
L545L
sg7
L10L
sa(dp17
g6
L606L
sg7
L10L
sass."
EndChar

StartChar: uni0E34
Encoding: 452 3636 182
GlifName: uni0E_34
Width: 0
VWidth: 0
GlyphClass: 4
Flags: HMW
AnchorPoint: "ThaiExtendedAbove.mkmk" -60 0 basemark 0
AnchorPoint: "ThaiAbove.mark" -60 0 mark 0
LayerCount: 2
Fore
SplineSet
-361 775 m 1
 -138 735 l 1
 -159 776 -198 826 -276 826 c 0
 -310 826 -343 811 -361 775 c 1
-48 688 m 1
 -61 670 l 1
 -475 737 l 1
 -463 812 -397 895 -269 895 c 0
 -87 895 -54 714 -48 688 c 1
EndSplineSet
PickledDataWithLists: "(dp0
Vcom.fontlab.hintData
p1
(dp2
Vvhints
p3
(lp4
(dp5
Vposition
p6
L-534L
sVwidth
p7
L10L
sa(dp8
g6
L-456L
sg7
L10L
sasVhhints
p9
(lp10
(dp11
g6
L682L
sg7
L10L
sa(dp12
g6
L871L
sg7
L9L
sa(dp13
g6
L919L
sg7
L10L
sass."
Substitution2: "Thai.sl subtable" uni0E34.sl
EndChar

StartChar: uni0E35
Encoding: 453 3637 183
GlifName: uni0E_35
Width: 0
VWidth: 0
GlyphClass: 4
Flags: HMW
AnchorPoint: "ThaiExtendedAbove.mkmk" -60 0 basemark 0
AnchorPoint: "ThaiAbove.mark" -60 0 mark 0
LayerCount: 2
Fore
SplineSet
-111 834 m 2
 -100 900 l 1
 -8 883 l 1
 -40 679 l 1
 -57 665 l 1
 -477 732 l 1
 -465 807 -399 890 -279 890 c 0
 -188 890 -136 834 -107 780 c 1
 -110 795 -112 809 -112 821 c 0
 -112 826 -112 830 -111 834 c 2
-363 770 m 1
 -122 727 l 1
 -145 769 -192 821 -278 821 c 0
 -312 821 -345 806 -363 770 c 1
EndSplineSet
PickledDataWithLists: "(dp0
Vcom.fontlab.hintData
p1
(dp2
Vvhints
p3
(lp4
(dp5
Vposition
p6
L-530L
sVwidth
p7
L10L
sa(dp8
g6
L-460L
sg7
L10L
sa(dp9
g6
L-189L
sg7
L10L
sa(dp10
g6
L-175L
sg7
L10L
sa(dp11
g6
L-116L
sg7
L10L
sasVhhints
p12
(lp13
(dp14
g6
L691L
sg7
L10L
sa(dp15
g6
L861L
sg7
L10L
sa(dp16
g6
L909L
sg7
L10L
sa(dp17
g6
L929L
sg7
L10L
sass."
Substitution2: "Thai.sl subtable" uni0E35.sl
EndChar

StartChar: uni0E36
Encoding: 454 3638 184
GlifName: uni0E_36
Width: 0
VWidth: 0
GlyphClass: 4
Flags: HMW
AnchorPoint: "ThaiExtendedAbove.mkmk" -60 0 basemark 0
AnchorPoint: "ThaiAbove.mark" -60 0 mark 0
LayerCount: 2
Fore
SplineSet
-108 825 m 0
 -132 825 -149 808 -153 785 c 0
 -154 782 -154 780 -154 777 c 0
 -154 758 -142 745 -121 745 c 0
 -97 745 -81 762 -77 785 c 0
 -76 788 -76 791 -76 794 c 0
 -76 812 -87 825 -108 825 c 0
-99 887 m 0
 -42 887 -3 855 -3 803 c 0
 -3 797 -3 791 -4 785 c 0
 -14 723 -68 683 -131 683 c 0
 -154 683 -174 688 -189 698 c 1
 -477 732 l 1
 -465 807 -400 890 -280 890 c 0
 -237 890 -208 876 -186 856 c 1
 -163 876 -132 887 -99 887 c 0
-220 806 m 1
 -234 815 -253 821 -278 821 c 0
 -312 821 -344 807 -362 771 c 1
 -226 752 l 1
 -227 762 -228 773 -226 785 c 0
 -225 792 -222 799 -220 806 c 1
EndSplineSet
PickledDataWithLists: "(dp0
Vcom.fontlab.hintData
p1
(dp2
Vvhints
p3
(lp4
(dp5
Vposition
p6
L-544L
sVwidth
p7
L10L
sa(dp8
g6
L-466L
sg7
L10L
sa(dp9
g6
L-208L
sg7
L10L
sa(dp10
g6
L-134L
sg7
L10L
sa(dp11
g6
L-84L
sg7
L10L
sasVhhints
p12
(lp13
(dp14
g6
L689L
sg7
L10L
sa(dp15
g6
L723L
sg7
L10L
sa(dp16
g6
L824L
sg7
L21L
sa(dp17
g6
L861L
sg7
L10L
sa(dp18
g6
L892L
sg7
L10L
sa(dp19
g6
L909L
sg7
L10L
sass."
Substitution2: "Thai.sl subtable" uni0E36.sl
EndChar

StartChar: uni0E37
Encoding: 455 3639 185
GlifName: uni0E_37
Width: 0
VWidth: 0
GlyphClass: 4
Flags: HMW
AnchorPoint: "ThaiExtendedAbove.mkmk" -60 0 basemark 0
AnchorPoint: "ThaiAbove.mark" -60 0 mark 0
LayerCount: 2
Fore
SplineSet
-203 883 m 2
 -196 925 l 1
 -121 908 l 1
 -149 731 l 1
 -102 722 l 1
 -105 730 -106 739 -106 748 c 0
 -106 753 -106 758 -105 763 c 2
 -83 900 l 1
 -8 883 l 1
 -40 679 l 1
 -56 665 l 1
 -477 731 l 1
 -465 806 -407 890 -289 890 c 0
 -249 890 -220 876 -200 856 c 1
 -202 866 -204 876 -203 883 c 2
-177 735 m 1
 -193 780 -229 821 -288 821 c 0
 -320 821 -348 806 -364 769 c 1
 -177 735 l 1
EndSplineSet
PickledDataWithLists: "(dp0
Vcom.fontlab.hintData
p1
(dp2
Vvhints
p3
(lp4
(dp5
Vposition
p6
L-554L
sVwidth
p7
L10L
sa(dp8
g6
L-476L
sg7
L10L
sa(dp9
g6
L-280L
sg7
L10L
sa(dp10
g6
L-218L
sg7
L10L
sa(dp11
g6
L-159L
sg7
L10L
sa(dp12
g6
L-148L
sg7
L10L
sa(dp13
g6
L-100L
sg7
L10L
sasVhhints
p14
(lp15
(dp16
g6
L698L
sg7
L10L
sa(dp17
g6
L861L
sg7
L10L
sa(dp18
g6
L909L
sg7
L10L
sa(dp19
g6
L922L
sg7
L10L
sa(dp20
g6
L932L
sg7
L10L
sass."
Substitution2: "Thai.sl subtable" uni0E37.sl
EndChar

StartChar: uni0E38
Encoding: 456 3640 186
GlifName: uni0E_38
Width: 0
VWidth: 0
GlyphClass: 4
Flags: HMW
AnchorPoint: "ThaiExtendedBelow.mkmk" -60 0 mark 0
AnchorPoint: "ThaiExtendedBelow.mkmk" -104 -280 basemark 0
AnchorPoint: "ThaiBelow.mark" -60 0 mark 0
LayerCount: 2
Fore
SplineSet
-259 -117 m 0
 -279 -117 -294 -131 -297 -150 c 0
 -297 -152 -297 -154 -297 -156 c 0
 -297 -172 -287 -183 -269 -183 c 0
 -249 -183 -234 -169 -231 -150 c 0
 -231 -148 -231 -146 -231 -144 c 0
 -231 -128 -241 -117 -259 -117 c 0
-286 -305 m 1
 -279 -260 l 2
 -278 -251 -274 -245 -270 -238 c 1
 -272 -238 -275 -238 -278 -238 c 0
 -326 -238 -360 -211 -360 -166 c 0
 -360 -161 -360 -156 -359 -150 c 0
 -350 -96 -304 -62 -250 -62 c 0
 -202 -62 -168 -89 -168 -134 c 0
 -168 -139 -168 -144 -169 -150 c 0
 -176 -192 -183 -206 -189 -242 c 2
 -199 -305 l 1
 -286 -305 l 1
EndSplineSet
PickledDataWithLists: "(dp0
Vcom.fontlab.hintData
p1
(dp2
Vvhints
p3
(lp4
(dp5
Vposition
p6
L-285L
sVwidth
p7
L10L
sa(dp8
g6
L-185L
sg7
L10L
sa(dp9
g6
L-104L
sg7
L10L
sasVhhints
p10
(lp11
(dp12
g6
L-322L
sg7
L10L
sa(dp13
g6
L-172L
sg7
L10L
sa(dp14
g6
L-98L
sg7
L10L
sass."
Substitution2: "ThaiBV.sd subtable" uni0E38.sd
EndChar

StartChar: uni0E39
Encoding: 457 3641 187
GlifName: uni0E_39
Width: 0
VWidth: 0
GlyphClass: 4
Flags: HMW
AnchorPoint: "ThaiExtendedBelow.mkmk" -60 0 mark 0
AnchorPoint: "ThaiExtendedBelow.mkmk" -104 -280 basemark 0
AnchorPoint: "ThaiBelow.mark" -90 0 mark 0
LayerCount: 2
Fore
SplineSet
-419 -117 m 0
 -439 -117 -454 -131 -457 -150 c 0
 -457 -152 -457 -154 -457 -156 c 0
 -457 -172 -447 -183 -429 -183 c 0
 -409 -183 -394 -169 -391 -150 c 0
 -391 -148 -391 -146 -391 -144 c 0
 -391 -128 -401 -117 -419 -117 c 0
-329 -150 m 0
 -335 -186 -346 -197 -349 -217 c 2
 -351 -230 l 2
 -351 -231 -351 -233 -351 -234 c 0
 -351 -244 -343 -253 -314 -253 c 0
 -281 -253 -271 -242 -269 -230 c 2
 -244 -69 l 1
 -157 -69 l 1
 -184 -238 l 2
 -191 -284 -247 -310 -323 -310 c 0
 -394 -310 -437 -295 -437 -256 c 0
 -437 -253 -436 -250 -436 -247 c 2
 -435 -238 l 2
 -436 -238 -437 -238 -438 -238 c 0
 -486 -238 -520 -211 -520 -166 c 0
 -520 -161 -520 -156 -519 -150 c 0
 -510 -96 -464 -62 -410 -62 c 0
 -362 -62 -328 -89 -328 -134 c 0
 -328 -139 -328 -144 -329 -150 c 0
EndSplineSet
PickledDataWithLists: "(dp0
Vcom.fontlab.hintData
p1
(dp2
Vvhints
p3
(lp4
(dp5
Vposition
p6
L-401L
sVwidth
p7
L10L
sa(dp8
g6
L-115L
sg7
L10L
sasVhhints
p9
(lp10
(dp11
g6
L-331L
sg7
L10L
sa(dp12
g6
L-267L
sg7
L21L
sa(dp13
g6
L-154L
sg7
L10L
sa(dp14
g6
L-106L
sg7
L10L
sass."
Substitution2: "ThaiBV.sd subtable" uni0E39.sd
EndChar

StartChar: uni0E3A
Encoding: 458 3642 188
GlifName: uni0E_3A_
Width: 0
VWidth: 0
GlyphClass: 4
Flags: HMW
AnchorPoint: "ThaiExtendedBelow.mkmk" -60 0 mark 0
AnchorPoint: "ThaiExtendedBelow.mkmk" -93 -210 basemark 0
AnchorPoint: "ThaiBelow.mark" -60 0 mark 0
LayerCount: 2
Fore
SplineSet
-221 -69 m 0
 -176 -69 -145 -95 -145 -136 c 0
 -145 -141 -145 -145 -146 -150 c 0
 -154 -200 -197 -231 -247 -231 c 0
 -292 -231 -323 -205 -323 -164 c 0
 -323 -159 -323 -155 -322 -150 c 0
 -314 -100 -271 -69 -221 -69 c 0
EndSplineSet
PickledDataWithLists: "(dp0
Vcom.fontlab.hintData
p1
(dp2
Vvhints
p3
(lp4
(dp5
Vposition
p6
L-229L
sVwidth
p7
L10L
sa(dp8
g6
L-81L
sg7
L10L
sasVhhints
p9
(lp10
(dp11
g6
L-231L
sg7
L10L
sa(dp12
g6
L-110L
sg7
L10L
sass."
Substitution2: "ThaiBV.sd subtable" uni0E3A.sd
EndChar

StartChar: uni0E3F
Encoding: 459 3647 189
GlifName: uni0E_3F_
Width: 720
VWidth: 0
GlyphClass: 2
Flags: HMW
LayerCount: 2
Fore
SplineSet
342 457 m 1
 398 464 461 500 474 579 c 0
 475 586 476 593 476 599 c 0
 476 661 422 687 335 687 c 0
 309 687 286 686 268 685 c 1
 232 455 l 1
 264 456 301 457 342 457 c 1
496 436 m 1
 585 408 637 351 637 267 c 0
 637 255 636 243 634 230 c 0
 613 95 491 10 325 -6 c 1
 307 -120 l 1
 204 -120 l 1
 222 -9 l 1
 114 -7 31 -1 23 0 c 1
 147 780 l 1
 155 781 241 788 348 789 c 1
 366 900 l 1
 469 900 l 1
 450 782 l 1
 551 763 619 707 619 619 c 0
 619 610 618 601 617 591 c 0
 605 516 557 467 496 436 c 1
175 97 m 1
 200 96 233 94 269 94 c 0
 380 94 475 125 492 230 c 0
 493 239 494 247 494 255 c 0
 494 339 413 362 311 362 c 0
 275 362 242 360 217 359 c 1
 175 97 l 1
EndSplineSet
PickledDataWithLists: "(dp0
Vcom.fontlab.hintData
p1
(dp2
Vvhints
p3
(lp4
(dp5
Vposition
p6
L26L
sVwidth
p7
L10L
sa(dp8
g6
L116L
sg7
L10L
sa(dp9
g6
L121L
sg7
L10L
sa(dp10
g6
L223L
sg7
L10L
sa(dp11
g6
L343L
sg7
L10L
sa(dp12
g6
L350L
sg7
L10L
sa(dp13
g6
L407L
sg7
L10L
sa(dp14
g6
L412L
sg7
L10L
sa(dp15
g6
L537L
sg7
L10L
sa(dp16
g6
L636L
sg7
L10L
sa(dp17
g6
L735L
sg7
L10L
sasVhhints
p18
(lp19
(dp20
g6
L-127L
sg7
L10L
sa(dp21
g6
L-22L
sg7
L10L
sa(dp22
g6
L49L
sg7
L10L
sa(dp23
g6
L395L
sg7
L10L
sa(dp24
g6
L634L
sg7
L10L
sa(dp25
g6
L661L
sg7
L10L
sa(dp26
g6
L916L
sg7
L10L
sass."
EndChar

StartChar: uni0E40
Encoding: 460 3648 190
GlifName: uni0E_40
Width: 330
VWidth: 0
GlyphClass: 2
Flags: HMW
LayerCount: 2
Fore
SplineSet
154 132 m 0
 130 132 114 115 110 92 c 0
 109 89 109 86 109 83 c 0
 109 65 120 52 141 52 c 0
 165 52 182 69 186 92 c 0
 187 95 187 97 187 100 c 0
 187 119 175 132 154 132 c 0
37 92 m 0
 44 139 59 164 66 210 c 2
 128 600 l 1
 256 600 l 1
 199 240 l 2
 196 221 189 206 180 193 c 1
 228 188 260 157 260 110 c 0
 260 104 260 98 259 92 c 0
 249 30 194 -10 131 -10 c 0
 74 -10 36 22 36 74 c 0
 36 80 36 86 37 92 c 0
EndSplineSet
PickledDataWithLists: "(dp0
Vcom.fontlab.hintData
p1
(dp2
Vvhints
p3
(lp4
(dp5
Vposition
p6
L116L
sVwidth
p7
L10L
sa(dp8
g6
L121L
sg7
L10L
sa(dp9
g6
L204L
sg7
L10L
sa(dp10
g6
L209L
sg7
L10L
sa(dp11
g6
L244L
sg7
L10L
sasVhhints
p12
(lp13
(dp14
g6
L-30L
sg7
L10L
sa(dp15
g6
L586L
sg7
L10L
sass."
EndChar

StartChar: uni0E41
Encoding: 461 3649 191
GlifName: uni0E_41
Width: 630
VWidth: 0
GlyphClass: 2
Flags: HMW
LayerCount: 2
Fore
SplineSet
454 132 m 0
 430 132 414 115 410 92 c 0
 409 89 409 86 409 83 c 0
 409 65 420 52 441 52 c 0
 465 52 482 69 486 92 c 0
 487 95 487 97 487 100 c 0
 487 119 475 132 454 132 c 0
337 92 m 0
 344 139 359 164 366 210 c 2
 428 600 l 1
 556 600 l 1
 499 240 l 2
 496 221 489 206 480 193 c 1
 528 188 560 157 560 110 c 0
 560 104 560 98 559 92 c 0
 549 30 494 -10 431 -10 c 0
 374 -10 336 22 336 74 c 0
 336 80 336 86 337 92 c 0
154 132 m 0
 130 132 114 115 110 92 c 0
 109 89 109 86 109 83 c 0
 109 65 120 52 141 52 c 0
 165 52 182 69 186 92 c 0
 187 95 187 97 187 100 c 0
 187 119 175 132 154 132 c 0
37 92 m 0
 44 139 59 164 66 210 c 2
 128 600 l 1
 256 600 l 1
 199 240 l 2
 196 221 189 206 180 193 c 1
 228 188 260 157 260 110 c 0
 260 104 260 98 259 92 c 0
 249 30 194 -10 131 -10 c 0
 74 -10 36 22 36 74 c 0
 36 80 36 86 37 92 c 0
EndSplineSet
PickledDataWithLists: "(dp0
Vcom.fontlab.hintData
p1
(dp2
Vvhints
p3
(lp4
(dp5
Vposition
p6
L116L
sVwidth
p7
L10L
sa(dp8
g6
L121L
sg7
L10L
sa(dp9
g6
L204L
sg7
L10L
sa(dp10
g6
L209L
sg7
L10L
sa(dp11
g6
L259L
sg7
L10L
sa(dp12
g6
L386L
sg7
L10L
sa(dp13
g6
L391L
sg7
L10L
sa(dp14
g6
L474L
sg7
L10L
sa(dp15
g6
L479L
sg7
L10L
sa(dp16
g6
L514L
sg7
L10L
sasVhhints
p17
(lp18
(dp19
g6
L-26L
sg7
L10L
sa(dp20
g6
L-11L
sg7
L10L
sa(dp21
g6
L586L
sg7
L10L
sa(dp22
g6
L596L
sg7
L10L
sass."
EndChar

